<?xml version="1.0" encoding="UTF-8"?><svg id="b" xmlns="http://www.w3.org/2000/svg" width="31.35" height="127.76" viewBox="0 0 31.35 127.76"><defs><style>.d{fill:#fff;}.e{fill:#354235;}.f{fill:#606060;}</style></defs><rect class="e" x="0" y="23.27" width="31.35" height="104.49" rx="13.95" ry="13.95"/><rect class="f" x="23.25" y="47.82" width="3.25" height="58.89" rx="1.63" ry="1.63" transform="translate(3.31 -.99) rotate(2.44)"/><rect class="e" x="10.92" width="10.45" height="24.7" rx="1.59" ry="1.59"/><rect class="d" x="12.9" y="2.51" width="3.25" height="20.29" rx="1.63" ry="1.63"/><circle class="d" cx="25.17" cy="42.75" r="1.9"/><path class="d" d="m5.51,113.27c.22.96.7,1.8,1.31,2.56.27.33.58.61.92.87s.7.5,1.09.68c.17.11.36.17.56.18.2.04.4.04.6-.03.35-.1.73-.36.9-.69.18-.35.28-.77.15-1.16-.11-.35-.34-.74-.69-.9s-.65-.34-.94-.57l.3.23c-.31-.25-.6-.53-.84-.85l.23.3c-.24-.32-.45-.66-.6-1.03l.15.36c-.11-.25-.19-.51-.25-.77-.08-.36-.38-.71-.69-.9s-.8-.27-1.16-.15c-.8.26-1.24,1.02-1.05,1.85h0Z"/><path class="d" d="m22.21,39.86c1.93,0,1.93-3,0-3s-1.93,3,0,3h0Z"/></svg>