<?xml version="1.0" encoding="UTF-8"?><svg id="b" xmlns="http://www.w3.org/2000/svg" width="261.55" height="440.25" viewBox="0 0 261.55 440.25"><defs><style>.d{fill:#ef7d5b;}.e{fill:#fff;}.f{fill:#ffefe6;}.g{fill:#ffe7cc;}.h,.i{fill:#ffd0ab;}.j{fill:#f22e00;}.k{fill:#6b523e;}.l{fill:#b59b7f;}.m{fill:#d22f00;}.n{fill:#dab994;}.o{fill:#4479c4;}.p{fill:#0e0000;}.q{fill:#a38971;}.r{fill:#354235;}.s{fill:#3d2a24;}.t{fill:#4f372e;}.i{stroke:#b59b7f;stroke-miterlimit:10;}</style></defs><ellipse class="t" cx="131.11" cy="127.61" rx="78.87" ry="117.61"/><ellipse class="k" cx="175.53" cy="85.21" rx="26.29" ry="72.27" transform="translate(-18.93 69.18) rotate(-21.18)"/><rect class="e" x="73" y="171.88" width="114.84" height="189.56"/><ellipse class="i" cx="133.18" cy="178.8" rx="21.45" ry="9.69"/><polygon class="h" points="147.06 173 120.04 171.88 120.04 127.61 147.71 127.61 147.06 173"/><ellipse class="k" cx="76.79" cy="62.58" rx="59.5" ry="18.68" transform="translate(-18.31 90.29) rotate(-55.43)"/><rect class="o" x="134.5" y="360.06" width="58.53" height="80.21"/><rect class="o" x="68.61" y="360.07" width="57.92" height="80.21"/><rect class="h" x="175.8" y="247.21" width="97.05" height="29.41" rx="7.62" ry="7.62" transform="translate(306.34 -73.04) rotate(54.34)"/><ellipse class="h" cx="131.11" cy="83.33" rx="52.58" ry="62.26"/><path class="l" d="m182.94,83.33c-.03,12.43-3.13,24.86-9.54,35.56-5.73,9.58-14.1,17.68-24.39,22.19-10.1,4.43-21.62,4.95-32.08,1.44-10.58-3.55-19.55-11-25.86-20.11-6.98-10.09-10.88-22.15-11.65-34.36-.79-12.55,1.59-25.35,7.34-36.57,5.14-10.03,12.96-18.79,22.94-24.18,9.65-5.21,21-6.82,31.68-4.26,10.77,2.58,20.16,9.15,27.09,17.69,7.62,9.39,12.25,21.07,13.83,33.02.42,3.18.61,6.39.62,9.6,0,.97,1.5.97,1.5,0-.03-12.74-3.24-25.51-9.83-36.46-5.93-9.86-14.63-18.21-25.27-22.77-10.35-4.44-22.11-4.99-32.8-1.4-10.82,3.63-19.94,11.13-26.47,20.39-7.28,10.33-11.3,22.77-12.13,35.34-.85,12.88,1.64,26.01,7.53,37.52,5.27,10.29,13.37,19.3,23.62,24.79,9.93,5.32,21.56,6.97,32.55,4.38,11.11-2.62,20.89-9.41,28.01-18.24,7.78-9.65,12.52-21.5,14.14-33.75.43-3.25.64-6.52.65-9.8,0-.97-1.5-.97-1.5,0Z"/><ellipse class="s" cx="162.42" cy="54.09" rx="26.29" ry="57.35" transform="translate(12.36 136.49) rotate(-47.19)"/><ellipse class="s" cx="83.37" cy="62.58" rx="59.5" ry="18.68" transform="translate(-15.46 95.72) rotate(-55.43)"/><rect class="e" x="168.12" y="176.99" width="50.03" height="74.21" rx="5.22" ry="5.22" transform="translate(-88.6 152.75) rotate(-35.66)"/><rect class="h" x="159.78" y="299.42" width="91.32" height="27.15" transform="translate(-128.97 144.65) rotate(-30)"/><rect class="h" x="-10.1" y="247.29" width="91.32" height="29.41" rx="7.62" ry="7.62" transform="translate(269.15 385.86) rotate(125.66)"/><rect class="e" x="28.48" y="189.89" width="74.21" height="44.44" rx="5.22" ry="5.22" transform="translate(-144.98 141.72) rotate(-54.34)"/><rect class="h" x="10.44" y="294.18" width="91.32" height="29.41" transform="translate(-49.76 604.44) rotate(-150)"/><path class="p" d="m117.17,82.09c1.74-2.98-.44-6.01-3.1-7.41-2.98-1.57-6.39-2.65-9.76-2.8-5.91-.26-11.97,3.36-12.66,9.6-.21,1.92,2.79,1.9,3,0,.47-4.23,5.02-6.57,8.86-6.61,2.52-.03,5.01.66,7.32,1.61,1.37.56,4.98,2.02,3.76,4.11-.98,1.67,1.61,3.18,2.59,1.51h0Z"/><path class="p" d="m143.61,80.91c1.41-2.68,3.22-5.08,5.47-7.13,2.24-2.05,5.1-4.1,8.15-4.62,5.69-.97,9.83,4.78,12.53,8.91,1.05,1.61,3.65.11,2.59-1.51-3.34-5.12-8.21-11.24-15.09-10.41-3.6.43-6.84,2.56-9.55,4.85s-5.02,5.21-6.69,8.4c-.9,1.71,1.69,3.23,2.59,1.51h0Z"/><rect class="e" x="168.46" y="383.2" width="13.14" height="57.94" rx="1.71" ry="1.71" transform="translate(314.72 837.63) rotate(-175.17)"/><circle class="e" cx="147.29" cy="75.33" r="4.77"/><circle class="e" cx="97.69" cy="77.84" r="4.25"/><circle class="e" cx="153.35" cy="71.38" r="1.38"/><circle class="e" cx="105.07" cy="73.94" r="1.22"/><path class="m" d="m127.15,125.35c1.58-.36,3.1-.48,4.82-.35s3.64.94,5.49.29c.77-.27,1.68-.83,2.32-1.09.54-.22,1.43-.49,2.13-.65.79-.18,1.07-.22,1.97-.26.41-.02.81-.02,1.22,0,.17,0,1.14.09.94.06,1.6.23,3.22-.39,3.69-2.1.39-1.41-.48-3.46-2.1-3.69-4.05-.58-7.98-.06-11.64,1.82-.27.14-.61.33-.1.19.25.08.18.08-.19-.01-.23-.05-.46-.1-.7-.15-1.06-.21-2.15-.35-3.23-.42-2.08-.13-4.19.11-6.22.58-1.58.36-2.51,2.18-2.1,3.69.45,1.62,2.11,2.46,3.69,2.1h0Z"/><path class="m" d="m121.86,127.99c1.06-.23,2.12-.41,3.18-.58.66-.1-.46.04.27-.04.22-.02.45-.05.67-.08.54-.06,1.07-.11,1.61-.14,2.11-.15,4.22-.15,6.33-.01,1.25.08,2.62-.98,2.89-2.2.3-1.3-.2-2.69-1.38-3.39-5.63-3.32-12.83-2.51-17.79,1.62-1.21,1.01-1.12,3.22,0,4.24,1.29,1.18,2.95,1.07,4.24,0,.3-.25.03.01-.12.08.12-.05.23-.17.33-.24.25-.18.52-.34.78-.5.24-.14.48-.27.73-.39.13-.07.36-.13.47-.22-.12.1-.52.2-.14.07.55-.2,1.11-.38,1.68-.51.27-.06.54-.1.81-.16.4-.09-.59.06-.18.02.17-.01.34-.04.52-.05.55-.04,1.11-.04,1.66-.01.17,0,.34.02.52.04.09,0,.57.06.12,0s.37.07.52.11c.58.12,1.13.3,1.69.49.38.13,0-.05-.14-.07.15.02.34.15.47.22.28.14.55.29.82.45l1.51-5.59c-4.58-.3-9.18.09-13.66,1.06-1.54.33-2.58,2.21-2.1,3.69.52,1.62,2.04,2.45,3.69,2.1h0Z"/><rect class="r" x="162.77" y="230.46" width="37.53" height="125.11" rx="13.95" ry="13.95" transform="translate(46.66 -24.19) rotate(8.74)"/><rect class="e" x="190.16" y="261.5" width="3.89" height="70.52" rx="1.63" ry="1.63" transform="translate(61.18 -31.62) rotate(11.18)"/><rect class="r" x="187.34" y="203.56" width="12.51" height="29.57" rx="1.59" ry="1.59" transform="translate(35.44 -26.89) rotate(8.74)"/><rect class="e" x="189.68" y="206.27" width="3.89" height="24.29" rx="1.63" ry="1.63" transform="translate(35.43 -26.59) rotate(8.74)"/><circle class="e" cx="198.74" cy="255.96" r="2.27"/><path class="e" d="m162.92,335.64c.17,2.28,1.36,4.34,3.28,5.59.66.43,1.69.16,2.05-.54.39-.75.17-1.6-.54-2.05-.13-.08-.25-.17-.37-.26l.3.23c-.38-.3-.72-.64-1.01-1.02l.23.3c-.29-.38-.53-.8-.72-1.24l.15.36c-.19-.46-.33-.95-.4-1.45l.05.4c-.01-.11-.02-.22-.03-.33-.03-.4-.15-.77-.44-1.06-.26-.26-.69-.46-1.06-.44-.76.03-1.56.66-1.5,1.5h0Z"/><path class="e" d="m196.03,251.73c1.93,0,1.93-3,0-3s-1.93,3,0,3h0Z"/><rect class="q" x="42.48" y="284" width="175.58" height="2"/><rect class="q" x="46.27" y="323.86" width="175.58" height="2.14"/><rect class="n" x="41.17" y="325.47" width="181.26" height="38.74"/><rect class="n" x="41.17" y="245.22" width="181.26" height="38.74"/><rect class="e" x="174.3" y="218.93" width="2.77" height="85.46" rx="1.26" ry="1.26" transform="translate(-85.97 437.35) rotate(-90)"/><rect class="n" x="41.17" y="285.34" width="181.26" height="38.74"/><rect class="e" x="95.23" y="243.35" width="4" height="99.86" rx="1.71" ry="1.71" transform="translate(-196.04 390.51) rotate(-90)"/><path class="g" d="m224.8,318.57c6.6-3.34,13.08-6.91,19.42-10.71,3.1-1.86,6.17-3.78,9.2-5.76,2.56-1.67,5.34-3.37,6.26-6.48.55-1.85-2.34-2.65-2.89-.8-.81,2.73-4.25,4.29-6.47,5.71-2.91,1.87-5.86,3.69-8.83,5.46-5.95,3.54-12.03,6.86-18.2,9.99-1.72.87-.21,3.46,1.51,2.59h0Z"/><path class="g" d="m30.96,309.05c-6.14-2.54-12.17-5.62-17.18-10.05-3.99-3.53-7.3-7.75-10.84-11.71-1.29-1.44-3.4.68-2.12,2.12,3.66,4.1,7.08,8.47,11.25,12.07,5.33,4.61,11.61,7.78,18.09,10.46,1.78.74,2.56-2.16.8-2.89h0Z"/><path class="g" d="m136.28,151.81c.18,9.26.02,18.53-.49,27.78-.11,1.93,2.89,1.92,3,0,.51-9.25.67-18.51.49-27.78-.04-1.93-3.04-1.93-3,0h0Z"/><path class="g" d="m159.39,134.42c5.36-6.12,9.56-13.12,12.47-20.72.69-1.81-2.21-2.59-2.89-.8-2.71,7.09-6.69,13.69-11.69,19.4-1.27,1.45.85,3.58,2.12,2.12h0Z"/><path class="g" d="m112.37,126.48c3.61,6.6,11.86,8.72,18.73,9.9,1.89.33,3.82.45,5.69-.07,1.81-.5,3.45-1.48,5-2.52,3.29-2.19,6.4-4.64,9.33-7.29,1.43-1.3-.69-3.41-2.12-2.12-2.57,2.33-5.28,4.49-8.15,6.44-1.39.95-2.83,1.94-4.44,2.47-1.63.53-3.3.43-4.96.11-5.94-1.13-13.33-2.67-16.49-8.44-.93-1.69-3.52-.18-2.59,1.51h0Z"/><path class="m" d="m111.58,124.59c5.87,5.41,13.12,9.66,21.29,9.94,3.88.13,7.84-.7,11.28-2.53,3.62-1.92,6.24-5.06,8.74-8.22,3.19-4.02,6.37-8.04,9.56-12.07,1.01-1.27,1.24-3,0-4.24-1.04-1.04-3.23-1.28-4.24,0-2.58,3.26-5.16,6.51-7.74,9.77-2.25,2.84-4.41,6.06-7.3,8.29-5.02,3.87-12.02,3.67-17.64,1.32-3.61-1.51-6.84-3.87-9.7-6.51-1.19-1.1-3.06-1.18-4.24,0-1.11,1.11-1.2,3.14,0,4.24h0Z"/><path class="d" d="m131.68,123.7c-.22.85.89,1.4,1.75,1.56,2.36.45,4.76.73,7.17.84,1.89.09,4.42-.5,4.47-2.39-6,2.85-12.8,4.01-19.41,3.32-.38-.79.77-1.4,1.63-1.53,7-1.01,14.1-1.33,21.16-.96"/><path class="m" d="m128.68,123.7c-.25,2.34,1.91,3.98,3.95,4.45,2.17.5,4.47.72,6.69.88,3.87.28,8.33-.72,8.74-5.32.22-2.47-2.66-3.46-4.51-2.59-5.58,2.61-11.79,3.52-17.9,2.91.96.73,1.93,1.47,2.89,2.2.18,1.29-.15,2.06-1,2.3.13-.05.27-.08.4-.11.29-.05.58-.09.87-.13.95-.13,1.9-.23,2.85-.33,1.83-.19,3.67-.33,5.51-.42,3.75-.19,7.51-.18,11.27,0,1.62.08,3-1.44,3-3,0-1.69-1.38-2.92-3-3-4.78-.24-9.58-.19-14.35.2-2.47.2-4.94.45-7.39.84s-4.75,2.58-3.94,5.25c.42,1.37,1.53,2.07,2.89,2.2,7.2.71,14.4-.68,20.93-3.73-1.5-.86-3.01-1.73-4.51-2.59.02-.2.03-.39.13-.57.06-.14.15-.24.28-.31.15-.1.15-.1,0-.01.03.01-.59.26-.24.14s-.38.08-.45.1c-.22.06-.39.06-.06.03-.24.02-.48.03-.71.03-.56,0-1.13-.04-1.69-.08-1.07-.08-2.15-.18-3.21-.34-.63-.09-1.27-.18-1.88-.32l-.27-.06c-.3-.1-.36-.11-.17-.05.08.01.14.05.19.11.4.31.63.76.7,1.33.18-1.61-1.5-3-3-3-1.77,0-2.82,1.38-3,3h0Z"/><path class="e" d="m151.56,118.9c-1.96.59-4.06.11-6.11.06-2.05-.05-4.41.57-5.26,2.43"/><path class="e" d="m151.16,117.45c-2.28.64-4.65-.2-6.97.06-2.11.24-4.32,1.09-5.31,3.12-.35.73-.2,1.62.54,2.05.66.39,1.7.19,2.05-.54.32-.66.68-.97,1.33-1.26s1.45-.41,2.18-.43c2.36-.06,4.65.54,6.98-.12,1.86-.52,1.07-3.42-.8-2.89h0Z"/><path class="j" d="m114.95,123.45c5.28,1.68,10.77,2.75,16.31,3.05,5.18.29,10.4-.28,15.12-2.53,1.74-.83.22-3.42-1.51-2.59-4.36,2.08-9.28,2.4-14.04,2.09-5.13-.33-10.19-1.36-15.08-2.92-1.84-.59-2.63,2.31-.8,2.89h0Z"/><path class="e" d="m176.49,174.61c2.75,0,5.5,0,8.25,0,1.29,0,2.59,0,3.88,0,.99,0,2.43-.24,3.2.54,1.36,1.39,3.4-.69,2.12-2.12-1.77-1.99-4.73-1.67-7.14-1.71-3.23-.04-6.46-.09-9.69-.13-2.93-.04-5.86.02-8.67.99s-5.33,2.52-7.83,4.09c-1.63,1.02-.13,3.62,1.51,2.59,2.14-1.35,4.32-2.75,6.7-3.64,2.54-.95,5.13-1.06,7.81-1.03,2.73.03,5.45.07,8.18.11,1.41.02,2.82.03,4.22.06,1,.02,2.07,0,2.78.8l2.12-2.12c-1.93-1.98-5.24-1.42-7.74-1.42-3.23,0-6.47,0-9.7.01-1.93,0-1.93,3,0,3h0Z"/><path class="e" d="m69.63,173.87c6.43-.16,13.26-.31,18.93,3.19,1.65,1.02,3.16-1.58,1.51-2.59-6.13-3.78-13.48-3.77-20.44-3.6-1.93.05-1.93,3.05,0,3h0Z"/><path class="f" d="m55.79,236.09c6.61-7.74,11.01-17.2,12.51-27.28.28-1.89-2.61-2.7-2.89-.8-1.42,9.56-5.46,18.6-11.74,25.96-1.25,1.46.86,3.59,2.12,2.12h0Z"/><path class="f" d="m160.37,338.18h24.58c1.93,0,1.93-3,0-3h-24.58c-1.93,0-1.93,3,0,3h0Z"/><path class="f" d="m74.67,371.99c-.66,17.62-1.32,35.25-1.98,52.87-.19,5.05-.38,10.09-.57,15.14-.07,1.93,2.93,1.93,3,0,.66-17.62,1.32-35.25,1.98-52.87l.57-15.14c.07-1.93-2.93-1.93-3,0h0Z"/><path class="n" d="m62.29,98.15c17.51-17.12,32.77-36.54,45.27-57.59"/><path class="n" d="m63.35,99.21c13.72-13.43,26.07-28.25,36.81-44.17,3.03-4.49,5.93-9.07,8.7-13.73.99-1.66-1.6-3.17-2.59-1.51-9.72,16.35-21.08,31.71-33.9,45.76-3.6,3.95-7.32,7.79-11.13,11.53-1.38,1.35.74,3.47,2.12,2.12h0Z"/><path class="n" d="m69.99,118.73c-.39,8.5-.74,17.04.5,25.5.63,4.31,1.84,8.45,3.15,12.59,1.35,4.29,2.71,8.57,4.06,12.86.58,1.83,3.48,1.05,2.89-.8-1.35-4.29-2.71-8.57-4.06-12.86-1.26-3.99-2.44-7.98-3.08-12.13-1.28-8.31-.85-16.8-.46-25.17.09-1.93-2.91-1.93-3,0h0Z"/><path class="n" d="m184.07,244.48c1.93,0,1.93-3,0-3s-1.93,3,0,3h0Z"/><path class="n" d="m76.06,377.32v129.54c0,1.93,3,1.93,3,0v-129.54c0-1.93-3-1.93-3,0h0Z"/></svg>