<?xml version="1.0" encoding="UTF-8"?><svg id="b" xmlns="http://www.w3.org/2000/svg" width="132.35" height="136" viewBox="0 0 132.35 136"><defs><style>.d{fill:#e7d7ff;}.e{fill:#fff;}.f{fill:#fff6ee;}.g{fill:#fff5ea;}.h{fill:#a8008b;}</style></defs><path class="h" d="m130.2,22.12c-7.59-6.91-17.1-7.41-27.32-6.99-10.22.42-20.31,2.74-30.54,2.79-19.72.1-38.42-8.15-56.36-16.37C14.2.73,12.31-.11,10.35.01c-3.02.19-5.45,2.62-7,5.25-7.2,12.19-.87,27.47,1.31,41.49,4.38,28.14-8.44,59.91,6.81,83.89,1,1.57,2.15,3.11,3.74,4.04,1.72,1,3.77,1.2,5.75,1.27,20.05.72,40.23-9.21,59.67-4.19,7.71,1.99,15.82,6.26,23.15,3.13,4.51-1.93,7.53-6.29,11.75-8.79s16.52-2.91,16.72-6.78c1.44-27.79-13.65-55.72-6.55-82.62,1.52-5.76,3.21-8.76,4.5-14.58"/><path class="d" d="m124.87,25.99c-6.99-6.36-15.75-6.83-25.16-6.44-9.41.39-18.71,2.52-28.13,2.57-18.16.1-35.39-7.51-51.92-15.08-1.65-.76-3.39-1.53-5.2-1.42-2.78.18-5.02,2.42-6.45,4.83-6.63,11.23-.8,25.31,1.21,38.22,4.04,25.92-7.77,55.19,6.28,77.28.92,1.44,1.98,2.86,3.45,3.72,1.58.92,3.47,1.11,5.3,1.17,18.47.66,37.06-8.48,54.97-3.86,7.1,1.83,14.57,5.77,21.32,2.88,4.15-1.77,6.93-5.8,10.83-8.09s15.22-2.68,15.4-6.24c1.33-25.6-12.57-51.33-6.04-76.11,1.4-5.31,2.95-8.07,4.15-13.43"/><circle class="e" cx="116.61" cy="96.18" r="1.7"/><path class="h" d="m74.24,64.76c.26.04.52.1.76.18.07.02.13.05.2.07.23.08-.29-.13-.13-.06.12.06.24.11.35.17.1.06.21.12.31.18.06.04.12.08.18.12.05.04.23.17.02,0s-.03-.02.02.02c.06.05.11.09.16.14.1.09.19.18.28.27s.18.19.26.29c.16.18-.18-.25-.08-.11.04.05.07.1.11.14.15.22.29.44.4.68.03.05.05.11.08.16.11.23-.01-.09-.05-.13.07.08.11.3.14.4.08.25.13.51.16.77l-.05-.4c.03.24.04.47.03.71-.02.78.7,1.54,1.5,1.5s1.48-.66,1.5-1.5c.08-3.04-2.31-6.07-5.36-6.53-.41-.06-.78-.07-1.16.15-.31.18-.61.54-.69.9-.09.38-.07.81.15,1.16.2.31.52.63.9.69h0Z"/><path class="f" d="m112.7,89.95c-6.33-4.05-13.14-7.33-20.25-9.75-3.58-1.22-7.23-2.23-10.94-3.01-.94-.2-1.88-.38-2.83-.55-1-.18-2.12-.22-3.07-.56-1.47-.53-2.91-1.42-4.25-2.22-2.71-1.61-5.35-3.51-7.44-5.9-1.67-1.91-3.3-4.59-2.26-7.19,1.22-3.03,4.76-3.87,7.69-4.01,3.66-.17,7.35.49,10.92,1.2,8.81,1.73,17.36,4.73,25.34,8.85l.09-.69c-11.83,4.03-24.95,3.77-36.88.27-11.9-3.49-21.83-11.08-33.21-15.74-5.24-2.15-11.31-4-17.03-3.07-4.27.7-8.72,4.08-7.4,8.94,1.45,5.34,8.9,6.44,13.45,7.04,6.93.92,13.93.34,20.85-.39,6.19-.65,12.41-1.47,18.65-1.25,5.23.18,10.49.98,15.45,2.7,4.69,1.63,9.2,4.18,12.42,8.04,4.1,4.92,4.84,11.24,6.64,17.16.73,2.4,1.63,4.86,3.14,6.88,1.27,1.71,2.9,3.14,4.67,4.31,3.14,2.07,7.46,3.81,11.25,2.69,3.87-1.15,5.1-5.16,3.61-8.68-2.16-5.11-7.7-7.53-12.83-8.5-5.87-1.12-12.02-.95-17.95-.59-6.25.37-12.47,1.14-18.69,1.82-12.16,1.32-24.85,2.43-36.7-1.34-2.94-.94-5.77-2.17-8.46-3.68l.17.42c.8-3.22,4.34-4.35,7.24-4.9,4-.76,8.16-.7,12.21-.89,9.39-.44,18.79-.88,28.18-1.32,5.4-.25,10.81-.51,16.21-.76.48-.02.48-.77,0-.75-10.14.48-20.28.95-30.43,1.43-4.99.23-9.98.47-14.96.7-4.01.19-8.14.14-12.08,1.01-2.98.66-6.29,2.04-7.09,5.29-.04.16.03.34.17.42,21.15,11.79,45.91,3.7,68.57,3.11,5.83-.15,12.04-.14,17.59,1.88,2.73.99,5.32,2.56,7.03,4.95,1.41,1.97,2.4,4.72,1.25,7.04-2.02,4.05-7.5,3.12-10.87,1.67-4.38-1.9-7.78-5.19-9.55-9.62-2.08-5.21-2.54-10.94-5.03-16.01-2.07-4.23-5.53-7.52-9.59-9.84-8.34-4.75-18.59-5.86-28.02-5.28-12.95.79-26.56,4.16-39.32.24-2.74-.84-5.89-2.4-6.53-5.49-.56-2.7,1.07-5.33,3.41-6.57,5.18-2.75,12.06-.98,17.25.83,10.97,3.81,20.33,11.04,31.16,15.18,10.85,4.15,22.93,5.49,34.39,3.44,2.67-.48,5.3-1.16,7.86-2.03.29-.1.39-.53.09-.69-7.5-3.87-15.48-6.76-23.73-8.55-3.73-.81-7.59-1.55-11.41-1.61-2.89-.05-6.26.3-8.45,2.4-4.42,4.24.22,9.83,3.75,12.74,2.61,2.15,5.54,3.93,8.6,5.36,1.67.78,3.67.83,5.48,1.19,2.03.4,4.05.87,6.06,1.41,9.21,2.47,18.01,6.36,26.03,11.5.41.26.78-.39.38-.65h0Z"/><path class="g" d="m62.41,89.33c1.45,0,1.45-2.25,0-2.25s-1.45,2.25,0,2.25h0Z"/><path class="g" d="m86.23,118.69c-.03.74.17,1.47.5,2.13s.85,1.19,1.45,1.61c.23.16.61.18.87.11s.54-.27.67-.52c.14-.26.21-.58.11-.87s-.27-.5-.52-.67c-.05-.03-.09-.07-.14-.1l.23.18c-.21-.17-.4-.36-.57-.57l.18.23c-.17-.23-.31-.47-.43-.73l.11.27c-.11-.26-.19-.53-.23-.82l.04.3c-.02-.18-.03-.37-.03-.55.02-.59-.53-1.15-1.12-1.12-.63.03-1.1.49-1.12,1.12h0Z"/><path class="g" d="m70.64,57.94c.12-.03.23-.06.35-.08.05-.01.1-.02.15-.03-.11.01-.13.02-.04,0,.22-.02.44-.03.67-.03.1,0,.21.01.31.02.33.02-.21-.05.11.01.2.04.4.08.6.14.12.03.23.07.34.11.05.02.1.04.14.06-.09-.04-.11-.04-.03-.01.2.09.4.2.59.32.09.05.17.11.26.17.27.18-.15-.14.1.08.17.15.33.3.48.47.03.03.2.25.14.17-.05-.06-.03-.04.04.06.04.06.08.12.12.18.11.18.21.37.3.56-.09-.2.04.11.05.13.04.1.07.2.1.3s.06.21.08.31c0,.04.07.38.06.27-.02-.12.02.18.02.22,0,.12.01.25.01.37,0,.11,0,.21-.01.32,0,.02-.04.36,0,.13-.03.21-.08.42-.13.63-.03.1-.06.2-.1.3-.02.07-.05.13-.08.2.04-.11.04-.1-.02.02-.25.53-.17,1.24.4,1.54.5.26,1.27.16,1.54-.4,1.06-2.25.76-4.92-.86-6.83-1.5-1.76-4.06-2.47-6.27-1.88-.57.15-.97.81-.79,1.38s.77.95,1.38.79h0Z"/><path class="g" d="m67.99,69.54c1.03-1.67,1.03-3.88.03-5.56-.3-.5-1.02-.74-1.54-.4s-.73,1-.4,1.54c.09.15.15.36.26.49-.07-.16-.08-.19-.04-.08.02.04.03.09.05.13.03.09.06.18.08.27s.04.18.06.27c0,.05.02.09.02.14.02.12.01.09-.01-.09-.02.08.02.2.02.28s0,.16,0,.24c0,.17-.04.35-.03.52.03-.18.03-.22,0-.09,0,.05-.02.09-.03.14-.02.09-.04.18-.07.27s-.05.18-.08.26c-.02.04-.03.09-.05.13-.04.11-.03.09.03-.08-.05.04-.09.19-.12.25-.04.08-.09.16-.14.24-.31.5-.12,1.26.4,1.54s1.21.13,1.54-.4h0Z"/><path class="f" d="m13.35,21.42c4.17,2.47,8.61,4.46,13.23,5.91,2.33.73,4.71,1.33,7.12,1.77,1.05.2,2.1.36,3.16.5,1.39.18,2.55.7,3.78,1.34,1.85.98,3.66,2.15,5.14,3.63,1.18,1.18,2.5,2.9,2.01,4.68-1.24,4.48-9.01,2.93-12.2,2.4-5.86-.96-11.55-2.75-16.91-5.29l-.09.69c7.98-2.99,16.91-3.04,25.08-.79,8.02,2.21,14.82,7.22,22.65,9.88,3.44,1.17,7.48,2.13,11.08,1.12,2.66-.75,5.03-3.23,4.04-6.18-1.09-3.23-5.42-3.89-8.31-4.25-4.55-.57-9.12-.13-13.64.48-7.8,1.05-15.58,2.31-23.29,0-3.27-.98-6.44-2.61-8.71-5.21-2.76-3.17-3.35-7.33-4.68-11.17-1.03-2.98-2.57-5.39-5.26-7.09-2.13-1.35-5.01-2.43-7.55-1.72-2.38.66-3.54,3.01-2.8,5.34,1,3.16,4.13,4.97,7.16,5.77,3.85,1.01,8.01.83,11.94.55,4.16-.3,8.3-.91,12.43-1.51,8.42-1.22,17.23-2.52,25.6-.3,2.13.56,4.17,1.36,6.12,2.36l-.17-.42c-.66,2.89-4.54,3.44-6.99,3.71-3.77.42-7.57.62-11.35.92-7.88.63-15.75,1.26-23.63,1.88-.48.04-.48.79,0,.75,8.7-.69,17.39-1.39,26.09-2.08,3.66-.29,7.44-.33,11.04-1.04,2.28-.45,4.99-1.4,5.56-3.94.04-.16-.02-.35-.17-.42-14.36-7.35-30.55-1.46-45.63-.59-3.83.22-7.93.34-11.61-.89-1.87-.62-3.66-1.65-4.81-3.29-.93-1.32-1.53-3.17-.58-4.65,1.63-2.53,5.39-1.6,7.61-.54,3.07,1.47,5,3.84,6.15,7.02,1.21,3.35,1.74,6.96,3.64,10.03,1.57,2.54,3.94,4.46,6.6,5.78,5.62,2.78,12.27,3.25,18.42,2.66,8.42-.81,17.13-3.2,25.55-1.08,1.82.46,4.01,1.32,4.61,3.3.55,1.82-.52,3.63-2.1,4.52-3.39,1.91-8.08.78-11.55-.34-7.38-2.37-13.79-7-21.15-9.44-7.12-2.36-14.93-2.94-22.29-1.39-1.8.38-3.56.9-5.28,1.54-.27.1-.41.53-.09.69,5.15,2.44,10.59,4.21,16.19,5.21,2.49.44,5.07.86,7.61.77,1.84-.06,3.93-.38,5.31-1.73,2.85-2.77.1-6.34-2.26-8.28-1.75-1.44-3.74-2.59-5.8-3.52-1.09-.49-2.07-.57-3.27-.74-1.46-.22-2.92-.49-4.36-.81-6.33-1.42-12.41-3.84-17.99-7.16-.42-.25-.79.4-.38.65h0Z"/><path class="h" d="m67.63,60.8c-2.49.69-3.39,3.73-2.31,5.91,1.19,2.4,4.54,2.73,6.62,1.37,1.01-.66,1.79-1.65,1.99-2.86.19-1.11.09-2.36-.59-3.29-.78-1.08-2.1-1.67-3.43-1.28-1.24.37-2.13,1.48-2.44,2.71-.38,1.53.09,2.97,1.12,4.12.89,1,2.14,1.63,3.35,2.15.57.25,1.14.29,1.67-.12.49-.38.68-.98.54-1.58-.66-2.84-3.18-5.26-6.08-5.69-.62-.09-1.17.01-1.58.54s-.39,1.11-.12,1.67c.84,1.75,3.51,1.66,4.44.08.4-.68.18-1.68-.54-2.05s-1.62-.18-2.05.54c-.13.23.25-.25.07-.09.35-.32.17-.16.08-.08.26-.1.31-.13.17-.08l-.07.02c.29-.03.35-.04.19-.03-.03,0-.07,0-.1,0-.14.02.42.09.13.01s.24.12.11.05c-.26-.13.19.17.09.07-.08-.08-.04-.03.13.17-.02-.04-.05-.08-.06-.12l-1.69,2.2c.28.04.56.1.83.18.14.04.28.1.42.15.17.06-.35-.16-.07-.03.05.03.11.05.16.08.27.13.53.28.78.45.05.03.1.07.15.1.26.18-.19-.16-.05-.04.11.1.23.19.34.29.21.19.4.4.59.62.13.15-.03-.04-.07-.09.04.06.09.12.13.18.09.12.17.25.24.38.07.12.13.23.2.35.03.07.07.13.1.2.11.23-.02.03-.03-.07,0,.12.11.3.15.42.04.14.08.29.12.43l2.2-1.69c-.42-.18-.83-.37-1.23-.58-.19-.1-.39-.21-.57-.33-.09-.06-.18-.12-.27-.18-.05-.03-.1-.07-.15-.11-.16-.11.04.02.08.07-.15-.15-.33-.27-.47-.43-.08-.08-.15-.2-.24-.27,0,0,.18.26.1.12-.04-.06-.09-.12-.13-.19-.06-.09-.11-.18-.16-.28-.02-.04-.04-.09-.06-.12.01.02.13.37.07.15-.02-.07-.05-.14-.06-.21-.01-.05-.02-.1-.03-.15-.06-.24.02.32.02.14s0-.35,0-.53c0-.15-.03.23-.03.21.02-.04.02-.11.03-.15.02-.1.05-.19.08-.29.01-.04.03-.07.04-.11.05-.17-.16.31-.07.15.04-.07.08-.15.12-.23.03-.06.22-.3.04-.09s.03-.03.09-.09c.02-.02.05-.05.08-.07.15-.15-.13.1-.14.11.06-.02.16-.08.2-.12.11-.11-.22.13-.21.08,0-.01.11-.04.13-.04.02,0,.13-.04.13-.03,0,.02-.41.02-.19.03.08,0,.17,0,.25,0,.18,0-.37-.08-.2-.02.03.01.06.01.09.02.02,0,.12.04.12.04-.01.02-.31-.16-.21-.09.06.04.15.09.21.13.15.08-.27-.25-.16-.12.02.02.05.04.07.06.04.05.22.27.04.04s-.01,0,.02.06c.02.04.04.08.06.11.11.18-.09-.18-.07-.18.05,0,.12.39.14.45,0,0,.03.13.03.13-.01,0-.04-.43-.03-.19,0,.09.01.19.02.28,0,.08,0,.16,0,.25-.01.16-.1.35.02-.08-.05.17-.08.34-.13.51-.09.29.14-.26.03-.07-.04.07-.07.14-.12.21s-.1.13-.13.2c0,0,.24-.26.12-.16-.05.04-.09.1-.14.15-.07.07-.15.13-.21.2-.1.11.14-.1.14-.1-.04.02-.1.07-.14.1-.08.05-.16.11-.25.15-.07.04-.4.19-.16.09s-.07.02-.13.04c-.09.03-.19.06-.28.08-.09.02-.2.02-.29.06.02,0,.4-.04.15-.02-.06,0-.11,0-.17.01-.19,0-.39-.03-.58-.02.02,0,.39.07.16.02-.04,0-.08-.02-.12-.03-.11-.02-.21-.06-.31-.09-.33-.1.23.13.02.01-.08-.05-.17-.09-.25-.14-.05-.03-.09-.06-.14-.09-.12-.07.14.11.14.11-.03-.06-.17-.16-.22-.21-.25-.27.14.25,0,0-.05-.08-.09-.17-.14-.24-.08-.12.08.21.08.2-.01-.05-.04-.11-.06-.16-.03-.09-.05-.18-.07-.27,0-.03-.01-.07-.02-.1-.06-.26.02.31.02.15,0-.09-.01-.19-.01-.28,0-.05-.02-.28.02-.32.03-.03-.08.38-.03.22.02-.05.02-.12.03-.17.02-.09.05-.18.08-.27.01-.03.03-.07.04-.1.05-.17-.17.35-.06.13.04-.08.08-.16.13-.24.02-.04.05-.08.07-.11.1-.17-.09.12-.11.14.07-.06.12-.14.18-.2.26-.25-.26.15-.01,0,.08-.05.16-.09.24-.13.11-.07-.21.08-.2.08.06,0,.14-.05.2-.06.76-.21,1.3-1.07,1.05-1.85s-1.04-1.27-1.85-1.05h0Z"/><path class="h" d="m69.4,63.74c-11.58,8.8-26.32,15.31-32.68,29.28-1.6,3.51-2.52,7.25-2.51,11.12,0,1.93,3.01,1.93,3,0-.04-8.46,4.96-15.9,10.99-21.45,6.88-6.34,15.29-10.72,22.71-16.36,1.52-1.15.02-3.76-1.51-2.59h0Z"/><path class="h" d="m66.52,63.36c3.42.6,6.38-1.02,8.81-3.33,2.5-2.37,4.59-5.29,6.47-8.17,3.86-5.95,6.74-12.46,9.59-18.93.77-1.75-1.81-3.28-2.59-1.51-2.56,5.82-5.14,11.66-8.44,17.11-1.65,2.72-3.47,5.33-5.57,7.73-1.81,2.07-4.44,4.75-7.47,4.22-1.89-.33-2.7,2.56-.8,2.89h0Z"/><path class="h" d="m71.61,62.07c-13.79-6.73-25.88-16.74-34.97-29.12-1.13-1.54-3.74-.05-2.59,1.51,9.39,12.79,21.78,23.23,36.04,30.19,1.73.84,3.25-1.74,1.51-2.59h0Z"/><path class="h" d="m69.81,65.93c4.21.62,7.49,3.36,10.26,6.43,2.8,3.09,5.13,6.57,7.2,10.18,4.19,7.29,7.35,15.11,11.44,22.46,1.99,3.58,4.54,8.51,9.29,8.41,1.93-.04,1.93-3.04,0-3-1.87.04-3.22-1.4-4.23-2.82-1.16-1.63-2.11-3.43-3.06-5.19-2-3.7-3.8-7.51-5.63-11.3-3.59-7.42-7.41-14.87-13.01-21-3.05-3.34-6.85-6.37-11.45-7.05-1.89-.28-2.7,2.61-.8,2.89h0Z"/><path class="h" d="m70.48,70.75l.67-2.68c-.91.12-1.83.24-2.74.36,1.58,2.21,4.7,4.78,7.32,2.53.63-.54.96-1.31,1.26-2.06s.57-1.46.75-2.23c.38-1.59.41-3.37-.44-4.82-.78-1.31-2.11-2.22-3.62-2.39-1.6-.18-3.01.86-3.77,2.2-1.38,2.44-1.24,6,1.22,7.71,2.37,1.64,6.43.04,6.33-3.06-.02-.78-.67-1.54-1.5-1.5s-1.53.66-1.5,1.5c.01.32-.08.08.03,0,0,0-.04.16-.04.19-.04.3.17-.27.01-.01-.04.06-.09.13-.12.2-.07.16.25-.24.03-.05-.05.05-.13.11-.17.16-.12.14.3-.18.03-.03-.09.05-.22.1-.3.17-.15.11.34-.1.03-.02-.08.02-.16.05-.24.07-.03,0-.24.07-.25.05,0,.01.36-.02,0-.01-.07,0-.14,0-.2,0-.37-.01,0,0,0,.01,0,0-.21-.05-.2-.04-.06-.02-.13-.04-.19-.06.19.08.23.1.13.05-.06-.05-.15-.09-.22-.12-.28-.14.2.23-.05-.04-.05-.06-.12-.12-.17-.17-.27-.24.12.23-.07-.07-.11-.17-.21-.34-.29-.53.13.28.04.09.02.02-.04-.16-.1-.31-.13-.47-.02-.08-.03-.16-.04-.24.06.37,0-.04,0-.1,0-.21,0-.42.01-.63.01-.28,0-.04-.01.02.02-.13.04-.25.07-.38.06-.25.13-.49.21-.73.09-.26.02-.05,0,0,.06-.12.12-.25.19-.37.05-.08.1-.16.14-.24.19-.34-.18.14.1-.13.08-.08.16-.16.24-.24.15-.13-.26.08.08-.04.39-.14-.19-.02.04-.03.09,0,.51-.05.12-.05.08,0,.21.02.29,0,.16-.04-.3-.09,0,0,.08.03.2.08.28.08.18.01-.26-.16.03.01.09.05.18.1.26.15.07.04.28.22.05.02.1.08.19.16.28.25.05.05.29.34.09.08.13.17.23.35.33.53.18.32-.04-.26.04.1.02.09.05.19.08.28,0,0,.07.51.05.25,0,.11.01.22.02.33,0,.16,0,.33-.01.49,0,.04-.06.48-.02.26-.09.55-.25,1.1-.43,1.63-.09.27-.19.53-.29.79-.06.15-.11.3-.17.44.11-.27-.07.14-.08.16-.06.12-.13.25-.21.36.15-.23-.1.08-.13.11.22-.22-.02,0-.09.04.18-.12.12-.06-.06,0-.34.11.24-.04.02,0-.06,0-.11,0-.17,0,.21.04.24.04.06,0-.09-.03-.19-.05-.28-.07-.36-.09.11.08-.15-.06-.23-.13-.45-.26-.66-.4-.23-.16-.07-.05-.02-.01-.14-.12-.28-.24-.41-.36-.2-.19-.39-.39-.57-.6-.06-.07-.12-.14-.17-.21-.11-.14-.11-.14-.01,0-.05-.07-.1-.14-.15-.21-.36-.5-.86-.8-1.49-.72-.57.08-1.1.5-1.25,1.07l-.67,2.68c-.19.76.25,1.66,1.05,1.85s1.64-.23,1.85-1.05h0Z"/><path class="f" d="m74.21,101.45c-4.64-1.11-9.44-1.4-14.17-.75-2.42.33-4.81.9-7.12,1.69-1.07.37-1.89.66-3.02.54-.85-.09-1.69-.24-2.52-.45-3.1-.78-6.67-2.6-7.36-6.03-.96-4.81,3.61-7.4,7.42-8.77,5.4-1.94,11.15-2.6,16.86-2.02l-.32-.56c-5.35,7.51-13.86,12.87-23.25,12.95-5.23.04-10.33-1.41-15.54-1.59-4.16-.15-9.05.54-11.96,3.84-2.24,2.55-2.87,6.93-.63,9.71,2.57,3.17,7.44,1.14,10.38-.38,8.24-4.26,13.77-12.6,22.61-15.82,4.23-1.54,9.02-1.76,12.85.91s5.59,7.12,7.86,10.91c1.79,2.97,3.88,5.79,7.39,6.72,2.52.67,5.58.25,7.1-2.1,1.97-3.05.48-7.19-2.22-9.25-3.67-2.8-8.36-.9-11.88,1.16-6.97,4.08-12.64,9.98-18.92,14.97-3.05,2.42-6.3,4.72-9.91,6.22-1.75.73-3.6,1.27-5.49,1.5-.82.1-1.65.14-2.48.13-.45,0-.98.01-1.42-.08-.89-.2-.9-.7-.79-1.57.31-2.34,1.98-4.23,3.71-5.71,2.06-1.76,4.35-3.28,6.53-4.88,4.69-3.46,9.39-6.91,14.08-10.37,2.28-1.68,4.56-3.36,6.84-5.04.38-.28.01-.93-.38-.65-6.7,4.94-13.41,9.87-20.11,14.81-2.86,2.11-6.05,4.05-8.56,6.58-1.94,1.95-3.22,4.35-2.81,7.15.02.11.15.24.26.26,12.8,1.93,22.72-9.41,31.62-16.77,2.64-2.18,5.38-4.28,8.35-6,3.62-2.1,8.5-3.89,11.83-.29,2.24,2.42,2.89,7.12-.5,8.88-2.45,1.27-5.64.39-7.73-1.2-2.78-2.11-4.35-5.74-6.04-8.7s-3.52-5.83-6.41-7.65c-5.9-3.71-13.3-1.3-18.66,2.23-6.29,4.14-11.17,10.33-18.12,13.49-1.81.83-4.2,1.79-6.22,1.36-1.94-.41-2.97-2.13-3.27-3.97-.69-4.13,2.15-7.45,5.89-8.75,8.22-2.85,16.92,1.44,25.32.53,6.86-.74,13.22-4.17,17.99-9.11,1.22-1.27,2.33-2.63,3.35-4.07.18-.26-.07-.54-.32-.56-5.46-.56-10.98.01-16.19,1.74-3.73,1.24-8.2,3.17-8.86,7.55-.51,3.36,1.5,6.08,4.35,7.62,1.56.85,3.3,1.39,5.05,1.68.77.13,1.6.28,2.38.24,1.12-.05,2.31-.74,3.4-1.07,6.37-1.93,13.13-2.07,19.59-.52.47.11.67-.61.2-.72h0Z"/></svg>