<?xml version="1.0" encoding="UTF-8"?><svg id="b" xmlns="http://www.w3.org/2000/svg" width="103.23" height="126.97" viewBox="0 0 103.23 126.97"><defs><style>.d{fill:#f095b3;}.e{fill:#fff;}</style></defs><path class="d" d="m80.15,5.95c-13.57-3.93-22.15,4.26-28.88,19.14-6.73-14.87-15.31-23.07-28.88-19.14C2.88,11.6-2.84,35.9,7.8,59.01c3.49,7.57,6.25,13.19,8.81,17.65.07.2.16.4.29.58,0,0,4.11,6.37,6.12,8.71l25.5,36.3c.91,1.3,2.82,1.31,3.75.03,0,0,35.07-43.04,42.46-63.26,8.42-23.04,4.93-47.41-14.58-53.06Z"/><circle class="e" cx="82.81" cy="45.09" r="3.66"/><circle class="e" cx="79.85" cy="38.76" r="2.2"/><path class="e" d="m80,55.44c-3.96,12.26-10.87,23.43-20.05,32.46-1.38,1.36.74,3.48,2.12,2.12,9.55-9.4,16.7-21.04,20.82-33.79.59-1.84-2.3-2.63-2.89-.8h0Z"/><path class="e" d="m15.64,26.26c-1.22,11.64.85,23.43,5.8,34.02.82,1.75,3.4.23,2.59-1.51-4.73-10.12-6.55-21.41-5.39-32.5.2-1.92-2.8-1.9-3,0h0Z"/><path class="e" d="m53.67,112.12c2.58-3.04,5.45-5.83,8.55-8.34.61-.5.55-1.61,0-2.12-.65-.6-1.47-.53-2.12,0-3.1,2.51-5.96,5.3-8.55,8.34-.51.6-.63,1.54,0,2.12.56.51,1.58.64,2.12,0h0Z"/><path class="e" d="m67.38,17.43c2.65-.06,5.25.48,7.61,1.7,2.69,1.39,4.92,3.44,6.85,5.76.52.62,1.58.54,2.12,0,.62-.62.52-1.5,0-2.12-4.17-5.01-9.91-8.49-16.57-8.34-1.93.04-1.93,3.05,0,3h0Z"/></svg>