<?xml version="1.0" encoding="UTF-8"?><svg id="b" xmlns="http://www.w3.org/2000/svg" width="1366" height="768" viewBox="0 0 1366 768"><defs><style>.d{fill:#f095b3;}.e{fill:#e7d7ff;}.f{fill:#fff;}.g{fill:#fff6ee;}.h{fill:#fff5ea;}.i{fill:#c1b1a3;}.j{fill:#a8008b;}.k{fill:#354235;}</style></defs><rect class="h" x="1" y="-.94" width="1366" height="769.21"/><rect class="i" x="68" y="49" width="1232" height="661"/><path class="d" d="m419.04,225.83c-19.5-14.06-41.63-12.58-65.14-8.74-23.51,3.84-46.19,12.1-69.82,15.08-45.56,5.76-91.14-8.35-134.96-22.59-4.38-1.42-8.97-2.87-13.48-2.02-6.94,1.29-11.87,7.67-14.7,14.25-13.2,30.57,5.77,64.6,14.79,96.81,18.11,64.67-2.54,142.68,39.52,194.59,2.75,3.39,5.84,6.68,9.8,8.42,4.25,1.87,9.06,1.76,13.67,1.37,46.57-3.92,90.41-32.81,136.78-26.5,18.39,2.5,38.35,10.24,54.41.86,9.88-5.77,15.62-16.84,24.68-23.87s37.37-11.44,36.73-20.55c-4.54-65.5-47.34-126.7-38.55-191.69,1.88-13.93,4.93-21.42,6.28-35.41"/><path class="e" d="m414.22,246.76c-17.53-12.47-37.45-11.12-58.61-7.68-21.16,3.44-41.58,10.81-62.85,13.5-41,5.18-82-7.29-121.41-19.89-3.94-1.26-8.07-2.53-12.13-1.78-6.24,1.16-10.69,6.83-13.25,12.68-11.92,27.18,5.11,57.4,13.18,86.01,16.21,57.45-2.48,126.8,35.29,172.87,2.47,3.01,5.25,5.93,8.81,7.47,3.82,1.65,8.15,1.55,12.3,1.2,41.91-3.55,81.4-29.28,123.12-23.74,16.54,2.2,34.5,9.05,48.96.69,8.9-5.14,14.08-14.99,22.24-21.24,8.16-6.26,33.64-10.22,33.08-18.31-4-58.2-42.43-112.53-34.43-170.29,1.71-12.38,4.47-19.04,5.7-31.48"/><path class="j" d="m435.91,233.61c-19.02-13.53-40.65-12.07-63.62-8.33-22.97,3.74-45.14,11.74-68.23,14.65-44.51,5.62-89.01-7.92-131.8-21.59-4.27-1.37-8.76-2.75-13.16-1.93-6.78,1.26-11.6,7.42-14.38,13.76-12.94,29.51,5.54,62.3,14.3,93.36,17.59,62.36-2.69,137.64,38.31,187.65,2.68,3.27,5.7,6.44,9.56,8.11,4.15,1.8,8.85,1.68,13.35,1.3,45.5-3.85,88.36-31.78,133.64-25.77,17.96,2.39,37.45,9.82,53.14.75,9.66-5.58,15.29-16.27,24.15-23.06,8.86-6.79,36.52-11.09,35.91-19.88-4.34-63.18-46.06-122.15-37.37-184.86,1.86-13.44,4.85-20.67,6.19-34.17"/><path class="e" d="m425.05,243.77c-17.07-12.52-36.43-11.25-56.98-7.87-20.55,3.37-40.37,10.67-61.03,13.28-39.83,5.04-79.71-7.57-118.06-20.3-3.83-1.27-7.85-2.56-11.79-1.82-6.06,1.14-10.36,6.79-12.83,12.63-11.49,27.13,5.16,57.39,13.1,86.02,15.94,57.48-1.98,126.74,34.89,172.92,2.41,3.02,5.12,5.94,8.59,7.5,3.72,1.67,7.93,1.58,11.95,1.24,40.72-3.4,79.01-28.99,119.56-23.31,16.08,2.25,33.56,9.16,47.58.86,8.63-5.11,13.63-14.93,21.54-21.16,7.91-6.22,32.66-10.1,32.09-18.19-4.09-58.19-41.62-112.63-34.04-170.34,1.62-12.37,4.28-19.02,5.44-31.45"/><circle class="f" cx="418.57" cy="418.87" r="3.87"/><path class="j" d="m321.64,343.33c.77.02,1,.05,1.75.22.3.07.6.16.89.25.15.05.29.1.44.15,0,0,.43.18.21.08,1.22.54,2.17,1.17,3.04,1.99.99.93,1.57,1.69,2.2,2.89.31.6.4.81.61,1.5.09.3.17.59.23.9.04.18.07.35.1.53.02.11.02.1,0-.01.01.1.02.21.03.31.08.81.64,1.5,1.5,1.5.75,0,1.58-.69,1.5-1.5-.6-6.35-6.09-11.63-12.5-11.82-.81-.02-1.5.71-1.5,1.5s.69,1.48,1.5,1.5h0Z"/><path class="g" d="m414.75,392.06c-16.11-7.79-33.21-13.49-50.75-16.99-8.68-1.73-17.48-2.93-26.31-3.56-2.23-.16-4.46-.28-6.69-.37-1.12-.04-2.37.06-3.47-.19-.88-.2-1.76-.56-2.61-.85-3.59-1.22-7.11-2.65-10.54-4.29-6.43-3.07-12.83-6.83-17.83-11.98-3.81-3.92-7.02-9.31-5.18-14.92,2.19-6.69,9.28-9.55,15.63-10.76,8.04-1.53,16.44-1.08,24.55-.54,18.62,1.24,37.09,4.93,54.78,10.9,2.18.74,4.35,1.51,6.51,2.32l-.09-.69c-24.99,12.1-54.06,15.18-81.35,11.03-14.13-2.15-27.59-6.61-40.85-11.84s-26.37-11.03-40.13-14.86c-6.59-1.83-13.31-3.19-20.13-3.8s-13.32-.44-19.65,1.45c-5.2,1.55-10.26,4.43-12.89,9.35-2.36,4.41-2.52,9.9.19,14.19,3.21,5.1,9.32,7.35,14.96,8.46,7.1,1.4,14.5,1.63,21.71,1.35,14.7-.56,29.12-3.73,43.41-7.03,13.23-3.06,26.48-6.34,40.04-7.45,11.83-.96,23.9-.57,35.52,2,10.91,2.41,21.65,6.89,29.92,14.57,4.6,4.28,8.15,9.46,10.92,15.08,2.91,5.91,5.02,12.16,7.46,18.27,2.25,5.62,4.79,11.34,8.5,16.17,2.88,3.75,6.67,6.77,10.72,9.16,7.61,4.48,17.7,7.79,26.52,5.33,3.64-1.01,6.87-3.24,8.7-6.59,2.37-4.33,1.55-9.45-.72-13.64-6.12-11.31-19.7-15.2-31.68-15.95-6.91-.43-13.85.04-20.72.76s-14.02,1.83-20.97,3.12c-14.07,2.63-27.96,6.1-41.9,9.32-26.9,6.21-55.07,11.9-82.61,6.4-6.62-1.32-13.09-3.29-19.33-5.86l.28.36c.8-7.4,8.45-11.11,14.72-13.18,8.69-2.87,17.98-3.87,26.97-5.39,21.49-3.63,42.98-7.26,64.47-10.89,12.13-2.05,24.25-4.09,36.38-6.14.47-.08.27-.8-.2-.72-22.24,3.76-44.49,7.51-66.73,11.27-11.04,1.86-22.08,3.73-33.12,5.59-5.42.91-10.84,1.8-16.25,2.74-3.9.68-7.79,1.53-11.56,2.76-6.69,2.19-14.59,6.1-15.44,13.96-.02.18.13.3.28.36,12.38,5.1,25.61,7.64,38.97,8.04s26.67-1.21,39.77-3.6c27.55-5.02,54.41-13.51,82.26-16.95,13.38-1.65,27.98-2.91,40.84,2.04,5.83,2.25,11.14,6.01,14.41,11.43,2.66,4.4,3.71,9.94.8,14.49-4.97,7.79-16.02,6.99-23.71,4.69-4.81-1.44-9.41-3.7-13.49-6.65s-7.46-6.81-10.08-11.31c-6.35-10.92-8.92-23.59-15.43-34.43-5.75-9.57-14.51-16.52-24.7-20.89-10.25-4.39-21.46-6.32-32.55-6.82s-23.22.58-34.62,2.78c-14.24,2.74-28.25,6.6-42.52,9.24-14.32,2.64-29.35,4.19-43.81,1.7-6.09-1.05-13.05-3.27-16.18-9.08-2.69-4.98-1.51-11.19,2.08-15.4,4.03-4.73,10.58-6.75,16.53-7.56,6.79-.92,13.74-.39,20.48.71,27.6,4.49,51.96,19.51,78.84,26.5,26.01,6.76,54.21,6.66,79.94-1.29,5.86-1.81,11.57-4.05,17.09-6.72.32-.15.18-.58-.09-.69-17.86-6.66-36.58-10.97-55.56-12.76-8.72-.83-17.71-1.47-26.44-.53-6.4.69-13.83,2.35-18.07,7.64-8.81,11.02,4.34,22.32,13.1,27.71,6.41,3.94,13.4,7.01,20.56,9.28,1.96.62,4.16.42,6.21.51,2.31.11,4.62.26,6.92.45,4.82.39,9.63.96,14.41,1.69,18.55,2.83,36.77,8.08,53.93,15.69,2.11.93,4.19,1.91,6.27,2.91.43.21.81-.44.38-.65h0Z"/><path class="h" d="m300.8,402.53c1.45,0,1.45-2.25,0-2.25s-1.45,2.25,0,2.25h0Z"/><path class="h" d="m364.36,463.46c.24,2.85,1.89,5.49,4.44,6.84.52.28,1.25.15,1.54-.4.27-.52.15-1.25-.4-1.54-.26-.14-.51-.29-.75-.45-.06-.04-.12-.09-.18-.13-.11-.08.15.13-.01-.01-.11-.09-.22-.19-.33-.28-.21-.2-.42-.41-.61-.63-.05-.06-.09-.11-.14-.17-.04-.04-.15-.22-.01-.01-.08-.12-.17-.24-.25-.36-.16-.24-.31-.5-.44-.76-.07-.13-.13-.26-.19-.4.11.23-.03-.09-.06-.18-.1-.27-.18-.55-.25-.84-.03-.14-.06-.28-.08-.43s-.04-.14,0,0c-.02-.08-.02-.18-.03-.26-.05-.58-.48-1.15-1.12-1.12-.57.03-1.18.5-1.12,1.12h0Z"/><path class="h" d="m310.47,329.5c3.71-1.48,8.19-.8,11.13,1.98s3.94,7.17,2.67,10.98c-.46,1.38,1.71,1.97,2.17.6,1.51-4.53.24-9.88-3.25-13.17s-8.87-4.33-13.32-2.56c-.57.23-.95.75-.79,1.38.14.54.82,1.01,1.38.79h0Z"/><path class="h" d="m306.94,357.26c1.73-3.74,1.21-8.11-1.32-11.36-.37-.48-1.2-.39-1.59,0-.47.47-.37,1.11,0,1.59,1.85,2.38,2.23,5.9.97,8.63-.25.55-.16,1.21.4,1.54.49.28,1.28.15,1.54-.4h0Z"/><path class="g" d="m171.89,263.47c10.71,4.75,22,8.14,33.55,10.09,5.72.97,11.51,1.59,17.3,1.84,2.91.13,6.05-.24,8.85.59,2.33.7,4.62,1.52,6.86,2.48,4.29,1.83,8.57,4.12,12.03,7.28,2.66,2.44,5.21,5.9,4.3,9.71-1.1,4.57-5.73,6.73-9.91,7.7-5.27,1.23-10.84,1.12-16.22.94-13.95-.45-27.81-2.98-41.03-7.42l.09.69c16.41-8.6,35.69-11.23,53.98-9,9.57,1.17,18.74,3.98,27.78,7.24,8.99,3.24,17.92,6.81,27.27,8.94,8.27,1.89,17.9,3.21,26.03.07,3.28-1.26,6.29-3.36,7.74-6.66,1.3-2.97,1.16-6.5-.73-9.2-2.28-3.25-6.32-4.59-10.07-5.21-4.65-.76-9.46-.77-14.15-.45-9.61.64-18.99,2.99-28.26,5.44-8.82,2.34-17.64,4.88-26.73,5.94-7.93.93-16.07.94-23.93-.55-7.45-1.42-14.85-4.28-20.51-9.47-6.46-5.92-9.15-14.16-12.64-21.94-1.59-3.55-3.4-7.17-5.97-10.13-2.11-2.43-4.81-4.35-7.66-5.82-5.11-2.63-11.84-4.48-17.48-2.49-2.39.84-4.45,2.5-5.49,4.85-1.3,2.92-.59,6.2,1,8.87,4.32,7.27,13.28,9.58,21.19,9.84,9.22.3,18.59-1.46,27.55-3.43s18.4-4.64,27.57-7.08c17.69-4.7,36.24-9.11,54.61-6.07,4.42.73,8.75,1.9,12.95,3.46l-.28-.36c-.41,5.07-5.68,7.65-9.92,9.13-5.74,2.01-11.89,2.88-17.83,4.08-13.96,2.83-27.93,5.66-41.89,8.49-7.96,1.61-15.91,3.22-23.87,4.84-.47.1-.27.82.2.72,14.61-2.96,29.22-5.92,43.84-8.88,7.31-1.48,14.61-2.96,21.92-4.44,6.16-1.25,12.58-2.13,18.5-4.32,4.4-1.63,9.38-4.41,9.8-9.61.01-.17-.13-.31-.28-.36-16.6-6.2-34.32-5.04-51.36-1.44s-35.15,9.83-53.15,12.89c-8.95,1.52-18.72,2.87-27.59.26-4.13-1.21-8-3.43-10.58-6.96-2.1-2.88-3.25-6.75-1.35-10.03,3.1-5.36,10.56-4.99,15.72-3.58,6.65,1.82,12.33,5.74,15.93,11.64,4.31,7.05,6.29,15.27,10.81,22.21,3.98,6.1,9.82,10.45,16.55,13.13,13.97,5.57,30.12,4.64,44.53,1.4,18.49-4.15,37.03-11.49,56.31-9.3,4.16.47,9.09,1.62,11.53,5.38,2.09,3.23,1.52,7.46-.8,10.41-2.57,3.26-6.91,4.72-10.87,5.37-4.51.75-9.16.52-13.68-.08-18.48-2.46-35.04-12-53.15-15.95-17.24-3.76-35.72-3.02-52.43,2.77-3.8,1.32-7.51,2.91-11.07,4.78-.3.16-.2.59.09.69,12.18,4.09,24.89,6.56,37.72,7.29,5.75.33,11.67.54,17.39-.33,4.18-.63,8.93-1.98,11.53-5.59,5.29-7.35-3.11-14.39-8.92-17.81-4.27-2.51-8.93-4.42-13.68-5.81-2.74-.8-5.86-.39-8.7-.52-3.03-.13-6.06-.37-9.07-.7-14.26-1.56-28.29-5.32-41.41-11.13-.44-.19-.82.45-.38.65h0Z"/><path class="j" d="m306.01,339.78c-2.09.86-3.56,2.6-4.05,4.82-.47,2.09-.17,4.47,1.05,6.27,2.91,4.28,9.04,3.92,12.71.9,1.81-1.49,2.85-3.6,2.96-5.93.09-2.08-.59-4.35-2.08-5.83-1.6-1.59-4.01-1.95-6.02-.95s-3,3.22-3.25,5.32c-.31,2.7.87,5.21,2.9,6.96,2.28,1.96,5.16,2.98,8,3.82,1.04.31,2.24-.76,1.85-1.85-2.13-5.88-7.81-10.04-14.08-10.21-1.11-.03-1.9,1.31-1.3,2.26,1.5,2.36,5.61,2.41,6.8-.32.32-.74.22-1.61-.54-2.05-.64-.37-1.73-.21-2.05.54-.03.07-.31.5-.15.31-.17.21.11-.02-.14.13-.04.02-.4.17-.17.09-.09.03-.19.06-.28.08.13,0,.14-.01.03,0-.06,0-.55-.01-.26.03-.14-.02-.29-.06-.42-.11.25.09-.1-.08-.16-.1.1.05.01.01-.05-.09l-1.3,2.26c4.85.13,9.52,3.41,11.19,8.01l1.85-1.85c-1.97-.59-3.95-1.23-5.69-2.34-.78-.5-1.52-1.11-2.08-1.85s-.71-1.14-.9-1.97c-.02-.08-.03-.16-.04-.23.03.22,0-.04,0-.07-.02-.18-.02-.37-.02-.56,0-.51.01-.64.09-1.02.04-.18.08-.36.13-.53.01-.04.2-.57.12-.36.07-.16.15-.32.24-.47.03-.06.35-.54.22-.37.1-.13.22-.26.34-.38.05-.05.38-.32.19-.18.15-.11.32-.21.49-.29.04-.02.26-.1.04-.02.09-.03.18-.06.28-.09s.19-.05.29-.06c-.07.01-.25.01.06,0,.17,0,.35,0,.52,0,.25.02-.21-.05.03,0,.07.02.14.03.2.05.09.02.18.05.26.08-.2-.07-.02-.01.08.04.14.08.28.16.41.25-.22-.16.17.16.22.21.07.07.3.33.25.27-.1-.13.07.1.09.14.06.1.13.2.19.31.09.15.16.3.24.46.11.23-.07-.18.02.05.03.07.05.14.08.21.13.39.23.79.3,1.19-.03-.21.02.31.03.38,0,.18.01.37,0,.55s-.01.37-.03.55c-.03.32-.02.13,0,.07-.02.13-.05.26-.08.38-.04.18-.09.35-.14.53-.02.07-.21.53-.13.36-.15.32-.4.74-.56.94-1.07,1.38-2.57,2.17-4.26,2.5-1.37.27-3.13-.03-4.2-.93-.62-.52-1-1.14-1.22-1.74-.32-.91-.37-1.4-.31-2.35.04-.62.28-1.43.66-2.05.19-.31.27-.44.65-.78.07-.07.15-.13.22-.19-.13.1,0,.01.06-.03.08-.05.17-.11.26-.16.04-.02.42-.2.2-.11.75-.31,1.28-1,1.05-1.85-.19-.71-1.09-1.36-1.85-1.05h0Z"/><path class="j" d="m310.68,346.19c-14.95,19.63-32.68,36.95-47.46,56.71-14.02,18.74-24.86,39.88-29.78,62.88-2.9,13.53-3.7,27.49-1.93,41.23.24,1.89,3.25,1.91,3,0-3.07-23.85,1.7-48.08,11.6-69.86s24.99-40.19,40.67-58.01c9.05-10.29,18.19-20.51,26.5-31.42,1.17-1.54-1.43-3.03-2.59-1.51h0Z"/><path class="j" d="m303.82,342.27c11.79.89,19.51-11.79,24.6-20.56,6.18-10.65,10.76-22.17,14.69-33.81,2.27-6.7,4.32-13.48,6.37-20.25.56-1.85-2.33-2.64-2.89-.8-3.46,11.42-6.94,22.85-11.4,33.93-2.2,5.45-4.65,10.8-7.44,15.97s-5.61,10.01-9.24,14.37-8.59,8.61-14.7,8.15c-1.93-.15-1.92,2.86,0,3h0Z"/><path class="j" d="m313.51,341.54c-18.43-5.83-36.31-13.34-53.36-22.46s-32.88-19.54-47.74-31.53c-8.27-6.67-16.18-13.78-23.68-21.3-1.37-1.37-3.49.75-2.12,2.12,13.53,13.56,28.38,25.78,44.24,36.52,16.06,10.89,33.15,20.25,50.95,27.97,10.1,4.38,20.42,8.25,30.92,11.57,1.84.58,2.63-2.31.8-2.89h0Z"/><path class="j" d="m311.95,347.19c9.83.15,18.48,5.86,25.65,12.11s13.18,13.13,18.77,20.54c11.31,15,20.47,31.47,31.37,46.75,3,4.2,6.01,8.63,9.76,12.21s8.06,5.97,13.17,5.13c1.9-.31,1.09-3.2-.8-2.89-4.44.73-8.35-2.34-11.24-5.34-3.2-3.33-5.87-7.2-8.54-10.95-5.41-7.61-10.4-15.51-15.44-23.37-9.96-15.52-20.28-31.19-34.17-43.53-7.96-7.07-17.51-13.49-28.53-13.66-1.93-.03-1.93,2.97,0,3h0Z"/><path class="j" d="m319.5,360.99c.27-2.01.54-4.02.81-6.03-5.01,1.32-10.03,2.65-15.04,3.97,2.84,3.01,6.31,5.29,10.2,6.68,4.9,1.76,11.04.57,14.55-3.39s4.54-9.4,5.13-14.5c.27-2.31.05-4.65-.43-6.93-.59-2.8-2.02-5.15-3.8-7.33-1.19-1.45-2.78-2.71-4.43-3.58-2.39-1.26-4.76-1.95-7.46-2.05-5.37-.21-10.65,3.17-13,7.94-2.19,4.44-2.74,9.1-1.8,13.95.12.6.29,1.18.51,1.75.47,1.22.94,2.51,1.67,3.61,1.45,2.2,3.21,4.06,5.5,5.42,4.71,2.8,10.55,2.44,15.27-.08,2.21-1.18,4.23-3.15,5.5-5.31.62-1.05,1.16-2.27,1.41-3.47.48-2.29.35-3.84,0-6.14-.32-2.08-2.41-4.37-4.14-5.38-1.93-1.13-4.77-1.61-6.94-.91s-4.28,2.05-5.38,4.14l-.91,2.15c-.43,1.6-.43,3.19,0,4.79l.04.23-.32-2.39c.03.31.03.6,0,.9l.32-2.39c-.06.37-.15.71-.29,1.05l.91-2.15c-.16.34-.34.65-.56.95l1.41-1.82c-.29.36-.61.68-.97.97l1.82-1.41c-.52.39-1.06.7-1.66.96l2.15-.91c-.54.21-1.08.36-1.65.46l2.39-.32c-.65.09-1.29.09-1.94,0l2.39.32c-.48-.08-.93-.21-1.38-.4l2.15.91c-.4-.19-.78-.42-1.14-.69l1.82,1.41c-.51-.4-.96-.84-1.36-1.36l1.41,1.82c-.39-.52-.7-1.06-.97-1.65l.91,2.15c-.37-.87-.6-1.77-.73-2.7l.32,2.39c-.11-.96-.11-1.9,0-2.86l-.32,2.39c.15-1.1.44-2.14.86-3.16l-.91,2.15c.27-.6.59-1.15.98-1.68l-1.41,1.82c.34-.43.71-.79,1.14-1.13l-1.82,1.41c.31-.22.63-.4.97-.56l-2.15.91c.41-.16.81-.28,1.24-.35l-2.39.32c.52-.06,1.03-.07,1.55,0l-2.39-.32c.62.09,1.21.26,1.79.49l-2.15-.91c.67.3,1.29.66,1.87,1.11l-1.82-1.41c.5.41.94.85,1.35,1.35l-1.41-1.82c.38.51.7,1.03.95,1.62l-.91-2.15c.31.8.53,1.6.66,2.45l-.32-2.39c.17,1.34.13,2.67-.03,4.01l.32-2.39c-.31,2.23-.81,4.58-1.68,6.67l.91-2.15c-.2.41-.41.79-.68,1.16l1.41-1.82c-.26.31-.52.57-.84.82l1.82-1.41c-.29.2-.58.37-.9.52l2.15-.91c-.32.12-.64.21-.97.27l2.39-.32c-.53.07-1.03.06-1.56,0l2.39.32c-.76-.12-1.47-.34-2.18-.63l2.15.91c-1.14-.5-2.19-1.15-3.19-1.9l1.82,1.41c-.89-.69-1.72-1.44-2.49-2.25-2.18-2.32-5.73-3.15-8.76-2.31-1.52.43-2.85,1.2-3.97,2.31-1.12,1.12-1.89,2.45-2.31,3.97l-.81,6.03c-.38,1.2-.43,2.39-.16,3.59.05,1.2.41,2.31,1.07,3.35,1.09,1.87,3.23,3.65,5.38,4.14,2.3.52,4.89.41,6.94-.91,1.82-1.17,3.83-3.13,4.14-5.38h0Z"/><path class="g" d="m330.95,428.57c-11.37-1.35-22.96-.47-33.97,2.71-5.44,1.57-10.73,3.69-15.75,6.3-1.04.54-1.84.86-3.01.93-.98.06-1.96.08-2.95.07-1.96-.03-3.92-.19-5.86-.5-7.1-1.15-15.27-4.55-17.5-12.08-1.32-4.44-.37-9.21,2.35-12.93,2.96-4.03,7.38-6.62,11.74-8.86,11.83-6.07,24.97-9.33,38.26-9.52l-.32-.56c-8.31,15.36-21.89,28-38.64,33.49-8.99,2.95-18.28,3.2-27.66,2.97-9.87-.23-20.04-.81-29.6,2.12-7.72,2.37-15.47,7.42-17.37,15.8-1.45,6.39.79,15.82,7.94,17.8,4.29,1.19,8.85-.69,12.66-2.57s7.29-4.27,10.56-6.93c7.01-5.72,12.95-12.59,19.07-19.22s12.66-13.3,20.67-17.94,16.67-7.27,25.47-5.36,15.54,8.85,20.97,16.06c2.63,3.49,5.12,7.09,7.87,10.5,2.45,3.03,5.11,6.15,8.4,8.31,4.93,3.24,11.68,4.58,17.3,2.44,5.78-2.2,8.42-8.02,7.25-13.97-1.53-7.82-9.02-13.82-16.98-13.37-8.47.48-15.85,6.46-22.03,11.78-11.84,10.18-21.6,22.47-32.44,33.65-9.83,10.14-21.2,20.35-35.4,23.46-3.38.74-6.83,1.03-10.29.91l.36.28c-1.66-5.75.7-11.26,4.23-15.77s8.29-8.46,12.55-12.48c9.82-9.24,19.63-18.48,29.45-27.71,5.57-5.25,11.15-10.49,16.72-15.74.35-.33-.18-.86-.53-.53-10.18,9.58-20.36,19.16-30.54,28.74-5.09,4.79-10.18,9.58-15.27,14.37-4.49,4.22-9.42,8.26-13.18,13.17-3.57,4.65-5.84,10.3-4.15,16.16.05.16.19.27.36.28,13.75.48,25.84-6.18,36.02-14.89,11.39-9.75,20.82-21.54,31.17-32.34,5.18-5.4,10.58-10.64,16.58-15.13,7.05-5.29,16.67-10.54,25.17-5.2,6.26,3.93,10.49,13.17,5.8,19.84-3.55,5.05-10.78,5.55-16.24,3.97-7.64-2.22-12.61-9-17.14-15.11-4.89-6.61-9.59-13.83-16.57-18.44-15.01-9.92-33.21-1.79-45.38,8.8-13.09,11.39-22.63,27.06-38.06,35.68-3.99,2.23-9.12,4.79-13.8,3.72-4.01-.91-6.46-4.54-7.53-8.29s-.92-8.14.77-11.84c1.8-3.94,5.02-7,8.73-9.14,8.47-4.89,18.7-5.38,28.24-5.27,9.48.11,19.06.88,28.44-.86,15.95-2.96,30.08-12.54,39.91-25.29,2.55-3.31,4.81-6.83,6.8-10.5.13-.24-.03-.57-.32-.56-12.07.18-24.01,2.85-35,7.86-8.52,3.89-19.06,9.76-18.68,20.58.28,7.87,6.45,12.94,13.49,15.2,3.74,1.2,7.71,1.74,11.64,1.75.93,0,1.86-.03,2.79-.09.42-.03.93-.01,1.34-.12.61-.15,1.21-.6,1.77-.89,2.74-1.42,5.55-2.7,8.43-3.82,12.99-5.03,27.08-6.73,40.9-5.09.48.06.47-.69,0-.75h0Z"/><path class="k" d="m622.2,328.55v.74c-.94-.03-1.64.05-2.11.21s-.7.53-.7,1.09c0,.17.04.38.12.63s.25.59.53,1.01l5.89,8.63,5.74-8.77c.23-.38.39-.69.46-.94s.11-.43.11-.55c0-.57-.31-.95-.92-1.13-.37-.12-.99-.18-1.88-.2v-.74h8.74v.74c-.81.04-1.53.28-2.16.72-.99.69-2.1,1.97-3.33,3.85l-5.91,9.02v7.78c0,1.55.25,2.51.75,2.9.5.38,1.62.62,3.37.71v.74h-12.21v-.74c1.81-.1,2.93-.37,3.37-.81s.65-1.52.65-3.27v-6.94l-5.23-7.68c-1.81-2.64-3.08-4.34-3.81-5.09s-1.61-1.15-2.66-1.2v-.74h11.19Z"/><path class="k" d="m644.23,331.52c2.46-2.36,5.49-3.54,9.08-3.54s6.64,1.18,9.1,3.55c2.67,2.57,4,5.98,4,10.25s-1.38,7.79-4.14,10.35c-2.47,2.29-5.46,3.44-8.96,3.44-3.75,0-6.86-1.27-9.34-3.81-2.51-2.59-3.77-5.92-3.77-9.98,0-4.27,1.34-7.7,4.02-10.27Zm2.99,19.6c1.66,2.01,3.69,3.02,6.1,3.02s4.38-.98,6.05-2.94,2.51-5.09,2.51-9.4-.85-7.51-2.54-9.45-3.7-2.91-6.02-2.91-4.43,1.01-6.09,3.02-2.49,5.13-2.49,9.35.83,7.31,2.48,9.33Z"/><path class="k" d="m679.8,328.55v.74c-1.54.1-2.53.36-2.99.77s-.68,1.35-.68,2.82v12.79c0,2.1.29,3.73.86,4.9,1.07,2.14,3.09,3.2,6.07,3.2,3.27,0,5.46-1.09,6.58-3.28.62-1.22.94-3.11.94-5.66v-10.41c0-2.17-.26-3.54-.78-4.09s-1.51-.9-2.97-1.04v-.74h9.26v.74c-1.55.17-2.56.54-3.04,1.12s-.71,1.92-.71,4.01v10.41c0,2.76-.42,4.92-1.27,6.46-1.56,2.85-4.53,4.28-8.91,4.28s-7.27-1.41-8.83-4.22c-.85-1.51-1.27-3.5-1.27-5.98v-12.5c0-1.46-.22-2.39-.67-2.8s-1.43-.67-2.94-.79v-.74h11.35Z"/><path class="k" d="m707.43,354.28c1.46-.16,2.41-.42,2.85-.79s.66-1.3.66-2.81v-17.79c0-1.46-.21-2.4-.64-2.81s-1.39-.68-2.87-.78v-.74h10.78c3.63,0,6.71.6,9.22,1.8,4.53,2.15,6.8,5.99,6.8,11.52,0,1.99-.41,3.89-1.22,5.68s-2.04,3.31-3.68,4.55c-1.04.78-2.12,1.37-3.24,1.78-2.04.75-4.56,1.13-7.54,1.13h-11.11v-.74Zm8.06-1.06c.32.21.98.31,1.98.31,3.12,0,5.7-.62,7.71-1.86,3.1-1.9,4.65-5.15,4.65-9.75,0-4.1-1.28-7.19-3.83-9.27-2.19-1.77-5.08-2.66-8.69-2.66-.9,0-1.51.1-1.83.29s-.48.63-.48,1.29v20.35c0,.65.16,1.08.48,1.29Z"/><path class="k" d="m736.32,354.28c1.63-.12,2.68-.36,3.16-.73s.72-1.32.72-2.87v-17.79c0-1.47-.24-2.42-.72-2.84s-1.54-.67-3.16-.75v-.74h11.84v.74c-1.63.08-2.68.33-3.16.75s-.72,1.37-.72,2.84v17.79c0,1.54.24,2.5.72,2.87s1.54.61,3.16.73v.74h-11.84v-.74Z"/><path class="k" d="m749.64,354.28c1.46-.16,2.41-.42,2.85-.79s.66-1.3.66-2.81v-17.79c0-1.46-.21-2.4-.64-2.81s-1.39-.68-2.87-.78v-.74h10.78c3.63,0,6.71.6,9.22,1.8,4.53,2.15,6.8,5.99,6.8,11.52,0,1.99-.41,3.89-1.22,5.68s-2.04,3.31-3.68,4.55c-1.04.78-2.12,1.37-3.24,1.78-2.04.75-4.56,1.13-7.54,1.13h-11.11v-.74Zm8.06-1.06c.32.21.98.31,1.98.31,3.12,0,5.7-.62,7.71-1.86,3.1-1.9,4.65-5.15,4.65-9.75,0-4.1-1.28-7.19-3.83-9.27-2.19-1.77-5.08-2.66-8.69-2.66-.9,0-1.51.1-1.83.29s-.48.63-.48,1.29v20.35c0,.65.16,1.08.48,1.29Z"/><path class="k" d="m778.33,354.28c1.65-.17,2.71-.54,3.18-1.12s.7-1.92.7-4.03v-17.62l-.55-.64c-.59-.69-1.08-1.12-1.49-1.28-.41-.16-1.03-.26-1.85-.28v-.74h6.83l15.44,19.14v-13.29c0-2.19-.33-3.61-.98-4.27-.43-.43-1.38-.71-2.85-.83v-.74h9.39v.74c-1.52.16-2.54.53-3.05,1.11s-.76,1.93-.76,4.02v21.05h-.68l-17.7-21.93v15.57c0,2.19.32,3.61.96,4.27.42.43,1.35.72,2.79.88v.74h-9.39v-.74Z"/><path class="k" d="m814.71,335.33c-.94,1.13-1.98,1.95-3.1,2.45l-.37-.78c.91-.52,1.69-1.17,2.33-1.93s.97-1.55.97-2.34c0-.18-.05-.31-.16-.39s-.23-.12-.37-.12c-.77.09-1.22.14-1.35.14-.51,0-1-.18-1.46-.53s-.7-.87-.7-1.56c0-.51.19-1.01.57-1.51s1-.75,1.86-.75,1.66.34,2.28,1.03.93,1.54.93,2.55c0,1.37-.47,2.62-1.42,3.76Z"/><path class="k" d="m820.87,328.55h22.62l.21,6.8h-.96c-.47-2.14-1.06-3.53-1.79-4.17s-2.24-.97-4.56-.97h-2.23v20.47c0,1.54.24,2.5.72,2.87s1.54.61,3.16.73v.74h-11.66v-.74c1.69-.13,2.75-.41,3.16-.84s.62-1.5.62-3.23v-20h-2.25c-2.21,0-3.72.32-4.52.96s-1.4,2.03-1.81,4.18h-.98l.23-6.8Z"/><path class="k" d="m873.08,328.73c1.52.43,2.38.64,2.56.64.38,0,.74-.1,1.07-.31s.57-.53.7-.98h.84l.37,8.98h-.92c-.53-1.78-1.23-3.22-2.09-4.32-1.64-2.06-3.85-3.09-6.62-3.09s-5.09,1.11-6.87,3.32-2.67,5.26-2.67,9.14c0,3.57.93,6.42,2.8,8.54s4.24,3.19,7.1,3.19c2.07,0,3.98-.5,5.72-1.48,1-.56,2.1-1.41,3.3-2.54l.74.74c-.89,1.12-1.99,2.1-3.3,2.95-2.24,1.43-4.67,2.15-7.29,2.15-4.3,0-7.71-1.37-10.23-4.12-2.33-2.54-3.5-5.71-3.5-9.51s1.23-7.16,3.69-9.8c2.59-2.77,5.96-4.16,10.12-4.16,1.45,0,2.93.21,4.45.64Z"/><path class="k" d="m881.09,355.02v-.74c1.03-.12,1.8-.5,2.31-1.16.51-.66,1.4-2.46,2.64-5.4l8.33-19.63h.8l9.97,22.68c.66,1.5,1.19,2.43,1.59,2.79.4.36,1.06.6,2,.73v.74h-10.17v-.74c1.17-.1,1.92-.23,2.26-.38.34-.15.51-.52.51-1.1,0-.19-.07-.54-.2-1.03-.13-.49-.31-1.01-.55-1.55l-1.6-3.85h-10.54c-1.04,2.62-1.66,4.21-1.86,4.79-.2.58-.3,1.03-.3,1.37,0,.67.27,1.14.82,1.4.34.16.97.27,1.91.35v.74h-7.93Zm17.23-10.27l-4.58-11.02-4.61,11.02h9.19Z"/><path class="k" d="m905.73,328.55h22.62l.21,6.8h-.96c-.47-2.14-1.06-3.53-1.79-4.17s-2.24-.97-4.56-.97h-2.23v20.47c0,1.54.24,2.5.72,2.87s1.54.61,3.16.73v.74h-11.66v-.74c1.69-.13,2.75-.41,3.16-.84s.62-1.5.62-3.23v-20h-2.25c-2.21,0-3.72.32-4.52.96s-1.4,2.03-1.81,4.18h-.98l.23-6.8Z"/><path class="k" d="m948.64,328.73c1.52.43,2.38.64,2.56.64.38,0,.74-.1,1.07-.31s.57-.53.7-.98h.84l.37,8.98h-.92c-.53-1.78-1.23-3.22-2.09-4.32-1.64-2.06-3.85-3.09-6.62-3.09s-5.09,1.11-6.87,3.32-2.67,5.26-2.67,9.14c0,3.57.93,6.42,2.8,8.54s4.24,3.19,7.1,3.19c2.07,0,3.98-.5,5.72-1.48,1-.56,2.1-1.41,3.3-2.54l.74.74c-.89,1.12-1.99,2.1-3.3,2.95-2.24,1.43-4.67,2.15-7.29,2.15-4.3,0-7.71-1.37-10.23-4.12-2.33-2.54-3.5-5.71-3.5-9.51s1.23-7.16,3.69-9.8c2.59-2.77,5.96-4.16,10.12-4.16,1.45,0,2.93.21,4.45.64Z"/><path class="k" d="m956.71,354.28c1.56-.17,2.54-.46,2.93-.87s.59-1.47.59-3.2v-17.32c0-1.43-.22-2.36-.65-2.79s-1.39-.7-2.86-.8v-.74h11.09v.74c-1.46.1-2.42.37-2.86.8s-.66,1.36-.66,2.79v7.79h12.15v-7.79c0-1.43-.21-2.36-.64-2.79s-1.39-.7-2.87-.8v-.74h11.09v.74c-1.47.1-2.42.37-2.86.8s-.65,1.36-.65,2.79v17.79c0,1.45.22,2.38.65,2.79.44.41,1.39.68,2.86.81v.74h-11.09v-.74c1.58-.16,2.56-.44,2.94-.86s.58-1.48.58-3.21v-7.77h-12.15v8.24c0,1.45.22,2.38.66,2.8.44.42,1.39.68,2.86.8v.74h-11.09v-.74Z"/><path class="k" d="m995.4,354.28c1.47-.16,2.42-.42,2.86-.79s.65-1.3.65-2.81v-17.79c0-1.42-.21-2.35-.64-2.78s-1.39-.71-2.87-.81v-.74h21.25l.14,5.72h-1.02c-.34-1.76-.85-2.9-1.52-3.42s-2.19-.78-4.53-.78h-5.45c-.59,0-.95.09-1.09.28-.14.19-.21.54-.21,1.06v8.93h6.17c1.71,0,2.79-.25,3.26-.76.47-.51.85-1.53,1.13-3.07h.94v9.24h-.94c-.3-1.55-.68-2.58-1.15-3.08s-1.55-.75-3.24-.75h-6.17v9.9c0,.79.25,1.26.75,1.41s2,.21,4.51.21c2.71,0,4.71-.3,6-.89s2.45-2.03,3.48-4.31h1.11l-1.82,6.76h-21.62v-.74Z"/><path class="k" d="m1019.84,354.28c1.65-.17,2.71-.54,3.18-1.12s.7-1.92.7-4.03v-17.62l-.55-.64c-.59-.69-1.08-1.12-1.49-1.28-.41-.16-1.03-.26-1.85-.28v-.74h6.83l15.44,19.14v-13.29c0-2.19-.33-3.61-.98-4.27-.43-.43-1.38-.71-2.85-.83v-.74h9.39v.74c-1.52.16-2.54.53-3.05,1.11s-.76,1.93-.76,4.02v21.05h-.68l-17.7-21.93v15.57c0,2.19.32,3.61.96,4.27.42.43,1.35.72,2.79.88v.74h-9.39v-.74Z"/><path class="k" d="m1053.49,331.52c2.46-2.36,5.49-3.54,9.08-3.54s6.64,1.18,9.1,3.55c2.67,2.57,4,5.98,4,10.25s-1.38,7.79-4.14,10.35c-2.47,2.29-5.46,3.44-8.96,3.44-3.75,0-6.86-1.27-9.34-3.81-2.51-2.59-3.77-5.92-3.77-9.98,0-4.27,1.34-7.7,4.02-10.27Zm2.99,19.6c1.66,2.01,3.69,3.02,6.1,3.02s4.38-.98,6.05-2.94,2.51-5.09,2.51-9.4-.85-7.51-2.54-9.45-3.7-2.91-6.02-2.91-4.43,1.01-6.09,3.02-2.49,5.13-2.49,9.35.83,7.31,2.48,9.33Z"/><path class="k" d="m1089.05,328.55v.74c-1.54.1-2.53.36-2.99.77s-.68,1.35-.68,2.82v12.79c0,2.1.29,3.73.86,4.9,1.07,2.14,3.09,3.2,6.07,3.2,3.27,0,5.46-1.09,6.58-3.28.62-1.22.94-3.11.94-5.66v-10.41c0-2.17-.26-3.54-.78-4.09s-1.51-.9-2.97-1.04v-.74h9.26v.74c-1.55.17-2.56.54-3.04,1.12s-.71,1.92-.71,4.01v10.41c0,2.76-.42,4.92-1.27,6.46-1.56,2.85-4.53,4.28-8.91,4.28s-7.27-1.41-8.83-4.22c-.85-1.51-1.27-3.5-1.27-5.98v-12.5c0-1.46-.22-2.39-.67-2.8s-1.43-.67-2.94-.79v-.74h11.35Z"/><path class="k" d="m1125.42,328.73c1.5.43,2.36.64,2.58.64.57,0,.98-.11,1.22-.33s.45-.54.62-.96h.88l.31,8.42h-.92c-.82-1.94-1.67-3.39-2.54-4.34-1.58-1.67-3.63-2.5-6.15-2.5s-4.82.97-6.77,2.92-2.92,5.15-2.92,9.62c0,3.68.97,6.56,2.91,8.63s4.34,3.11,7.19,3.11c.48,0,1.05-.05,1.7-.14s1.27-.23,1.86-.43c.95-.31,1.54-.58,1.78-.81s.35-.56.35-1v-6.37c0-1.54-.22-2.51-.65-2.89s-1.39-.62-2.86-.71v-.74h10.2v.74c-.99.07-1.65.23-1.97.49-.55.42-.82,1.28-.82,2.58v7.87c0,.47-1.15,1.09-3.45,1.88s-4.51,1.17-6.63,1.17c-3.91,0-7.2-1.14-9.88-3.42-2.96-2.51-4.43-5.89-4.43-10.12,0-3.72,1.18-6.91,3.54-9.57,2.59-2.93,6.03-4.39,10.31-4.39,1.55,0,3.07.21,4.57.64Z"/><path class="k" d="m1135.58,354.28c1.56-.17,2.54-.46,2.93-.87s.59-1.47.59-3.2v-17.32c0-1.43-.22-2.36-.65-2.79s-1.39-.7-2.86-.8v-.74h11.09v.74c-1.46.1-2.42.37-2.86.8s-.66,1.36-.66,2.79v7.79h12.15v-7.79c0-1.43-.21-2.36-.64-2.79s-1.39-.7-2.87-.8v-.74h11.09v.74c-1.47.1-2.42.37-2.86.8s-.65,1.36-.65,2.79v17.79c0,1.45.22,2.38.65,2.79.44.41,1.39.68,2.86.81v.74h-11.09v-.74c1.58-.16,2.56-.44,2.94-.86s.58-1.48.58-3.21v-7.77h-12.15v8.24c0,1.45.22,2.38.66,2.8.44.42,1.39.68,2.86.8v.74h-11.09v-.74Z"/><path class="k" d="m620.11,376.55v.74c-.79.03-1.36.1-1.7.21-.6.22-.9.62-.9,1.21,0,.26.04.51.11.76.07.25.18.57.32.96l5.79,15.04,4.23-11.21-1.87-4.9c-.35-.89-.88-1.48-1.58-1.78-.42-.18-1.05-.28-1.89-.29v-.74h10.71v.74c-1,.01-1.69.08-2.07.21-.6.22-.9.68-.9,1.37,0,.23.03.44.08.62s.18.54.39,1.08l5.78,15,5-13.57c.29-.77.48-1.45.59-2.05.06-.34.1-.61.1-.82,0-.74-.35-1.26-1.05-1.54-.39-.17-.98-.27-1.76-.29v-.74h7.94v.74c-.72.1-1.26.27-1.64.49-.68.38-1.18,1.03-1.52,1.96l-4.19,11.92-1.62,4.6-2.54,7.22h-.62l-1.75-4.58-4.63-12.32-6.14,16.9h-.6l-2.98-8.29-3.37-9.38c-1.39-3.86-2.36-6.23-2.92-7.11-.55-.88-1.42-1.35-2.59-1.42v-.74h9.8Z"/><path class="k" d="m648.53,402.28c1.63-.12,2.68-.36,3.16-.73s.72-1.32.72-2.87v-17.79c0-1.47-.24-2.42-.72-2.84s-1.54-.67-3.16-.75v-.74h11.84v.74c-1.63.08-2.68.33-3.16.75s-.72,1.37-.72,2.84v17.79c0,1.54.24,2.5.72,2.87s1.54.61,3.16.73v.74h-11.84v-.74Z"/><path class="k" d="m661.65,402.28c1.65-.17,2.71-.54,3.18-1.12s.7-1.92.7-4.03v-17.62l-.55-.64c-.59-.69-1.08-1.12-1.49-1.28-.41-.16-1.03-.26-1.85-.28v-.74h6.83l15.44,19.14v-13.29c0-2.19-.33-3.61-.98-4.27-.43-.43-1.38-.71-2.85-.83v-.74h9.39v.74c-1.52.16-2.54.53-3.05,1.11s-.76,1.93-.76,4.02v21.05h-.68l-17.7-21.93v15.57c0,2.19.32,3.61.96,4.27.42.43,1.35.72,2.79.88v.74h-9.39v-.74Z"/><path class="k" d="m690.54,402.28c1.47-.16,2.42-.42,2.86-.79s.65-1.3.65-2.81v-17.79c0-1.42-.21-2.35-.64-2.78s-1.39-.71-2.87-.81v-.74h21.25l.14,5.72h-1.02c-.34-1.76-.85-2.9-1.52-3.42s-2.19-.78-4.53-.78h-5.45c-.59,0-.95.09-1.09.28-.14.19-.21.54-.21,1.06v8.93h6.17c1.71,0,2.79-.25,3.26-.76.47-.51.85-1.53,1.13-3.07h.94v9.24h-.94c-.3-1.55-.68-2.58-1.15-3.08s-1.55-.75-3.24-.75h-6.17v9.9c0,.79.25,1.26.75,1.41s2,.21,4.51.21c2.71,0,4.71-.3,6-.89s2.45-2.03,3.48-4.31h1.11l-1.82,6.76h-21.62v-.74Z"/><path class="k" d="m717.1,394.97c.68,1.8,1.47,3.23,2.38,4.3,1.59,1.86,3.56,2.79,5.91,2.79,1.27,0,2.38-.4,3.31-1.21s1.39-1.93,1.39-3.38c0-1.3-.47-2.43-1.4-3.4-.61-.61-1.9-1.53-3.86-2.75l-3.41-2.13c-1.03-.65-1.85-1.31-2.46-1.97-1.13-1.26-1.7-2.66-1.7-4.18,0-2.02.67-3.7,2.01-5.04s3.12-2.01,5.33-2.01c.91,0,2.01.22,3.29.67s2.01.67,2.2.67c.5,0,.84-.12,1.03-.35s.33-.57.44-1h.82l.88,8.52h-.96c-.65-2.57-1.7-4.36-3.13-5.37s-2.86-1.52-4.27-1.52c-1.09,0-2.05.32-2.86.97s-1.22,1.54-1.22,2.69c0,1.03.31,1.91.94,2.64.62.74,1.59,1.52,2.91,2.32l3.51,2.17c2.2,1.35,3.75,2.6,4.65,3.73.89,1.15,1.33,2.5,1.33,4.06,0,2.1-.79,3.85-2.37,5.25s-3.6,2.11-6.06,2.11c-1.24,0-2.53-.23-3.88-.7s-2.12-.7-2.31-.7c-.47,0-.78.14-.95.43s-.27.59-.32.92h-.88l-1.19-8.52h.92Z"/><path class="k" d="m746.85,376.55h22.62l.21,6.8h-.96c-.47-2.14-1.06-3.53-1.79-4.17s-2.24-.97-4.56-.97h-2.23v20.47c0,1.54.24,2.5.72,2.87s1.54.61,3.16.73v.74h-11.66v-.74c1.69-.13,2.75-.41,3.16-.84s.62-1.5.62-3.23v-20h-2.25c-2.21,0-3.72.32-4.52.96s-1.4,2.03-1.81,4.18h-.98l.23-6.8Z"/><path class="k" d="m775.01,379.52c2.46-2.36,5.49-3.54,9.08-3.54s6.64,1.18,9.1,3.55c2.67,2.57,4,5.98,4,10.25s-1.38,7.79-4.14,10.35c-2.47,2.29-5.46,3.44-8.96,3.44-3.75,0-6.86-1.27-9.34-3.81-2.51-2.59-3.77-5.92-3.77-9.98,0-4.27,1.34-7.7,4.02-10.27Zm2.99,19.6c1.66,2.01,3.69,3.02,6.1,3.02s4.38-.98,6.05-2.94,2.51-5.09,2.51-9.4-.85-7.51-2.54-9.45-3.7-2.91-6.02-2.91-4.43,1.01-6.09,3.02-2.49,5.13-2.49,9.35.83,7.31,2.48,9.33Z"/><path class="k" d="m817.97,376.55v.74c-.79.03-1.36.1-1.7.21-.6.22-.9.62-.9,1.21,0,.26.04.51.11.76.07.25.18.57.32.96l5.79,15.04,4.23-11.21-1.87-4.9c-.35-.89-.88-1.48-1.58-1.78-.42-.18-1.05-.28-1.89-.29v-.74h10.71v.74c-1,.01-1.69.08-2.07.21-.6.22-.9.68-.9,1.37,0,.23.03.44.08.62s.18.54.39,1.08l5.78,15,5-13.57c.29-.77.48-1.45.59-2.05.06-.34.1-.61.1-.82,0-.74-.35-1.26-1.05-1.54-.39-.17-.98-.27-1.76-.29v-.74h7.94v.74c-.72.1-1.26.27-1.64.49-.68.38-1.18,1.03-1.52,1.96l-4.19,11.92-1.62,4.6-2.54,7.22h-.62l-1.75-4.58-4.63-12.32-6.14,16.9h-.6l-2.98-8.29-3.37-9.38c-1.39-3.86-2.36-6.23-2.92-7.11-.55-.88-1.42-1.35-2.59-1.42v-.74h9.8Z"/><path class="k" d="m846.38,402.28c1.63-.12,2.68-.36,3.16-.73s.72-1.32.72-2.87v-17.79c0-1.47-.24-2.42-.72-2.84s-1.54-.67-3.16-.75v-.74h11.84v.74c-1.63.08-2.68.33-3.16.75s-.72,1.37-.72,2.84v17.79c0,1.54.24,2.5.72,2.87s1.54.61,3.16.73v.74h-11.84v-.74Z"/><path class="k" d="m859.5,402.28c1.65-.17,2.71-.54,3.18-1.12s.7-1.92.7-4.03v-17.62l-.55-.64c-.59-.69-1.08-1.12-1.49-1.28-.41-.16-1.03-.26-1.85-.28v-.74h6.83l15.44,19.14v-13.29c0-2.19-.33-3.61-.98-4.27-.43-.43-1.38-.71-2.85-.83v-.74h9.39v.74c-1.52.16-2.54.53-3.05,1.11s-.76,1.93-.76,4.02v21.05h-.68l-17.7-21.93v15.57c0,2.19.32,3.61.96,4.27.42.43,1.35.72,2.79.88v.74h-9.39v-.74Z"/><path class="k" d="m892.88,402.83c-.43-.44-.64-.96-.64-1.57s.22-1.13.65-1.56.96-.64,1.57-.64,1.13.21,1.56.64.64.95.64,1.56-.21,1.14-.63,1.57c-.42.44-.95.65-1.57.65s-1.15-.22-1.58-.65Z"/><path class="k" d="m902.88,402.83c-.43-.44-.64-.96-.64-1.57s.22-1.13.65-1.56.96-.64,1.57-.64,1.13.21,1.56.64.64.95.64,1.56-.21,1.14-.63,1.57c-.42.44-.95.65-1.57.65s-1.15-.22-1.58-.65Z"/><path class="k" d="m912.88,402.83c-.43-.44-.64-.96-.64-1.57s.22-1.13.65-1.56.96-.64,1.57-.64,1.13.21,1.56.64.64.95.64,1.56-.21,1.14-.63,1.57c-.42.44-.95.65-1.57.65s-1.15-.22-1.58-.65Z"/><path class="h" d="m1107.28,530.09c-3.89-6.18-12.73-6.89-18.61-3.22-7.07,4.41-8.92,13.75-7.84,21.46.98,6.98,5.82,15.78,14.13,14.43,7.04-1.14,10.5-9.65,9.68-16.02-1.11-8.72-8.68-14.98-13.89-21.43-5.24-6.48-8.93-14.13-11.15-22.14-4.61-16.58-3.23-34.41.95-50.92,1.05-4.14,2.29-8.23,3.71-12.26,1.3-3.68,2.91-7.32,5.23-10.48,2.12-2.87,5.07-5.39,8.72-5.87,3.31-.44,6.45.83,8.85,3.08,5.74,5.37,7.59,13.71,8.74,21.16,1.52,9.87,1.85,19.93,1.11,29.88-.74,9.89-2.6,19.69-5.51,29.17-.72,2.35-1.51,4.68-2.36,6.98-.41,1.12-.84,2.23-1.28,3.33-.5,1.24-1.2,2.49-1.58,3.76-.14.47-.03.44-.63.51-.32.04-.64,0-.95-.06-.8-.17-1.5-.65-2.08-1.21-1.22-1.19-2.01-2.92-1.86-4.64.38-4.19,4.35-7.34,7.46-9.67,3.59-2.68,7.43-5.05,11.48-6.97,7.54-3.57,16.54-5.74,24.64-2.78,14.01,5.13,15.84,22.55,9.89,34.45-7.6,15.21-26.1,19.23-41.7,17.88-4.21-.36-8.38-1.12-12.48-2.14l1.05,1.05c-2.12-5.34,5.1-9.48,9.66-8.27,6.44,1.7,10.09,8.43,13.15,13.78,8.08,14.12,15.22,28.79,21.3,43.88,2.88,7.15,6.66,15.25,5.37,23.17-.94,5.72-6.02,12.16-12.44,11.31-3.22-.43-5.76-2.82-7.66-5.29-2.18-2.82-3.95-6-5.77-9.06-4.03-6.78-7.8-13.73-11.28-20.81-6.94-14.12-12.75-28.78-17.37-43.82-.58-1.89-1.14-3.78-1.68-5.67l-2.89.8c6.83,17.55,8.93,36.9,5.8,55.49-1.28,7.61-3.45,14.96-7.67,21.48-3.56,5.5-8.82,10.7-15.57,11.68-7.63,1.1-14.06-3.65-18.56-9.32-2.44-3.07-4.43-6.49-6.29-9.94-2.18-4.05-4.2-8.2-5.94-12.46-6.49-15.88-10.12-35.18-2.18-51.24,6.32-12.8,19.75-23.66,34.63-22.71,1.79.11,3.55.43,5.28.89l.4-2.95c-17.37.75-35.24-4.72-48.43-16.25-12.83-11.21-20.54-28.05-20-45.15.26-8.2,2.25-16.69,8.4-22.52,2.5-2.38,5.9-4.29,9.46-3.74,4.37.67,7.14,4.58,9.71,7.79,11.57,14.45,23.04,29.06,32.68,44.9,9.43,15.49,17.04,32.27,20.25,50.21.39,2.2.71,4.41.97,6.63.22,1.9,3.22,1.92,3,0-2.18-19.09-9.32-37.08-18.84-53.65s-21.69-32.37-33.83-47.58c-2.81-3.53-5.56-7.81-9.66-9.97-3.58-1.89-7.6-1.76-11.21-.02-7.74,3.73-11.87,12.58-13.21,20.63-2.94,17.73,3.1,36.33,15.08,49.61,12.34,13.68,30.6,21.23,48.83,22.11,2.26.11,4.53.1,6.79,0,1.65-.07,2.08-2.5.4-2.95-15.71-4.19-31.38,4.98-40.11,17.74-10.55,15.42-9.48,35.3-3.79,52.34,2.97,8.9,7.02,17.73,12.09,25.64,4.23,6.61,10.1,13.23,18.19,14.73,16.03,2.98,26.62-13.84,30.3-27.09,2.58-9.3,3.45-19.27,3.19-28.89-.26-9.89-1.87-19.78-4.81-29.23-.74-2.37-1.56-4.71-2.46-7.02-.68-1.76-3.44-1.1-2.89.8,4.09,14.28,9.23,28.24,15.37,41.77,3.01,6.63,6.26,13.16,9.75,19.55,1.82,3.33,3.69,6.63,5.64,9.89,1.72,2.89,3.41,5.85,5.42,8.55,3.52,4.74,8.76,8.54,14.93,6.63,5.7-1.76,9.93-7.27,10.89-13.06,1.24-7.5-1.45-14.82-4.15-21.7-2.74-6.99-5.7-13.89-8.87-20.7-3.24-6.97-6.71-13.84-10.39-20.59-3.13-5.73-6.15-12.03-10.76-16.75-4.13-4.22-9.83-6.55-15.46-3.92-2.25,1.05-4.32,2.85-5.38,5.12-.85,1.82-1.6,6.28.98,7.07,3.02.92,6.27,1.38,9.39,1.79s6.24.66,9.38.68c6.26.03,12.61-.79,18.53-2.89,5.45-1.93,10.73-4.92,14.75-9.12,3.53-3.69,6.07-8.29,7.55-13.16,2.8-9.24,1.83-20.3-5.01-27.58-8.71-9.28-22.44-8.33-33.27-3.8-5.98,2.5-11.65,5.97-16.62,10.12-4.31,3.61-8.46,9.41-5.17,15.05,1.32,2.26,3.75,4.19,6.49,4.12,1.29-.03,2.61-.4,3.23-1.6.87-1.69,1.53-3.53,2.23-5.3,2.66-6.71,4.77-13.64,6.31-20.7,3.09-14.16,3.95-28.83,2.43-43.25-.66-6.21-1.47-12.59-3.72-18.45-1.89-4.9-4.74-9.89-9.34-12.7-4.46-2.73-10.15-2.53-14.48.38-4.74,3.19-7.59,8.5-9.67,13.67-4.63,11.52-7.35,24.14-8.29,36.5s.14,24.85,4.42,36.41c2.14,5.76,5.02,11.23,8.73,16.14s8.84,9.49,12.07,15.09c1.39,2.41,2.47,5.07,2.48,7.89,0,2.43-.63,4.88-1.86,6.98-1.1,1.88-2.76,3.55-4.92,4.12-2.5.66-5.05-.35-6.84-2.12-4.01-3.96-5.01-10.39-4.53-15.77s3.23-11.43,8.71-13.4c4.25-1.52,9.77-.9,12.35,3.21,1.03,1.63,3.62.13,2.59-1.51h0Z"/><path class="h" d="m721.23,199.93c-5.55-1.16-12.39-2.31-17.12,1.7-3.09,2.61-3.68,7.8-1.67,11.23,1.01,1.71,2.71,2.85,4.71,2.94,2.95.14,5.46-1.95,7.12-4.19,3.38-4.58,3.61-10.79,2.37-16.16-1.52-6.59-5.35-12.32-7.74-18.58-2.52-6.6-3.51-13.79-2.75-20.83.46-4.29,2.36-10.35,7.19-11.4,5.12-1.11,8.62,4.44,10.13,8.5,2.44,6.58,2.76,14.23,2.25,21.15-.56,7.61-2.57,15.13-5.88,22-.59,1.22.72,3,2.05,2.05,3.27-2.33,7.51-2.24,11.05-.49,4.09,2.02,6.63,5.76,7.33,10.25.79,5-.67,10.25-3.21,14.55-.53.89-1.15,1.96-2.13,2.42-1.23.58-2.59-.1-3.65-.76-2.13-1.33-4.02-3.17-5.68-5.04-3.8-4.26-6.41-9.46-7.67-15.02l-2.89.8c3.15,8.62,4.04,18.02,2.42,27.06-.78,4.37-2.04,8.8-4.08,12.76-1.67,3.24-4.12,6.08-7.75,7.07-6.34,1.71-13.07-2.24-17.13-6.86-4.71-5.37-6.22-12.99-5.58-19.95.75-8.21,4.74-16.02,11.14-21.23,1.31-1.07-.18-2.69-1.46-2.51-11.63,1.69-23.86-6.48-27-17.75-1.35-4.86-1-11.88,3.89-14.72,6.02-3.49,12.53,2.42,16.3,6.63,2.93,3.28,5.54,6.87,8.26,10.33,2.95,3.75,5.91,7.5,8.86,11.26l2.12-2.12c-10.37-8.73-15.91-22.54-14.42-36.03.18-1.65.33-3.66,1.29-5.06.88-1.28,2.45-1.52,3.87-1.14,3.55.95,4.86,4.99,5.88,8.1,2.64,7.97,4.62,16.16,5.94,24.45,1.49,9.4,2.08,18.94,1.82,28.45-.05,1.93,2.95,1.93,3,0,.49-18.53-2.17-37.38-8.28-54.91-1.26-3.61-3.09-7.37-6.92-8.77-3.54-1.3-7.23.16-8.6,3.72s-1.36,7.61-1.22,11.2c.15,3.78.78,7.56,1.88,11.18,2.45,8.09,7.16,15.49,13.63,20.94,1.5,1.26,3.31-.62,2.12-2.12-2.9-3.69-5.8-7.38-8.71-11.06-2.73-3.47-5.35-7.07-8.28-10.37-4.52-5.09-11.6-10.88-18.82-7.86-6.24,2.61-7.98,10.11-7.06,16.22.98,6.53,4.96,12.45,10.1,16.47,5.99,4.68,13.55,6.97,21.12,5.87l-1.46-2.51c-6.28,5.12-10.4,12.7-11.67,20.67s-.12,16.34,4.54,22.76c4.22,5.81,11.45,10.64,18.9,10.07,3.77-.29,7.2-2.02,9.65-4.91,3.02-3.57,4.71-8.27,5.93-12.72,3.01-10.93,2.55-22.76-1.34-33.4-.66-1.8-3.32-1.11-2.89.8,1.33,5.87,4.12,11.34,8.05,15.9,3.21,3.72,10.09,10.65,14.92,5.5,1.93-2.06,3.18-4.97,4.08-7.62.99-2.91,1.51-6.07,1.34-9.15-.32-5.52-2.84-10.61-7.57-13.62s-10.89-3.58-15.49-.3l2.05,2.05c5.73-11.88,7.71-25.32,5.65-38.35-.84-5.27-2.39-10.78-6.26-14.68-3.4-3.43-8.64-4.45-12.68-1.44s-5.67,8.67-6.08,13.61c-.57,6.83.39,13.85,2.78,20.28s6.04,11.85,7.72,18.28c1.33,5.08,1.25,11.39-2.61,15.4-1.46,1.52-4.08,2.88-5.68.81-1.15-1.5-1.21-3.76-.68-5.5.79-2.59,3.35-3.77,5.85-4.21,3.3-.57,6.75.13,9.98.8,1.88.39,2.69-2.5.8-2.89h0Z"/><path class="h" d="m516.08,576.96c-17.88,18.41-30.18,42.01-35.44,67.1-2.63,12.54-3.54,25.46-2.51,38.24.44,5.48,1.46,10.81,3.7,15.86,1.95,4.39,5,8.81,9.46,10.93s9.6,1.79,13.59-.89,6.37-7.09,7.82-11.56c1.59-4.9,2.14-10.14,2.05-15.27-.14-7.57-.71-15.13-1.71-22.64-1.98-14.97-5.59-29.7-10.82-43.87s-11.4-26.7-16.13-40.43c-4.2-12.17-6.98-24.79-6.07-37.72.79-11.16,4.28-22.58,11.69-31.17,1.81-2.1,3.83-4,6.02-5.7h-2.12c14.72,14.54,21.05,36.66,17.24,56.9-1.08,5.73-2.95,11.29-5.64,16.47-.65,1.26.42,2.38,1.69,2.2,8.52-1.19,17.13-2.27,25.75-1.89,8.01.36,16.37,2.11,23.09,6.7,4.98,3.41,8.63,8.75,10.53,14.44,1.79,5.37,2.25,11.61-.18,16.86-2.94,6.37-9.49,9.52-16.28,9.81-8.44.36-16.69-2.67-24.37-5.82-15.13-6.21-30.46-15.31-47.34-14.85-12.4.34-26.64,5.63-32.13,17.63-.66,1.44-1.19,2.93-1.57,4.47-.18.71.14,1.28.69,1.69,9.58,7.23,22.35-.11,29.87-6.91,7.6-6.87,16.93-17.96,28.52-14.75,9.08,2.52,12.92,12.77,15.42,20.86,1.61,5.19,2.81,10.5,4.54,15.65,1.98,5.92,4.44,11.69,7.35,17.22,2.95,5.6,6.36,10.96,10.2,16,3.43,4.5,7.46,10.47,13.33,11.81,9.47,2.16,14.55-8,15.66-15.78.7-4.87.07-9.55-1.1-14.3s-3-9.79-5.22-14.39c-4.49-9.31-10.9-17.71-18.52-24.68-15.16-13.88-35.44-22.58-56.14-22.26-2.56.04-5.12.23-7.66.55-1.89.24-1.91,3.24,0,3,19.99-2.51,40.2,3.99,56.08,16.13,7.92,6.05,14.78,13.57,19.99,22.07,2.59,4.23,4.78,8.71,6.46,13.39s3.06,9.32,3.39,14.09c.29,4.28-.35,8.82-2.16,12.73-1.45,3.14-3.94,6.47-7.69,6.74-5.61.42-9.55-5.18-12.63-9.05-3.82-4.8-7.21-9.93-10.19-15.29-2.97-5.36-5.52-10.96-7.57-16.74-1.8-5.06-3.06-10.27-4.56-15.42-2.45-8.41-5.71-18.22-13.52-23.15-4.12-2.6-9.2-3.31-13.91-2.18-5.35,1.28-9.97,4.65-14.09,8.16s-8.05,7.92-12.7,11.12c-4.33,2.98-9.55,5.59-14.94,5.32-2.48-.13-4.73-1.03-6.7-2.52l.69,1.69c3.31-13.25,17.62-19.36,30.16-19.87,8.04-.33,15.83,1.77,23.31,4.55,8.53,3.17,16.67,7.28,25.11,10.66,7.9,3.17,16.49,6.08,25.13,5.36,7.04-.59,13.85-3.96,17.26-10.36,5.9-11.08.89-25.9-7.97-33.89-5.89-5.31-13.9-7.91-21.63-8.95-8.66-1.17-17.44-.48-26.08.59-2.16.27-4.31.56-6.46.86l1.69,2.2c10.03-19.29,9.22-43.28-1.06-62.31-2.92-5.4-6.63-10.38-11-14.7-.63-.62-1.48-.5-2.12,0-18.41,14.27-21.42,40.51-16.85,61.89,2.97,13.9,8.66,26.99,14.14,40.04,5.59,13.31,10.6,26.75,13.83,40.85,1.66,7.25,2.93,14.59,3.77,21.98.79,7.01,1.4,14.16,1.25,21.21-.11,4.9-.88,9.93-2.8,14.46-1.66,3.92-4.44,7.73-8.73,8.91-10.57,2.92-16.28-9.39-18.1-17.66-1.23-5.57-1.39-11.44-1.4-17.12-.02-6.27.4-12.55,1.29-18.76,3.53-24.71,13.9-48.51,30.01-67.62,1.98-2.35,4.05-4.62,6.19-6.83,1.35-1.39-.77-3.51-2.12-2.12h0Z"/><path class="h" d="m-133.04,742.46c-9.07-12.62-23.18-20.69-37.78-25.3-16.05-5.06-33.49-6.26-50.07-3.33-9.04,1.6-17.87,4.56-25.86,9.1-1.42.81-.61,2.62.76,2.8,20.61,2.7,41.41,3.58,62.19,3.44,21.01-.14,42-1.31,62.96-2.66s41.91-2.91,62.89-3.85,41.16-1.26,61.71-.13,40.63,3.68,60.42,8.55c2.47.61,4.92,1.25,7.37,1.92,1.86.51,2.66-2.38.8-2.89-19.62-5.41-39.81-8.51-60.1-10.03-20.56-1.55-41.22-1.5-61.81-.76s-42.09,2.26-63.11,3.65c-20.98,1.39-41.97,2.7-63,3.09-20.89.39-41.83-.12-62.62-2.4-2.57-.28-5.14-.59-7.7-.93l.76,2.8c13.94-7.9,30.32-10.76,46.21-10.17,15.76.59,31.79,4.57,45.41,12.66,6.93,4.12,13.27,9.39,17.99,15.97,1.12,1.55,3.72.06,2.59-1.51h0Z"/><path class="e" d="m765.07,568.76c-20.02.45-40.04.91-60.06,1.36-1.08.02-1.94,1.27-1.3,2.26,4,6.1,11.25,9,18.21,10.1,8.18,1.29,16.78.59,24.66-1.94,8.45-2.71,15.66-7.84,20.27-15.54,4.99-8.34,5.9-18.33,4.74-27.8-2.54-20.81-16.46-45.23-.69-64.01,6.3-7.5,15.32-12.54,24.97-14.16,11.01-1.85,22.28,1.26,31.36,7.57,7.52,5.21,13.55,12.7,16.05,21.58,2.24,7.96,1.47,16.57-1.98,24.08-3.91,8.5-10.69,15.14-18.65,19.89-8.06,4.81-16.85,8.26-25.31,12.27-7.5,3.55-15.55,7.57-20.97,14.06-2.81,3.37-4.66,7.28-5.13,11.68-.64,5.89,1.26,11.82,3.29,17.27,7.9,21.17,21.99,39.29,34.6,57.79,11.27,16.54,22.16,33.91,25.32,54.03,2.74,17.46-1.14,35.6-13.39,48.75-3.36,3.61-7.17,6.74-11.27,9.46h1.51c-10.34-6.23-19.23-14.62-25.5-24.98-5.68-9.39-9.07-19.96-10.7-30.78-3.9-25.97,3.19-51.65,5.68-77.39,1.63-16.81,1.14-33.98-5-49.92-.31-.81-1.35-1.52-2.2-.9-16.84,12.36-33.67,24.72-50.51,37.08-16.84,12.36-33.67,24.72-50.51,37.08-9.55,7.01-19.1,14.03-28.65,21.04l2.2,1.69c3.33-11.83,11.53-21.37,20.69-29.22,10.79-9.24,23.13-16.58,35.38-23.69,12.83-7.44,25.89-14.55,38.26-22.76,3.01-2,6-4.04,8.87-6.24s6.29-5.08,6.85-8.97c1.15-8.02-9.05-12.95-14.94-15.65-16.41-7.53-34.44-10.39-51.19-16.99-7.56-2.98-15.12-6.87-21.16-12.38-4.73-4.31-8.75-10.07-8.35-16.75.58-9.79,10.77-15.69,18.96-18.67,11.61-4.22,24.68-5.26,36.87-3.45,5.99.89,11.92,2.5,17.35,5.21,7.04,3.52,13.44,8.17,18.88,13.86,9.84,10.27,15.98,23.3,20.74,36.55,1.12,3.12,2.17,6.26,3.21,9.41.6,1.83,3.5,1.04,2.89-.8-4.4-13.4-9.31-26.9-17.52-38.5s-20.5-21.82-34.54-26.28c-12.21-3.88-25.7-4.13-38.22-1.73-10.29,1.97-22.03,6.1-28.31,15.05-2.78,3.96-3.83,8.74-3.04,13.5,1.15,6.94,6.17,12.64,11.52,16.86,14.04,11.07,32.01,15.09,48.8,20.04,8.76,2.58,17.61,5.36,25.7,9.66,3.34,1.77,7.52,4.21,9.04,7.88,1.65,3.99-2.12,7.27-4.94,9.47-5.89,4.6-12.31,8.59-18.68,12.48s-13.04,7.7-19.61,11.46c-12.85,7.35-25.83,14.66-37.71,23.54-10.15,7.59-19.95,16.6-25.57,28.16-1.27,2.61-2.32,5.34-3.11,8.13-.33,1.17,1.11,2.5,2.2,1.69,16.84-12.36,33.67-24.72,50.51-37.08,16.84-12.36,33.67-24.72,50.51-37.08,9.55-7.01,19.1-14.03,28.65-21.04l-2.2-.9c11.37,29.52,2.75,61.03-.77,91.17-2.58,22.07-1.31,45.36,9.67,65.18,6.58,11.89,16.4,21.53,28,28.52.44.26,1.08.29,1.51,0,8.04-5.32,15.02-12.22,19.76-20.67,4.26-7.6,6.56-16.13,7.12-24.8,1.22-18.82-5.56-36.84-14.91-52.85-11.6-19.84-26.44-37.61-37.64-57.7-2.73-4.9-5.24-9.93-7.32-15.14-2.19-5.48-4.41-11.41-4.16-17.4.37-8.93,7.55-14.95,14.65-19.21,16.02-9.6,36.05-13.76,48.6-28.46,5.62-6.58,9.31-14.66,10.04-23.32s-1.63-17.07-6.35-24.13c-11.7-17.51-35.29-25.66-54.99-17.67-8.71,3.54-16.57,9.77-21.27,18-5.62,9.85-4.93,21.59-2.68,32.33s6.47,22.07,6.87,33.57c.35,10.12-2.43,20.03-9.79,27.27-5.86,5.77-13.95,8.61-21.97,9.75s-16.41.77-23.56-2.64c-2.92-1.4-5.6-3.35-7.39-6.08l-1.3,2.26c20.02-.45,40.04-.91,60.06-1.36,1.93-.04,1.93-3.04,0-3h0Z"/><path class="e" d="m356.5,102.27c8.37,2.62,15.21,9,18.85,16.92,3.66,7.98,3.38,17.26-.42,25.13-1.93,4.01-4.65,7.6-8.04,10.5-3.07,2.62-6.68,4.39-10.41,5.87-6.79,2.69-14.15,4.53-20.34,8.5-2.72,1.75-5.24,4.01-6.71,6.93-.75,1.5-1.23,3.07-1.46,4.73-.16,1.17-.08,1.77.84,2.58.88.77,1.8,1.5,2.74,2.2,6.67,4.94,14.85,7.53,23.08,8.09,17.43,1.18,34.62-6.54,45.71-19.92,11.9-14.35,17.06-33.28,17.18-51.69.01-2.31-.06-4.61-.2-6.92l-2.8.76c8.51,16.23,18.82,31.79,31.94,44.68,12.37,12.16,27.85,22.33,45.04,25.9,14.93,3.1,30.86,1.02,44.66-5.4,13.18-6.14,24.53-16.78,29.29-30.76,2.83-8.32,3.34-17.78.46-26.16-3.17-9.24-10.4-15.67-19.25-19.41-9.86-4.17-20.88-5.37-31.51-5.14-11.26.24-22.42,2.13-33.44,4.32-22.67,4.49-44.99,10.53-67.28,16.6-5.48,1.49-10.96,2.99-16.44,4.46s-10.9,3.24-16.44,4.22c-2.36.41-4.99.51-7.16-.67s-3.44-3.13-4.58-5.14c-2.08-3.69-3.69-7.64-5.22-11.58-3.02-7.76-5.67-15.88-10.39-22.83-2.29-3.36-5.04-6.35-8.35-8.73-3.56-2.56-8.56-4.32-12.04-.63-2.84,3.02-3.21,7.56-3.29,11.49-.11,4.97.23,9.93.93,14.85,1.43,10.05,4.56,19.85,9.17,28.89,2.23,4.37,4.81,8.55,7.72,12.5,1.13,1.54,3.74.04,2.59-1.51-11.67-15.85-17.92-35.46-17.4-55.15.08-3.13.29-8.08,3.48-9.79,2.11-1.13,4.51.08,6.32,1.26,1.67,1.08,3.19,2.37,4.58,3.8,5.56,5.69,8.65,13.29,11.47,20.59,1.49,3.88,2.93,7.77,4.57,11.59s3.38,8.03,6.35,11.02c3.56,3.59,8.42,3.72,13.1,2.74,5.33-1.12,10.6-2.72,15.86-4.14,21.45-5.77,42.83-11.84,64.47-16.87,10.8-2.51,21.68-4.87,32.65-6.53s21.79-2.44,32.64-1.07c9.32,1.18,19.3,3.95,26.46,10.34s9.83,15.76,9.25,25.06c-.9,14.55-9.72,27.16-21.64,35.08-12.09,8.03-26.95,11.8-41.41,11.02-16.37-.88-31.82-8.46-44.45-18.61-13.81-11.1-24.78-25.36-33.82-40.5-2.21-3.7-4.31-7.47-6.31-11.29-.68-1.29-2.89-.72-2.8.76,1.14,18.49-2.67,37.91-13.57,53.19-5.18,7.25-11.92,13.25-19.95,17.16-7.66,3.73-16.27,5.58-24.79,5.25-9.37-.37-18.59-3.61-25.6-9.95l.44,1.06c.57-6.66,6.33-10.33,11.9-12.82,6.59-2.94,13.68-4.68,20.11-7.99,7.57-3.9,13.28-10.86,16.15-18.82,2.9-8.05,2.49-16.84-1.08-24.6-3.96-8.62-11.58-15.46-20.65-18.3-1.85-.58-2.64,2.32-.8,2.89h0Z"/><path class="h" d="m1241.1,122.5c-15.11-1.72-30.27-3.24-45.49-3.52-14.39-.27-29.06.46-43.05,4.1-9.62,2.5-20.7,6.36-25.75,15.66-3.64,6.72-2.77,14.71,1.88,20.71,7,9.03,19.32,11.48,30.13,10.81,1.33-.08,1.93-1.56,1.06-2.56-11.11-12.75-22.53-25.65-30.7-40.55-6.21-11.33-10.65-24.73-7.62-37.68,5.52-23.6,29.22-38.22,50.99-44.53,13.87-4.02,28.22-5.25,42.58-3.87,12.84,1.23,25.9,4.32,37.51,10.07,7.55,3.75,17.24,9.7,18.95,18.74,1.65,8.77-6.43,15.97-13.11,20.05-10.44,6.38-22.72,9.64-34.58,12.17-14.21,3.03-28.68,4.8-43.14,6.11-3.55.32-7.11.61-10.67.88-1.6.12-2.14,2.54-.4,2.95,25.9,6.06,52.07,12.06,76.85,21.9,10.73,4.26,21.26,9.35,30.71,16.04,7.81,5.53,14.93,12.91,18.3,22.04,2.79,7.56,2.61,15.86-1.35,22.98-5.01,8.99-14.41,14.58-23.77,18.12-22.65,8.56-47.91,7.44-71.31,2.95-26.91-5.16-52.89-14.88-77.6-26.57-1.19-.56-3.07.73-2.05,2.05,5.1,6.63,7.14,14.57,3.83,22.5-3.69,8.83-11.78,15.47-19.57,20.6-10.82,7.13-22.88,12.31-35.13,16.44-14.07,4.74-28.63,8.1-43.33,10.21-14.9,2.14-29.99,2.83-45.04,2.38-14.25-.42-28.54-1.84-42.45-5.02-11.37-2.6-23.09-6.32-32.59-13.31-3.44-2.53-7.21-5.82-8.84-9.88-1.36-3.4-.94-7.1.65-10.35,4.13-8.44,13.48-13.96,21.9-17.28,10.43-4.1,22.24-5.79,33.27-3.36,2.75.61,5.45,1.47,8.02,2.62l1.16-2.74c-39.39-10.51-78.15-23.63-115.47-40.09-9.84-4.34-19.57-8.91-29.18-13.73v2.59c21.68-12.03,47.41-16.16,71.87-17.36,27.86-1.37,55.74,1.57,82.84,8.09,27.83,6.7,54.58,17.02,80.67,28.68,6.19,2.76,12.34,5.59,18.49,8.45,1.11.51,2.03,1.2,3.24.8s2.4-1.33,3.44-2c1.8-1.16,3.53-2.47,5.1-3.93,5.25-4.91,8.1-11.64,6.91-18.83-1.26-7.58-6.45-14.1-12.11-18.99-7.53-6.5-16.67-11.03-26.13-13.98-21.32-6.65-46.53-5.72-66.46,4.86-13.27,7.04-25.53,20.58-22.78,36.66,3.07,17.92,22.61,26.74,38.4,30.4,20.77,4.81,43.12,3.6,63.69-1.59,9.42-2.37,18.72-5.69,27.22-10.44,6.74-3.76,13.28-8.58,17.63-15.06,1.77-2.64,3.1-5.59,3.77-8.7.4-1.88-2.49-2.69-2.89-.8-1.95,9.09-9.67,15.67-17.24,20.33-10.51,6.48-22.53,10.44-34.55,12.99-13.42,2.85-27.3,3.88-40.98,2.78-12.81-1.02-26.27-3.9-37.28-10.79-8.14-5.09-14.95-13.14-15.16-23.14-.2-9.59,5.46-18.06,12.57-24.02,10.03-8.4,23.3-12.55,36.12-14.01,14.88-1.7,30.23.18,44.1,5.91,10.28,4.25,20.94,10.98,26.52,20.93,2.1,3.74,3.35,8.09,2.72,12.4-.67,4.55-3.33,8.42-6.71,11.43-2.23,1.99-4.77,3.58-7.4,4.98h1.51c-33.26-15.47-67.03-30.06-102.84-38.53-34.54-8.17-70.76-10.77-105.96-5.63-17.22,2.52-34.53,7-49.83,15.5-.94.52-1.01,2.08,0,2.59,35.6,17.83,72.84,32.34,110.84,44.16,11.44,3.56,22.95,6.87,34.53,9.96,1.58.42,2.75-2.03,1.16-2.74-10.98-4.89-23.4-5.09-34.96-2.29-10.32,2.5-21.03,7.44-28.22,15.47-5.46,6.09-8.3,14.56-3.35,21.87,6.14,9.07,17.37,14.32,27.35,17.85,13.5,4.78,27.86,7.08,42.09,8.35,15.62,1.39,31.44,1.45,47.07.1,16.05-1.39,32-4.29,47.5-8.71,13.8-3.93,27.44-9.05,39.93-16.16,15.18-8.64,35.69-25.07,26.65-44.91-.98-2.16-2.27-4.15-3.71-6.03l-2.05,2.05c22.9,10.84,46.82,19.98,71.6,25.48,24.1,5.35,50.14,7.61,74.09.32,10.33-3.14,20.88-8.07,27.83-16.62,5.33-6.56,7.84-14.78,6.66-23.19-2.95-20.92-23.56-33.69-40.99-41.92-24.75-11.68-51.72-18.25-78.23-24.56-3.49-.83-6.97-1.65-10.46-2.46l-.4,2.95c15.39-1.17,30.79-2.72,45.99-5.43,13.29-2.36,26.84-5.47,39.01-11.48,8.17-4.03,17.72-10.63,19.44-20.31,1.6-9.03-5.09-16.45-11.91-21.32-10.27-7.34-23-11.39-35.28-13.75-14.22-2.73-28.98-3.2-43.26-.65-25.02,4.47-52.61,17.55-63.05,42.31-12.04,28.52,10.24,57.17,27.68,77.83,2.98,3.53,6.01,7.02,9.05,10.5.35-.85.71-1.71,1.06-2.56-9.28.57-19.66-1.07-26.4-8.06-4.86-5.04-6.46-12.45-3.12-18.77,4.71-8.92,15.63-12.34,24.74-14.64,13.02-3.29,26.59-4.02,39.97-3.84,15.75.2,31.45,1.77,47.09,3.55,1.92.22,1.9-2.78,0-3h0Z"/><path class="d" d="m215.01,372.4c-4.25-2.49-10.23-.69-12.01,4.02s1.05,10.14,5.97,11.08,9.93-2.33,11.61-7.1c.91-2.58.89-5.47.29-8.11-.57-2.49-1.93-4.78-2.26-7.33-.12-.91-.13-1.97.57-2.66.86-.83,2.36-.79,3.45-.55,2.16.48,3.94,2.01,5.01,3.91,2.23,3.94.44,8.47-3.77,10-1.84.67-3.98.78-5.79-.05-2.01-.92-3.34-2.84-4.46-4.66-1.21-1.96-2.26-4.01-3.69-5.81-1.33-1.68-3.37-3.53-5.61-3.73-3.21-.29-4,2.99-3.51,5.51.57,2.87,1.75,6.02,3.64,8.28,1.79,2.14,4.65,3.34,7.43,2.84,1.29-.23,2.47-.87,3.32-1.87.26-.31,1.5-2.53,1.86-2.45l-.9-.69c1.1,2.14,1.85,4.48,2.11,6.88s-.13,4.88-.4,7.37c-.24,2.24,0,4.52,1.54,6.27,1.34,1.53,3.46,2.31,5.39,1.46s3.02-2.95,3.83-4.79c.89-2.01,1.45-4.13,1.61-6.33.29-4.13-1.14-8.35-4.46-10.95s-7.79-3.39-11.48-1.26c-1.67.96-.16,3.56,1.51,2.59,2.48-1.43,5.48-.84,7.75.74,2.76,1.92,3.85,5.22,3.7,8.48-.08,1.78-.53,3.56-1.21,5.2-.48,1.13-1.46,3.72-2.98,3.69-1.95-.04-2.34-2.73-2.27-4.15.09-1.99.57-3.93.59-5.93.02-1.86-.21-3.75-.65-5.56-.41-1.68-.99-4.01-2.1-5.37-.99-1.21-2.84-.58-3.8.31s-1.44,2.5-2.66,3.14c-3.01,1.57-5.81-1.52-6.93-3.95-.67-1.46-1.29-3.15-1.55-4.74-.06-.35-.24-1.32.05-1.63.36-.38,1.34.3,1.72.55,2.28,1.43,3.57,4.08,4.89,6.33,1.42,2.41,3,4.88,5.42,6.4,4.7,2.97,11.45,1.09,14.43-3.44,3.31-5.03.54-12.12-4.63-14.67-2.63-1.29-6.42-1.69-8.62.64s-1.39,5.66-.5,8.3c1.09,3.21,2.36,6.25,1.59,9.71-.7,3.14-2.88,5.66-6.12,6.26-2.95.54-5.7-1.06-6.33-4.06s1.17-5.57,4.09-6.15c1.32-.27,2.65-.04,3.81.64,1.67.98,3.18-1.61,1.51-2.59h0Z"/><path class="d" d="m288.13,319.44c1.93,0,1.93-3,0-3s-1.93,3,0,3h0Z"/><path class="d" d="m285.84,313.76l-.93,6.8c-.13.98.65,2.33,1.85,1.85,1.63-.66,3.18-1.45,4.6-2.48.74-.53,1.45-1.1,2.12-1.72s1.62-1.35,1.52-2.37c-.16-1.54-1.38-3.02-2.56-3.92-1.27-.96-2.84-1.48-4.44-1.41l1.45,1.1c-.47-2.5,1.87-5.18,4.42-4.04,1.03.46,1.9,1.49,1.69,2.67s-1.51,2.32-2.75,2.05c-.73-.16-1.48.16-1.77.87-.25.63-.08,1.57.61,1.87.97.42,3.13,1.18,3.14,2.49,0,.19-.17.85-.45.87-.25.02-1.15-1.41-1.28-1.58-2.36-3.02-5.49-5.96-9.18-7.19-3.14-1.05-6.87-.32-8.31,2.93-1.12,2.55-.56,6.07,2.47,6.92,2.31.64,4.69-.59,6.76-1.47,2.27-.96,4.48-2.03,6.64-3.21l-1.82-2.36c-2.06,1.73-3.82,4.21-3.91,6.99-.07,2.31,1.21,4.45,3.28,5.46,4.25,2.07,9.36-.32,10.23-5.04.53-2.89-.33-5.79-2.23-8.01-1.26-1.47-3.37.66-2.12,2.12,2.34,2.74,2.1,8.5-2.36,8.69-1.41.06-3.06-.52-3.6-1.94-.9-2.35,1.18-4.76,2.84-6.15,1.34-1.13-.37-3.14-1.82-2.36-1.85,1.01-3.74,1.95-5.67,2.79-.85.37-1.7.73-2.56,1.05-.81.31-1.81.77-2.7.57s-1.11-1.07-.97-1.96c.13-.82.61-1.74,1.39-2.15,3.04-1.58,6.84,1.55,8.88,3.49.72.68,1.39,1.4,2.03,2.16.58.69,1.06,1.5,1.69,2.14,1.2,1.21,2.98,1.45,4.32.34s1.82-3.16,1.08-4.76c-.81-1.75-2.57-2.7-4.25-3.44l-1.16,2.74c2.71.59,5.38-1.07,6.29-3.66.86-2.44-.36-5-2.49-6.31s-4.89-1.19-6.86.39-2.87,4.29-2.39,6.81c.12.62.83,1.13,1.45,1.1,1.88-.08,3.58,1.09,4.08,2.93l.39-1.46c-1.82,1.96-4.01,3.53-6.5,4.54l1.85,1.85.93-6.8c.11-.8-.19-1.61-1.05-1.85-.7-.19-1.73.24-1.85,1.05h0Z"/><path class="d" d="m402.04,301.47c-3.56.07-7.05-1.6-10.55-.25-2.99,1.15-4.86,4.32-3.37,7.41,1.14,2.36,3.88,3.1,6.28,2.42,2.54-.72,4.64-2.77,5.05-5.41.65-4.12-1.83-7.85-4.63-10.62l-.3,2.36c1.96-.99,4.7-2.52,6.94-1.56,1.62.7,2.83,2.78.97,3.94s-4.61.93-6.61.61c-2.57-.41-4.76-1.5-7.06-2.65-3.57-1.8-8.3-2.96-11.27.6-2.74,3.29-.14,7.58,3.65,8.34,2.57.52,5.06-.5,7.25-1.75,2.63-1.51,5.18-3.15,7.77-4.74l-2.26-1.3c.21,1.64-.86,2.89-1.77,4.16s-1.79,2.66-2.06,4.28c-.51,3.05.7,6.32,3.12,8.26,5.17,4.14,13.69.03,13.42-6.68-.15-3.67-2.63-7.01-6.16-8.06-1.85-.55-2.65,2.34-.8,2.89,2.82.84,4.73,4.19,3.7,7.03-.93,2.57-4.12,4.1-6.72,3.32s-4.2-3.97-3.54-6.59c.79-3.15,4.28-5.02,3.81-8.61-.14-1.06-1.19-1.95-2.26-1.3-2.28,1.4-4.56,2.81-6.85,4.19-1.82,1.1-4.13,2.56-6.35,1.88-1.48-.45-2.87-1.97-1.65-3.44s3.39-1.46,5.07-.93c2.33.73,4.37,2.18,6.65,3.04s4.98,1.31,7.52,1.22c1.96-.07,4.02-.42,5.59-1.68s2.18-3.31,1.49-5.22c-.76-2.11-2.82-3.68-5.02-4-2.89-.41-5.59.87-8.09,2.14-.87.44-.96,1.71-.3,2.36,2.1,2.07,4.5,5.13,3.75,8.3-.41,1.73-2.44,3.09-4.2,2.86-.92-.12-1.53-.77-1.64-1.69-.15-1.31.86-2.19,1.99-2.6,3-1.08,6.36.53,9.44.47,1.93-.04,1.93-3.04,0-3h0Z"/><path class="d" d="m413.89,247.76c-.19-2.6-1.43-5.47-4.23-6.09-2.5-.55-5.35,1.02-5.16,3.83.16,2.38,2.51,4.42,4.89,4.28,2.59-.15,4.48-2.53,4.93-4.93.63-3.39-1.17-6.39-3.01-9.08l-1.69,2.2c2.82.81,8.22,2.5,6.74,6.54-.45,1.24-1.64,1.57-2.76.89-1.63-.98-2.65-2.88-3.8-4.34-2.52-3.22-7.27-5.81-11.29-3.7-2.92,1.54-4.38,6.02-2.41,8.82,1.52,2.15,4.17,2.23,6.55,1.78,2.91-.55,5.72-1.5,8.43-2.66l-1.82-2.36c-2.48,2.94-3.86,6.6-3.82,10.46,0,.79.68,1.53,1.5,1.5,5.15-.18,8.67-6.42,6-10.89-.99-1.66-3.58-.15-2.59,1.51,1.47,2.47-.49,6.27-3.41,6.37l1.5,1.5c-.03-3.04.97-6.01,2.94-8.34,1.14-1.35-.26-3.02-1.82-2.36-2.33.99-4.77,1.74-7.24,2.26-1.45.3-3.5.57-4-1.01-.35-1.1.08-2.52.9-3.4,1.13-1.22,3.01-1.1,4.45-.55,3.89,1.48,5,5.91,8.41,7.98,1.58.96,3.7,1.09,5.25,0,1.46-1.03,2.17-2.78,2.22-4.53.13-5.1-5.03-7.19-9.14-8.37-1.2-.34-2.45,1.1-1.69,2.2,1.24,1.81,2.79,3.89,2.75,6.2-.02,1.27-.83,3.43-2.42,3.31-.91-.07-2.34-1.66-1.02-2.17,1.85-.71,2.77,1.81,2.86,3.15.14,1.91,3.14,1.93,3,0h0Z"/><path class="d" d="m305.72,370.49c1.73-.12,3.21-.77,4.51-1.91s-.44-3.38-1.82-2.36c-2.39,1.77-3.15,5.07-2.12,7.83,1.14,3.04,4.23,4.73,7.42,4.32s6.23-2.96,6.46-6.35-3.3-6.52-6.48-4.39c-1.47.99-2.49,2.52-3.59,3.87s-2.54,2.77-3.29,4.41c-.67,1.47-.66,3.17.32,4.5.86,1.16,2.19,1.87,3.58,2.19,2.95.69,6.59.05,8.98-1.83s3.69-5.76,2.04-8.6c-1.89-3.24-6.35-3.48-9.61-2.7-3.59.86-6.67,3.22-8.68,6.28-1.06,1.62,1.54,3.12,2.59,1.51,2.29-3.5,6.96-6.13,11.2-4.91,1.99.57,2.66,2.36,1.95,4.24-.76,2.03-2.88,2.92-4.9,3.17-1.51.19-3.76.16-4.68-1-.5-.63-.27-1.4.25-2.18.75-1.12,1.69-2.14,2.53-3.19s1.61-2.22,2.63-3.05c.58-.47,1.15-.65,1.66-.02,1.33,1.66-.25,3.77-1.77,4.58-1.77.94-4.37.65-5.47-1.15-.87-1.42-.92-3.93.46-4.95l-1.82-2.36c-.67.59-1.5.97-2.39,1.03-.81.06-1.5.65-1.5,1.5,0,.77.69,1.56,1.5,1.5h0Z"/><path class="d" d="m338.44,408.66c1.93,0,1.93-3,0-3s-1.93,3,0,3h0Z"/><path class="d" d="m337.33,408.32c5.2,4.46,10.85,9.21,13.25,15.85.58,1.59.99,3.26,1.09,4.95s-.24,3.37-.46,5.1c-.36,2.95,1.01,5.34,3.69,6.57,2.37,1.08,5.7,1.72,8.28,1.25,2.92-.52,4.38-3.2,3.8-6s-3.15-4.66-5.95-5.17c-3.39-.61-6.94.56-10.27-.33-5.84-1.56-6.84-9.33-7.26-14.35l-1.5,1.5c3.3-.1,6.34,1.58,7.99,4.45l-.15-1.16c-1.01,2.78-6.41,1.28-8.51,1.43-3.11.23-6.18,2.19-5.83,5.67.29,2.97,2.88,5.62,5.79,6.14,4.08.73,7.82-1.82,10.9-4.14,1.53-1.15.03-3.75-1.51-2.59-2.42,1.82-6.21,4.89-9.49,3.6-1.97-.77-4.19-4.14-1.37-5.36,1.27-.55,2.84-.37,4.18-.27,1.47.12,2.91.18,4.37-.13,1.35-.28,2.67-.92,3.55-2.01.42-.52.89-1.27.88-1.96-.01-.79-.68-1.56-1.14-2.15-2.28-2.95-5.92-4.65-9.65-4.54-.76.02-1.57.67-1.5,1.5.4,4.83,1.18,10.16,4.4,14,1.63,1.94,3.89,3.14,6.39,3.49,3.09.43,6.26-.5,9.32.16,1.2.26,2.49.78,3.11,1.92.42.78.66,1.99.06,2.75-.78,1-2.66.65-3.74.53-1.18-.13-2.41-.35-3.52-.8-.87-.35-1.8-.89-2.19-1.78-.64-1.44.13-3.34.28-4.82.3-3.07-.31-6.22-1.45-9.07-2.74-6.8-8.28-11.71-13.72-16.37-1.46-1.25-3.59.86-2.12,2.12h0Z"/><path class="d" d="m358.81,464.46c.97-3.43-2.47-7.17-6.01-6.28-3.26.81-4.28,4.98-2.58,7.64,2.51,3.92,7.5,1.46,10.33-.64,3.4-2.53,6.18-5.79,8.12-9.57l-1.69.69c1.76.28,2.42,2.53,1.57,3.99-1.29,2.21-4.73,1.49-6.34.13-1.23-1.04-3.3.28-2.36,1.82,3.86,6.28,10.47,10.77,17.79,11.84,3.35.49,7.77.25,8.52-3.86.65-3.58-1.9-6.62-5.16-7.66-4.41-1.41-9.2.6-13.5-1.21-.75-.32-1.64.34-1.85,1.05-.25.86.3,1.53,1.05,1.85,4.01,1.68,8.22.17,12.34.92,1.71.31,3.37,1.08,4,2.81.56,1.55.04,2.99-1.69,3.29s-3.93-.17-5.68-.65-3.56-1.21-5.2-2.15c-3.29-1.87-6.06-4.52-8.04-7.75l-2.36,1.82c3.08,2.6,8.73,3.27,11.05-.74,1.73-2.99.35-7.81-3.36-8.4-.63-.1-1.37.06-1.69.69-1.24,2.43-2.83,4.63-4.79,6.54-1.72,1.68-4.33,4.11-6.86,4.27-1.73.11-2.69-1.94-1.65-3.31,1.19-1.58,3.59.51,3.15,2.07-.52,1.86,2.37,2.66,2.89.8h0Z"/><path class="d" d="m332.74,468.45c1.93,0,1.93-3,0-3s-1.93,3,0,3h0Z"/><path class="d" d="m308.53,452.96c-3.92-1.34-5.99-5.17-7.29-8.86-1.63-4.61-2.46-9.45-4.07-14.07-1.51-4.33-3.44-10.6-8.35-12.2-1.02-.33-2.14-.35-3.16,0-1.16.39-1.79,1.25-2.19,2.38-.66,1.87-.18,4,.85,5.64,3.52,5.57,10.41,3.97,15.59,2.1l-1.69-.69c1.45,2.48,1.4,5.75-.38,8.08s-4.71,3.17-7.38,2.55c-1.88-.44-2.68,2.45-.8,2.89,3.87.9,8.07-.44,10.52-3.61s2.69-7.89.63-11.43c-.31-.54-1.08-.91-1.69-.69-3.65,1.31-9.38,3.43-12.12-.59-.56-.81-1.57-3.28-.22-3.84,1.65-.68,3.63,1.88,4.35,2.99,1.31,1.99,2.12,4.34,2.92,6.57s1.53,4.68,2.13,7.06c.92,3.61,1.81,7.26,3.38,10.65,1.68,3.63,4.32,6.65,8.18,7.97,1.83.63,2.62-2.27.8-2.89h0Z"/><path class="d" d="m251.17,467.91c.32,2.61,1.58,5.09,3.87,6.51,2.17,1.34,4.84,1.2,6.74-.53,1.62-1.47,2.46-3.98,1.54-6.04-1.18-2.61-4.51-3.11-7.02-2.54-2.97.67-5.36,2.92-6.39,5.75-.29.79.33,1.6,1.05,1.85,3.72,1.26,7.96.68,11.19-1.55l-2.26-1.3c.18,2.59.44,5.35,2.06,7.49,1.35,1.79,3.51,2.64,5.72,2.29s3.79-2.01,3.78-4.22c-.01-2.64-2.39-4.53-4.41-5.81-1.63-1.04-3.14,1.56-1.51,2.59,1.06.67,2.84,1.77,2.93,3.18.06,1.02-.94,1.36-1.8,1.35-3.3-.04-3.6-4.45-3.76-6.88-.07-1.04-1.25-1.99-2.26-1.3-2.63,1.82-5.85,2.28-8.87,1.25l1.05,1.85c.69-1.91,2.46-3.29,4.42-3.69,1.47-.3,3.85.08,3.44,1.96-.32,1.48-1.74,2.54-3.23,2.09-1.81-.54-3.04-2.51-3.26-4.31-.1-.8-.62-1.5-1.5-1.5-.73,0-1.6.69-1.5,1.5h0Z"/><path class="d" d="m182.18,296.19c1.42-2.35-1.25-5.05-3.68-4.35-2.29.66-3.44,3.31-3.33,5.53.1,1.99,1.03,4.15,2.9,5.08,1.96.98,4.03.33,5.26-1.44s1.15-4.34-.88-5.41c-1-.53-2.25.12-2.26,1.3-.01,2.65,2.33,4.27,4.77,4.47,2.79.24,5.13-1.76,5.69-4.45.63-3.01-.55-6.2-2.69-8.35s-5.65-3.52-8.63-2.12-4.51,5.05-2.87,7.91c.96,1.67,3.55.17,2.59-1.51-.36-.63-.36-1.13-.08-1.89.21-.57.75-1.26,1.33-1.62,1.53-.97,3.6-.31,4.98.83,1.51,1.24,2.54,3.12,2.55,5.09,0,.83-.19,1.68-.72,2.35-.1.13-.22.25-.35.35.16-.14-.23.14-.29.18,0,0-.22.11-.08.05.15-.07-.12.04-.16.05-.08.02-.64.15-.39.11-.19.03-.39.03-.59.03-.1,0-.2,0-.29-.02-.28-.02.05.02-.11-.02-.21-.05-.42-.1-.63-.17-.05-.02-.26-.12-.04-.01-.08-.04-.17-.08-.25-.13s-.16-.1-.24-.15c-.22-.15.04.05-.07-.06-.06-.06-.13-.13-.19-.19-.16-.17.18.27-.05-.06-.05-.07-.09-.15-.13-.23.07.13.05.12,0-.01-.03-.08-.05-.18-.07-.26.05.27,0-.08.01-.17l-2.26,1.3c.08.04.16.09.24.14-.11-.09-.13-.1-.06-.03,0,0,0,0,0-.03,0-.27.07.5.02.01.01.13,0,.26,0,.38.03-.4-.21.57-.08.28-.06.13-.13.25-.2.37-.16.28.1-.08-.1.15-.04.04-.35.34-.26.26.11-.09-.2.12-.25.15-.1.05-.08.04.05-.01-.08.03-.17.06-.26.08.27-.03-.04,0-.14,0,.3.02-.16-.04-.21-.06-.38-.11.09.08-.25-.1-.28-.15-.38-.23-.63-.54-.63-.8-.81-2.2-.46-3.29.18-.56.52-1.05,1.04-1.25-.07.03-.28-.11.05.03-.18-.07.22.09.06.05.13.13.16.16.08.08v-.07c.04.18.04.2,0,.05,0-.06,0-.12,0-.17-1,1.66,1.59,3.17,2.59,1.51h0Z"/><path class="d" d="m172.34,234.68c-2.64.11-5.2,1.2-7.03,3.13-.84.89-2.29,2.49-1.63,3.78.58,1.13,1.7,1.95,2.86,2.4,2.34.89,5.03.19,6.47-1.89s1.21-4.92-.36-6.88c-.87-1.08-2.52-.12-2.56,1.06-.11,3.14,1.23,6.55,4.05,8.17,2.6,1.5,6.11.84,8.03-1.48,2.44-2.96.7-6.59-2-8.64-2.38-1.81-5.47-2.65-8.44-2.5-3.46.18-6.83,1.6-9.18,4.18-1.29,1.43.82,3.56,2.12,2.12,2.9-3.2,7.84-4.23,11.81-2.52,1.62.7,4.34,2.47,3.84,4.58-.39,1.65-2.66,2.46-4.14,1.92-2.29-.84-3.17-3.61-3.09-5.83l-2.56,1.06c.85,1.05.53,2.91-.56,3.67-1.2.84-2.99.28-3.69-.92v1.51c1.2-2.28,3.47-3.81,6.07-3.91,1.92-.08,1.93-3.08,0-3h0Z"/><path class="d" d="m234.99,248.84c-4.44-.33-9.83-.24-12.26,4.21-.94,1.73-1.22,3.85-.31,5.65s2.73,2.83,4.64,3.21c3.54.7,8.03.14,10.78-2.38s2.16-6.85-1.15-8.54-7.36-1-10.2,1.17c-3.16,2.41-5.3,7.03-2.21,10.4,2.56,2.81,6.88,2.12,10.28,2.34,1.21.08,4.57.4,4.23,2.27-.18.97-1.34,1.71-2.1,2.18-1.04.65-2.13,1.21-3.29,1.6-2.19.74-5.01,1.08-6.97-.42-1.31-1-2.2-2.85-1.99-4.51.3-2.38,2.91-2.75,4.84-3.16,3.19-.67,6.38-1.33,9.57-2,1.57-.33,1.27-2.43,0-2.89-6.15-2.26-13.01-2.52-19.32-.7-2.35.68-6.18,1.86-5.5,5.08.53,2.47,3.59,3.3,5.76,3.44,1.93.12,1.92-2.88,0-3-.72-.04-3.82-.62-2.34-1.57.88-.57,2.09-.83,3.09-1.11,1.19-.33,2.4-.59,3.61-.77,4.69-.67,9.46-.09,13.9,1.53v-2.89c-2.55.53-5.11,1.07-7.66,1.6-2.18.45-4.67.71-6.53,2.03-2.83,2.01-2.98,5.79-1.46,8.67,1.88,3.57,5.86,4.72,9.66,4.1,2.11-.34,4.16-1.22,5.97-2.33,1.65-1,3.37-2.41,3.72-4.42.79-4.52-4.7-5.65-8.01-5.77-2.4-.09-7.63.59-8-2.92-.18-1.75,1.25-3.43,2.54-4.41s2.86-1.5,4.5-1.46c1.19.02,2.72.32,3.48,1.35.82,1.13.17,2.47-.82,3.21-1.46,1.1-3.49,1.49-5.28,1.53s-4.34-.08-5.13-1.95c-.74-1.74.72-3.77,2.18-4.59,2.31-1.3,5.25-.98,7.78-.79,1.93.14,1.92-2.86,0-3h0Z"/><path class="d" d="m246.16,295.77c-1.88-.16-3.82-.22-5.57.61-1.39.66-2.4,1.94-2.65,3.47s.18,3.24,1.6,4.09c1.83,1.1,3.9.17,5.45-.96,2.44-1.78,5.54-4.99,4.48-8.32-.29-.92-.97-2.07-2.05-2.1-.9-.03-1.79.39-2.47.94-1.25,1.01-1.87,2.63-2,4.2-.18,2.07.77,4.02.85,6.06.03.74-.1,1.41-.54,2.05-.17.24-.4.47-.61.6-.19.11-.44.15-.51.13l.66.39c-.75-.63-1.03-1.58-.62-2.38.37-.72.19-1.63-.54-2.05-.67-.39-1.68-.19-2.05.54-1,1.97-.7,5.03,1.39,6.25.97.57,2.45.19,3.33-.38.96-.62,1.63-1.56,2.05-2.61.95-2.33.04-4.71-.34-7.05-.15-.92-.16-1.74.22-2.59.12-.28.33-.6.58-.82.19-.17.45-.27.61-.28l-1.06-.44c.39.45.36.94.2,1.48-.2.68-.63,1.34-1.1,1.9-.54.65-1.16,1.25-1.83,1.77-.63.48-1.52,1.23-2.36,1.16-.49-.04.01-.02-.28-.13.19.07-.07-.16.04.04-.03-.06-.18-.39-.1-.15-.03-.09-.06-.19-.08-.28.01.15.01.14,0-.05-.02-.4-.02-.36.07-.68.08-.29.06-.21.15-.37.02-.04.26-.38.12-.21,1.05-1.31,3.49-.96,4.96-.83.81.07,1.5-.74,1.5-1.5,0-.87-.69-1.43-1.5-1.5h0Z"/><path class="d" d="m273.41,354c.08-4.51-1.96-9.35-5.64-12.09-1.83-1.36-4.24-.53-4.68,1.75s.68,4.03,2.37,5.32c1.95,1.48,4.52,1.98,6.88,1.34l-1.85-1.85c-.38,1.78-1.24,3.88-3.06,4.61-1.2.48-3.35-.34-3.26-1.74.04-.59.35-.92.8-1.17.61-.35,1.36-.54,2.16-.71,1.84-.39,3.7-.61,5.4-1.5,1.39-.73.65-2.73-.76-2.8-5.5-.26-10.78-2.1-15.31-5.22l.54,2.05c1.3-1.85,4.59-1.32,5.54.67.35.73,1.39.92,2.05.54.75-.44.89-1.32.54-2.05-1.97-4.13-8.21-4.27-10.72-.67-.49.7-.09,1.62.54,2.05,4.96,3.41,10.82,5.34,16.82,5.63l-.76-2.8c-2.88,1.51-7.6.58-9.35,4.06-1.04,2.08-.26,4.33,1.54,5.67s4.15,1.48,6.09.39c2.26-1.26,3.56-3.78,4.09-6.23.24-1.1-.69-2.16-1.85-1.85-1.53.42-3.24.07-4.46-.97-.48-.41-.99-1.01-1.07-1.49-.06-.4.03-.49.06-.84,0,.03.07-.02,0-.01,0,0-.27.14-.27.09,0-.03.73.56.73.56.37.35.73.72,1.06,1.11.63.74,1.15,1.59,1.59,2.47.88,1.76,1.28,3.71,1.24,5.66s2.97,1.93,3,0h0Z"/><path class="d" d="m230.24,399.17c1.93,0,1.93-3,0-3s-1.93,3,0,3h0Z"/><path class="d" d="m238.72,427.99c-5.61,4.7-11.08,9.57-16.39,14.6-1.06,1,.03,2.99,1.46,2.51,4.93-1.66,9.11-5.21,11.43-9.89.44-.89.07-1.89-.9-2.2-1.62-.52-3.3-.32-4.8.45-1.72.88-.2,3.47,1.51,2.59.81-.42,1.64-.42,2.49-.15l-.9-2.2c-1.97,3.98-5.42,7.09-9.64,8.51l1.46,2.51c5.31-5.03,10.78-9.9,16.39-14.6.62-.52.54-1.58,0-2.12-.62-.62-1.5-.52-2.12,0h0Z"/><path class="d" d="m390.2,372.15c-2.2.38-4.58.96-5.98,2.85-1.16,1.58-1.37,3.97-.08,5.54,1.46,1.78,3.95,1.53,5.62.21,1.97-1.55,2.31-3.86,2.59-6.21.13-1.07.25-2.27.98-3.12.46-.53,1.19-1.09,1.85-.69,1.08.65,2.63-.44,2.2-1.69-.82-2.42-2.32-4.61-4.49-6.01-1.97-1.27-4.64-1.71-6.76-.56-3.44,1.85-4.86,7.67-1,9.86,1.68.95,3.2-1.64,1.51-2.59-.79-.45-.99-1.27-.77-2.2.26-1.08.88-2.09,1.92-2.56,1.11-.5,2.72.03,3.78.77,1.38.98,2.38,2.5,2.91,4.09l2.2-1.69c-2.2-1.33-4.75-.04-6.08,1.9-.76,1.11-1,2.45-1.18,3.75-.15,1.15-.17,2.47-.68,3.53-.3.62-.94,1.36-1.64,1.5s-.91-.46-.87-1c.16-2.16,3.09-2.51,4.74-2.8.8-.14,1.25-1.12,1.05-1.85-.23-.84-1.04-1.19-1.85-1.05h0Z"/><path class="d" d="m330.49,327.4c1.98-.82,4.61-1.78,6.71-.8.65.31,1.04.74,1.38,1.34.2.36.25.48.35.93.02.1.05.21.06.31,0-.04-.02-.18-.01,0,0,.08-.03.67,0,.44-.03.19-.08.4-.16.58.11-.25-.19.27-.1.15-.11.15-.48.44-.75.54-.82.3-1.81.05-2.66-.21-1.02-.31-1.98-.78-2.98-1.15-.9-.33-1.86-.51-2.82-.57-2.26-.14-4.45.78-5.24,3.03-.24.7.22,1.51.87,1.77s1.58.08,1.87-.61c.81-1.91,2.84-3.04,4.78-2.57s2.68-2.44.8-2.89c-3.2-.78-6.86.86-8.17,3.95l2.74,1.16c.13-.37.05-.1.03-.07.06-.08.09-.17.15-.25-.13.18.01,0,.04-.03.3-.31-.12.06.08-.08.08-.05.16-.1.25-.15.21-.12-.18.06.05-.03.21-.08.44-.14.67-.18.62-.12,1.58-.01,2.38.21,2.21.6,4.28,2.01,6.72,1.81s4.44-2.05,4.45-4.59c0-2.14-1.3-4.36-3.2-5.36-2.88-1.51-6.26-.73-9.1.45-.75.31-1.28.99-1.05,1.85.19.71,1.09,1.36,1.85,1.05h0Z"/><path class="d" d="m432.9,421.43c.35,2.81.84,5.81,3.33,7.56s5.42,1.11,7.02-1.35c2.07-3.17,2.4-9.38-1.72-11.15-2.15-.92-4.47-.11-5.84,1.71-1.3,1.72-1.79,4.04-1.77,6.16s.61,4.36.3,6.56c-.24,1.68-1.3,3.46-3.23,3.02-2.11-.48-3.44-2.7-2.83-4.76.72-2.45,3.25-3.9,5.63-4.32.8-.14,1.25-1.12,1.05-1.85-.23-.84-1.04-1.19-1.85-1.05-4.45.77-9.19,5.11-7.78,10.01,1.23,4.27,7.13,7.01,10.39,3.15,1.5-1.77,1.78-4.15,1.69-6.39-.08-2.05-.61-4.12-.21-6.17.17-.87.43-1.74.93-2.47.37-.54.87-.93,1.4-1,.35-.04.65-.01.99.14.12.05.42.27.57.46.41.49.64,1.25.72,1.93.12.98.01,1.99-.28,2.93-.27.87-.81,2.18-1.79,2.39s-2.01-.52-2.53-1.3c-.82-1.23-1.01-2.81-1.19-4.24-.1-.8-.62-1.5-1.5-1.5-.73,0-1.6.69-1.5,1.5h0Z"/><path class="d" d="m355.61,252.47c-.35-.28-.06-1.24-.04-1.66.04-.71-.04-1.37-.33-2.01-.49-1.08-1.45-1.86-2.55-2.28-2.54-.97-5.38.39-5.84,3.15-.43,2.57,1.32,5.34,3.97,5.69,3.1.41,5.83-2.38,5.79-5.41l-2.56,1.06c1.78,1.78,3.56,3.56,5.34,5.34.64.64,1.93.58,2.36-.3,1.54-3.24-.39-6.78-3.46-8.27s-6.27-.96-9.15.32c-6.93,3.07-9.39,10.73-14.92,15.4-1.48,1.25.65,3.36,2.12,2.12,2.29-1.93,4.05-4.34,5.79-6.76s3.35-4.82,5.68-6.54c2.01-1.49,4.61-2.64,7.17-2.4,1.98.18,5.34,2.16,4.18,4.61l2.36-.3c-1.78-1.78-3.56-3.56-5.34-5.34-.91-.91-2.58-.25-2.56,1.06s-1.49,3.12-2.93,2.25c-.82-.49-1.33-2.08-.5-2.77.72-.6,2.14-.09,2.4.77.18.61-.13,1.46-.11,2.1.03.89.32,1.74,1.03,2.3,1.5,1.18,3.64-.93,2.12-2.12h0Z"/><path class="d" d="m299.41,283.41c1.91-2.18,3.85-4.57,4.04-7.59.16-2.54-1.58-4.94-3.95-5.77-2.51-.88-5.17.77-5.47,3.42-.28,2.49,1.48,4.95,3.32,6.44,2.68,2.17,6.08,3.64,9.36,4.63v-2.89c-5.34,1.19-11.02.43-15.86-2.12-1.71-.9-3.22,1.69-1.51,2.59,5.57,2.94,12.02,3.8,18.17,2.43,1.5-.34,1.35-2.48,0-2.89-2.79-.85-5.62-2.07-7.97-3.82-1.08-.8-3.29-3.07-2.38-4.53s2.91.37,3.23,1.56c.63,2.35-1.69,4.83-3.09,6.42-1.27,1.45.84,3.58,2.12,2.12h0Z"/></svg>