<?xml version="1.0" encoding="UTF-8"?><svg id="b" xmlns="http://www.w3.org/2000/svg" width="337.94" height="148" viewBox="0 0 337.94 148"><defs><style>.d{fill:#fff;}.e{fill:#dbcab4;}.f{fill:#354235;}</style></defs><rect class="d" width="337.94" height="148" rx="12" ry="12"/><rect class="e" x="11.06" y="8" width="314" height="131" rx="12" ry="12"/><circle class="d" cx="295.29" cy="118.28" r="3.28"/><circle class="d" cx="59.48" cy="34.71" r="3.28"/><path class="f" d="m46.15,83.63c1.52-.14,2.47-.44,2.85-.9s.57-1.51.57-3.16v-17.32c0-1.39-.21-2.31-.63-2.75-.42-.44-1.35-.72-2.78-.84v-.74h10.55c3.39,0,5.98.66,7.77,1.97,1.8,1.32,2.7,3.05,2.7,5.2,0,2.72-1,4.69-2.99,5.92-1.99,1.22-4.49,1.84-7.48,1.84-.43,0-.98,0-1.65-.03s-1.17-.03-1.49-.03v7.27c0,1.5.23,2.45.69,2.84.46.39,1.49.64,3.1.76v.74h-11.19v-.74Zm13.5-23.5c-1.13-.49-2.57-.74-4.3-.74-.82,0-1.33.08-1.51.24-.19.16-.28.52-.28,1.08v10.43c.72.07,1.18.1,1.41.12.22.01.44.02.64.02,1.84,0,3.28-.26,4.34-.78,1.91-.95,2.87-2.73,2.87-5.33,0-2.45-1.05-4.13-3.16-5.04Z"/><path class="f" d="m68.2,83.63c1.47-.16,2.42-.42,2.86-.79s.65-1.3.65-2.81v-17.79c0-1.42-.21-2.35-.64-2.78-.43-.44-1.39-.71-2.87-.81v-.74h11.29v.74c-1.47.08-2.46.32-2.96.72-.5.4-.75,1.27-.75,2.6v19.22c0,.44.08.79.22,1.04.15.25.48.41.99.48.3.04.62.07.95.08.33.01.96.02,1.87.02,3.56,0,5.96-.29,7.22-.88s2.46-2.08,3.64-4.49h1.02l-1.96,6.93h-21.52v-.74Z"/><path class="f" d="m92.78,84.37v-.74c1.03-.12,1.8-.5,2.31-1.16.51-.66,1.4-2.46,2.64-5.4l8.33-19.63h.8l9.97,22.68c.66,1.5,1.19,2.43,1.59,2.79.4.36,1.06.6,2,.73v.74h-10.17v-.74c1.17-.1,1.92-.23,2.26-.38.34-.15.51-.51.51-1.1,0-.19-.07-.54-.2-1.03-.13-.49-.31-1.01-.55-1.56l-1.6-3.85h-10.54c-1.04,2.62-1.66,4.21-1.86,4.79-.2.58-.3,1.03-.3,1.37,0,.67.27,1.14.82,1.4.34.16.97.27,1.91.35v.74h-7.93Zm17.23-10.27l-4.58-11.02-4.61,11.02h9.19Z"/><path class="f" d="m129.47,57.91v.74c-.94-.03-1.64.05-2.11.21-.47.17-.7.53-.7,1.09,0,.17.04.38.12.63s.25.59.53,1.01l5.89,8.63,5.74-8.77c.23-.38.39-.69.46-.94.07-.25.11-.43.11-.55,0-.57-.31-.95-.92-1.13-.37-.12-.99-.18-1.88-.2v-.74h8.74v.74c-.81.04-1.53.28-2.16.72-.99.69-2.1,1.97-3.33,3.85l-5.91,9.02v7.78c0,1.55.25,2.51.75,2.9.5.38,1.62.62,3.37.71v.74h-12.21v-.74c1.81-.1,2.93-.37,3.37-.81s.65-1.52.65-3.27v-6.94l-5.23-7.68c-1.81-2.64-3.08-4.34-3.81-5.09-.73-.75-1.61-1.15-2.66-1.2v-.74h11.19Z"/><path class="f" d="m153.23,84.37v-.74c1.03-.12,1.8-.5,2.31-1.16.51-.66,1.4-2.46,2.64-5.4l8.33-19.63h.8l9.97,22.68c.66,1.5,1.19,2.43,1.59,2.79.4.36,1.06.6,2,.73v.74h-10.17v-.74c1.17-.1,1.92-.23,2.26-.38.34-.15.51-.51.51-1.1,0-.19-.07-.54-.2-1.03-.13-.49-.31-1.01-.55-1.56l-1.6-3.85h-10.54c-1.04,2.62-1.66,4.21-1.86,4.79-.2.58-.3,1.03-.3,1.37,0,.67.27,1.14.82,1.4.34.16.97.27,1.91.35v.74h-7.93Zm17.23-10.27l-4.58-11.02-4.61,11.02h9.19Z"/><path class="f" d="m200.9,58.08c1.5.43,2.36.64,2.58.64.57,0,.98-.11,1.22-.33.24-.22.45-.54.62-.96h.88l.31,8.42h-.92c-.82-1.94-1.67-3.38-2.54-4.34-1.58-1.67-3.63-2.5-6.15-2.5s-4.82.97-6.77,2.92c-1.95,1.95-2.92,5.15-2.92,9.62,0,3.69.97,6.56,2.91,8.63s4.34,3.11,7.19,3.11c.48,0,1.05-.04,1.7-.14.65-.09,1.27-.23,1.86-.43.95-.31,1.54-.58,1.78-.81.23-.23.35-.56.35-1v-6.37c0-1.54-.22-2.51-.65-2.89-.44-.38-1.39-.62-2.86-.71v-.74h10.2v.74c-.99.07-1.65.23-1.97.49-.55.42-.82,1.28-.82,2.58v7.87c0,.47-1.15,1.09-3.45,1.88s-4.51,1.17-6.63,1.17c-3.91,0-7.2-1.14-9.88-3.42-2.96-2.51-4.43-5.88-4.43-10.12,0-3.72,1.18-6.91,3.54-9.57,2.59-2.93,6.03-4.39,10.31-4.39,1.55,0,3.07.21,4.57.64Z"/><path class="f" d="m211,84.37v-.74c1.03-.12,1.8-.5,2.31-1.16.51-.66,1.4-2.46,2.64-5.4l8.33-19.63h.8l9.97,22.68c.66,1.5,1.19,2.43,1.59,2.79.4.36,1.06.6,2,.73v.74h-10.17v-.74c1.17-.1,1.92-.23,2.26-.38.34-.15.51-.51.51-1.1,0-.19-.07-.54-.2-1.03-.13-.49-.31-1.01-.55-1.56l-1.6-3.85h-10.54c-1.04,2.62-1.66,4.21-1.86,4.79-.2.58-.3,1.03-.3,1.37,0,.67.27,1.14.82,1.4.34.16.97.27,1.91.35v.74h-7.93Zm17.23-10.27l-4.58-11.02-4.61,11.02h9.19Z"/><path class="f" d="m239.94,83.63c1.63-.12,2.68-.36,3.16-.73s.72-1.32.72-2.87v-17.79c0-1.47-.24-2.42-.72-2.84-.48-.42-1.54-.67-3.16-.75v-.74h11.84v.74c-1.63.08-2.68.33-3.16.75-.48.42-.72,1.37-.72,2.84v17.79c0,1.54.24,2.5.72,2.87s1.54.61,3.16.73v.74h-11.84v-.74Z"/><path class="f" d="m253.07,83.63c1.65-.17,2.71-.54,3.18-1.12s.7-1.92.7-4.03v-17.62l-.55-.64c-.59-.69-1.08-1.12-1.49-1.28-.41-.16-1.03-.26-1.85-.28v-.74h6.83l15.44,19.14v-13.29c0-2.19-.33-3.61-.98-4.27-.43-.43-1.38-.71-2.85-.83v-.74h9.39v.74c-1.52.16-2.54.53-3.05,1.11s-.76,1.93-.76,4.02v21.05h-.68l-17.7-21.93v15.57c0,2.19.32,3.61.96,4.27.42.43,1.35.72,2.79.88v.74h-9.39v-.74Z"/><path class="d" d="m208.1,122.49c19.78,2.27,40.05.07,58.9-6.34,5.33-1.81,10.54-3.97,15.61-6.43,1.74-.84.22-3.43-1.51-2.59-17.57,8.52-37.01,13.04-56.52,13.23-5.5.05-11-.25-16.47-.87-1.91-.22-1.9,2.78,0,3h0Z"/><path class="d" d="m129.23,23.92c23.28-.77,46.58-1.21,69.88-1.31,23.13-.11,46.26.11,69.39.66,13.14.31,26.28.73,39.42,1.25,2.35.09,4.61-2.14,4.5-4.5-.11-2.52-1.98-4.4-4.5-4.5-23.28-.92-46.57-1.51-69.87-1.78-23.13-.26-46.26-.19-69.39.2-13.14.22-26.29.55-39.43.98-2.35.08-4.61,2.01-4.5,4.5s1.98,4.58,4.5,4.5h0Z"/><path class="d" d="m37.49,28.75c-2.37,4.74-4.18,9.74-5.35,14.9-.43,1.88,2.47,2.68,2.89.8,1.11-4.92,2.79-9.68,5.04-14.19.36-.72.19-1.62-.54-2.05-.66-.39-1.69-.19-2.05.54h0Z"/><circle class="d" cx="70.11" cy="45.67" r="6.53"/><path class="d" d="m25.81,108.82c18.65,4.6,37.5,8.36,56.49,11.29,19.44,2.99,39.01,5.16,58.64,6.47,10.99.73,22,1.18,33.01,1.38,2.35.04,4.61-2.1,4.5-4.5s-1.98-4.46-4.5-4.5c-19.42-.34-38.82-1.5-58.13-3.51-4.81-.5-9.61-1.05-14.41-1.66-1.12-.14-2.24-.28-3.35-.43-.24-.03-.48-.06-.72-.09-.09-.01-1.07-.14-.6-.08.41.06-.37-.05-.36-.05-.4-.05-.8-.11-1.2-.16-2.39-.33-4.77-.67-7.16-1.02-9.5-1.41-18.97-3.03-28.41-4.87-10.53-2.04-21.01-4.35-31.42-6.93-2.28-.56-4.99.73-5.54,3.14s.7,4.93,3.14,5.54h0Z"/></svg>