<?xml version="1.0" encoding="UTF-8"?><svg id="b" xmlns="http://www.w3.org/2000/svg" width="337.94" height="148" viewBox="0 0 337.94 148"><defs><style>.d{fill:#fff;}.e{fill:#dbcab4;}.f{fill:#354235;}</style></defs><rect class="d" x="-.15" y="-.15" width="337.94" height="148" rx="12" ry="12"/><rect class="e" x="10.91" y="7.85" width="314" height="131" rx="12" ry="12"/><path class="f" d="m77.82,95c2.75-.26,4.46-.8,5.14-1.63.68-.83,1.02-2.73,1.02-5.7v-31.25c0-2.51-.38-4.17-1.14-4.97-.76-.8-2.44-1.3-5.02-1.51v-1.34h19.02c6.11,0,10.78,1.19,14.02,3.56,3.24,2.37,4.86,5.5,4.86,9.37,0,4.91-1.8,8.47-5.39,10.67-3.59,2.21-8.09,3.31-13.49,3.31-.78,0-1.77-.02-2.98-.05-1.21-.04-2.11-.05-2.7-.05v13.1c0,2.71.42,4.42,1.25,5.12.83.7,2.69,1.16,5.58,1.37v1.34h-20.19v-1.34Zm24.34-42.38c-2.04-.89-4.63-1.34-7.75-1.34-1.48,0-2.39.15-2.73.44-.34.29-.51.95-.51,1.96v18.81c1.29.12,2.14.19,2.54.21s.79.04,1.16.04c3.31,0,5.92-.47,7.82-1.41,3.45-1.71,5.18-4.92,5.18-9.62,0-4.42-1.9-7.44-5.71-9.09Z"/><path class="f" d="m117.59,95c2.65-.28,4.37-.75,5.16-1.42.79-.67,1.18-2.35,1.18-5.06v-32.09c0-2.56-.39-4.23-1.16-5.02-.77-.79-2.5-1.27-5.18-1.46v-1.34h20.36v1.34c-2.65.14-4.43.58-5.34,1.3-.9.73-1.36,2.29-1.36,4.68v34.66c0,.8.13,1.43.41,1.88s.86.75,1.78.86c.54.07,1.11.12,1.71.14s1.72.04,3.37.04c6.42,0,10.76-.53,13.01-1.58,2.26-1.06,4.44-3.76,6.56-8.1h1.83l-3.53,12.51h-38.82v-1.34Z"/><path class="f" d="m161.92,96.34v-1.34c1.85-.21,3.25-.91,4.17-2.09.93-1.19,2.52-4.43,4.77-9.74l15.03-35.41h1.44l17.98,40.9c1.2,2.71,2.15,4.38,2.87,5.03.72.64,1.92,1.08,3.61,1.31v1.34h-18.35v-1.34c2.11-.19,3.47-.42,4.08-.68s.92-.93.92-1.98c0-.35-.12-.97-.35-1.86-.24-.89-.56-1.82-.99-2.8l-2.89-6.94h-19.01c-1.87,4.72-2.99,7.6-3.36,8.64s-.55,1.86-.55,2.47c0,1.22.49,2.06,1.48,2.52.61.28,1.76.49,3.45.63v1.34h-14.3Zm31.07-18.53l-8.27-19.87-8.31,19.87h16.57Z"/><path class="f" d="m228.1,48.61v1.34c-1.69-.05-2.96.08-3.8.39-.85.3-1.27.96-1.27,1.97,0,.31.07.69.21,1.14s.46,1.06.95,1.81l10.62,15.57,10.36-15.82c.42-.68.7-1.24.83-1.69s.19-.78.19-.99c0-1.03-.55-1.71-1.65-2.04-.66-.21-1.79-.33-3.38-.35v-1.34h15.76v1.34c-1.45.07-2.75.5-3.9,1.3-1.78,1.24-3.79,3.56-6.01,6.94l-10.66,16.28v14.03c0,2.79.45,4.53,1.36,5.22s2.93,1.12,6.08,1.28v1.34h-22.02v-1.34c3.26-.19,5.29-.67,6.08-1.46.79-.79,1.18-2.75,1.18-5.89v-12.52l-9.44-13.84c-3.26-4.77-5.55-7.83-6.87-9.18-1.32-1.35-2.91-2.07-4.79-2.17v-1.34h20.19Z"/><rect class="d" x="294.64" y="37.94" width="5.74" height="71.22" rx="1.5" ry="1.5"/><circle class="d" cx="295.13" cy="118.13" r="3.28"/><rect class="d" x="79.35" y="59.3" width="5.44" height="123.66" rx="1.5" ry="1.5" transform="translate(203.2 39.05) rotate(90)"/><circle class="d" cx="59.32" cy="34.55" r="3.28"/><path class="d" d="m99.08,27.33c9.09-1.35,17.77-2.45,27.3-3.44,9.28-.96,18.58-1.71,27.89-2.26,18.79-1.11,37.63-1.38,56.44-.82,10.55.31,21.09.9,31.62,1.73,2.35.19,4.6-2.2,4.5-4.5-.12-2.6-1.98-4.3-4.5-4.5-18.84-1.5-37.75-2.17-56.65-1.99-18.9.18-37.8,1.2-56.61,3.07-10.82,1.07-21.62,2.43-32.38,4.03-2.34.35-3.83,3.42-3.14,5.54.83,2.55,3.03,3.52,5.54,3.14h0Z"/><path class="d" d="m186.77,132.37c15.05-3.49,29.68-8.71,43.54-15.53,3.95-1.94,7.82-4.02,11.63-6.21,1.67-.96.16-3.56-1.51-2.59-13.23,7.62-27.3,13.72-41.93,18.11-4.14,1.24-8.32,2.35-12.53,3.32-1.88.44-1.08,3.33.8,2.89h0Z"/><path class="d" d="m32.76,33.92c-2.07,7.75-3.5,15.65-4.35,23.63-.17,1.61,1.5,3,3,3,1.77,0,2.83-1.38,3-3,.8-7.44,2.21-14.81,4.14-22.04,1-3.73-4.79-5.33-5.79-1.6h0Z"/><circle class="d" cx="41.14" cy="70.59" r="8.86"/><circle class="d" cx="279.21" cy="98.55" r="2.69"/><circle class="d" cx="264.28" cy="128.14" r="7.27"/></svg>