<?xml version="1.0" encoding="UTF-8"?><svg id="b" xmlns="http://www.w3.org/2000/svg" width="1366" height="767" xmlns:xlink="http://www.w3.org/1999/xlink" viewBox="0 0 1366 767"><defs><style>.d{fill:#f095b3;}.e{fill:#f4840b;}.f{fill:#fff5ea;}.g{fill:#a0876e;}.h{fill:#ba907f;}.i{fill:#af9479;}.j{fill:#dab994;}.k{fill:#d6a964;}.l{fill:#354235;}.m{fill:#775c4a;}.n{fill:#fff;stroke:#efba73;stroke-miterlimit:10;}</style></defs><rect class="d" x="1" y="1" width="1366" height="767"/><rect class="f" x="68" y="60" width="1232" height="661"/><path class="e" d="m1139.09,166.06c-15.65,5.31-32.34-.47-48.25-1.14-6.55-.28-12.83.9-18.79,3.67-4.92,2.29-9.88,5.72-12.7,10.48-2.89,4.87-2.17,10.27,1.94,14.17.37.35.96.57,1.46.39,13.4-4.91,27.24-9.89,38.9-18.33,9.58-6.94,17.28-16.38,18.12-28.58.77-11.15-5.18-21.33-15.36-25.99-5.8-2.65-12.11-3.8-18.14-5.75-5.37-1.74-11.62-4.54-13.47-10.38s1.32-11.49,4.88-15.69c4.27-5.04,9.76-8.62,15.7-11.38,11.45-5.33,24.22-7.71,36.81-7.81s25.42,2.12,37.17,6.89c5.52,2.24,10.81,5.11,15.64,8.6,4.67,3.37,12.82,9.36,7.43,15.48-2.42,2.75-5.74,4.6-8.79,6.55-3.64,2.33-7.29,4.65-10.94,6.97-7.31,4.64-14.63,9.26-21.97,13.86-14.61,9.16-29.26,18.23-43.98,27.21-3.71,2.26-7.42,4.52-11.13,6.78-1.08.66-.91,2.41.36,2.74,23.16,6.06,46.52,12.65,67.9,23.64,19.24,9.9,37.28,23.95,46.64,43.97,4.11,8.79,6.2,18.67,4.9,28.35-1.28,9.6-5.84,20.14-15.52,23.79-10.71,4.04-22.18-1.2-30.73-7.65-4.55-3.43-8.52-7.58-12.34-11.79-4.03-4.45-7.84-9.1-11.42-13.92-13.79-18.58-24.17-39.33-33.99-60.2-1.22-2.59-2.43-5.19-3.64-7.78-.47-1.02-2.09-.94-2.59,0-8.22,15.62-16.57,31.17-25.56,46.36-9.13,15.45-18.92,30.54-29.78,44.83-10.95,14.41-23.04,27.99-36.46,40.14-13.81,12.49-29.05,23.38-45.49,32.15-8.55,4.56-17.43,8.73-26.61,11.89s-19.72,5.53-29.76,4.3c-9.33-1.14-17.71-6.03-21.91-14.63-3.73-7.63-3.75-16.67-2.04-24.84,3.61-17.22,15.41-31.38,28.29-42.76,14.8-13.08,31.89-23.43,49.18-32.84,21.02-11.45,42.41-22.23,63.9-32.75,21.79-10.66,43.73-20.99,65.7-31.27,5.35-2.5,10.71-5,16.06-7.5,1.52-.71.52-2.63-.76-2.8-30.3-4.01-60.36-9.93-89.91-17.74s-57.18-17.03-84.8-28.29c-15.44-6.29-30.64-13.18-45.55-20.64v2.59c23.68-13.22,52.71-14.17,78.78-8.84,28.09,5.74,53.3,19.8,75.9,37.08,12.76,9.76,24.73,20.48,36.67,31.21,1.43,1.29,3.56-.83,2.12-2.12-21.72-19.51-43.83-39.03-69.74-52.85-24.99-13.33-53.32-20.79-81.75-19.06-15.13.92-30.19,4.57-43.49,11.99-.94.53-1.01,2.08,0,2.59,26.64,13.32,54.19,24.81,82.36,34.47,28.81,9.88,58.26,17.87,88.09,23.99,17,3.48,34.12,6.34,51.32,8.62l-.76-2.8c-22.57,10.54-45.15,21.07-67.59,31.89-22.23,10.72-44.34,21.71-66.16,33.25-18.44,9.75-36.76,19.9-53.28,32.73-14.28,11.09-27.87,24.61-34.66,41.7-6.15,15.49-6.46,36.65,8.66,47.16,8.03,5.57,18.36,6.47,27.81,5.33,10.17-1.23,19.8-4.62,29.17-8.66,17.82-7.68,34.52-17.78,49.76-29.78s27.74-24.69,39.62-38.93c11.76-14.09,22.31-29.16,32.04-44.71,9.67-15.46,18.55-31.41,27.14-47.49,2.04-3.81,4.06-7.63,6.07-11.46h-2.59c10.24,21.94,20.64,43.98,34.63,63.84,6.91,9.81,14.63,19.59,23.66,27.54,8.16,7.19,18.94,13.57,30.2,12.81s19.08-8.68,22.6-18.89c3.29-9.55,3.18-19.96.42-29.62-6.13-21.45-23.23-38.01-41.83-49.26-21.22-12.83-45.25-20.35-69.03-26.82-3.02-.82-6.04-1.62-9.07-2.41l.36,2.74c30.45-18.48,60.75-37.23,90.69-56.54,5.13-3.31,11.75-8.33,8.71-15.27-1.39-3.17-4.14-5.58-6.77-7.72-2.33-1.89-4.77-3.64-7.32-5.22-10.78-6.69-23.17-10.6-35.7-12.27s-26.18-1.08-38.77,2.22c-12.32,3.23-25.26,9.02-32.66,19.86-3.14,4.59-5.22,10.57-3.28,16.06,2.04,5.76,7.36,9.1,12.81,11.18,6.11,2.33,12.64,3.36,18.71,5.79,5.45,2.19,10.11,5.88,12.8,11.17,5.11,10,1.96,22.52-5.19,30.67-9.59,10.94-23.59,17.12-36.87,22.29-3.43,1.33-6.88,2.61-10.33,3.87l1.46.39c-8.59-8.17,4.11-17.39,11.19-20.41,13.05-5.57,27.45-1.43,40.94-.03,8.15.84,16.5.93,24.34-1.73,1.82-.62,1.04-3.52-.8-2.89h0Z"/><rect class="g" x="332.78" y="597.96" width="195.54" height="102.51"/><rect class="j" x="326.42" y="678.72" width="208.26" height="43.49"/><rect class="j" x="326.42" y="588.64" width="208.26" height="43.49"/><rect class="j" x="327.13" y="633.26" width="208.26" height="43.49"/><rect class="m" x="132.82" y="463.1" width="192.07" height="100.45"/><rect class="k" x="126.57" y="542.24" width="204.56" height="42.61"/><rect class="k" x="126.57" y="453.97" width="204.56" height="42.61"/><rect class="k" x="125.3" y="497.69" width="204.56" height="42.61"/><rect class="i" x="101.13" y="594.04" width="201.71" height="105.74"/><rect class="j" x="94.57" y="677.35" width="214.83" height="44.86"/><rect class="j" x="94.57" y="584.43" width="214.83" height="44.86"/><rect class="j" x="94.23" y="630.45" width="214.83" height="44.86"/><rect class="n" x="342.74" y="455.5" width="111.61" height="133.22"/><rect class="g" x="229.36" y="330.84" width="195.54" height="102.51"/><rect class="j" x="223" y="411.6" width="208.26" height="43.49"/><path class="h" d="m431.26,454.34h-205.11c-.91,0-1.9-.11-2.8,0-.11.01-.24,0-.35,0l.75.75v-43.49l-.75.75h205.11c.91,0,1.9.11,2.8,0,.11-.01.24,0,.35,0l-.75-.75v43.49c0,.97,1.5.97,1.5,0v-43.49c0-.41-.34-.75-.75-.75h-199.77c-2.71,0-5.43-.06-8.14,0-.12,0-.24,0-.35,0-.41,0-.75.34-.75.75v43.49c0,.41.34.75.75.75h199.77c2.71,0,5.43.06,8.14,0,.12,0,.24,0,.35,0,.97,0,.97-1.5,0-1.5Z"/><rect class="j" x="223" y="317" width="208.26" height="43.49"/><path class="h" d="m431.26,359.74h-205.11c-.91,0-1.9-.11-2.8,0-.11.01-.24,0-.35,0l.75.75v-43.49l-.75.75h205.11c.91,0,1.9.11,2.8,0,.11-.01.24,0,.35,0l-.75-.75v43.49c0,.97,1.5.97,1.5,0v-43.49c0-.41-.34-.75-.75-.75h-199.77c-2.71,0-5.43-.06-8.14,0-.12,0-.24,0-.35,0-.41,0-.75.34-.75.75v43.49c0,.41.34.75.75.75h199.77c2.71,0,5.43.06,8.14,0,.12,0,.24,0,.35,0,.97,0,.97-1.5,0-1.5Z"/><rect class="j" x="222.7" y="364.12" width="208.26" height="43.49"/><path class="h" d="m430.96,406.86h-205.11c-.91,0-1.9-.11-2.8,0-.11.01-.24,0-.35,0l.75.75v-43.49l-.75.75h205.11c.91,0,1.9.11,2.8,0,.11-.01.24,0,.35,0l-.75-.75v43.49c0,.97,1.5.97,1.5,0v-43.49c0-.41-.34-.75-.75-.75h-199.77c-2.71,0-5.43-.06-8.14,0-.12,0-.24,0-.35,0-.41,0-.75.34-.75.75v43.49c0,.41.34.75.75.75h199.77c2.71,0,5.43.06,8.14,0,.12,0,.24,0,.35,0,.97,0,.97-1.5,0-1.5Z"/><image width="550" height="556" transform="translate(351.81 481.32) scale(.15)" xlink:href="../../../../Documents/Celeste Vin/Celeste Vin logo-kopi 2.png"/><path class="l" d="m556.2,229.19c.68,1.8,1.47,3.23,2.38,4.3,1.59,1.86,3.56,2.79,5.91,2.79,1.27,0,2.38-.4,3.31-1.21.93-.81,1.39-1.93,1.39-3.38,0-1.3-.47-2.43-1.4-3.4-.61-.61-1.9-1.53-3.86-2.75l-3.41-2.13c-1.03-.65-1.85-1.31-2.46-1.97-1.13-1.26-1.7-2.66-1.7-4.18,0-2.02.67-3.7,2.01-5.04,1.34-1.34,3.12-2.01,5.33-2.01.91,0,2.01.22,3.29.67s2.01.67,2.2.67c.5,0,.84-.12,1.03-.35s.33-.57.44-1h.82l.88,8.52h-.96c-.65-2.56-1.7-4.36-3.13-5.37s-2.86-1.52-4.27-1.52c-1.09,0-2.05.32-2.86.97s-1.22,1.54-1.22,2.69c0,1.03.31,1.91.94,2.64.62.74,1.59,1.52,2.91,2.32l3.51,2.17c2.2,1.35,3.75,2.6,4.65,3.73.89,1.15,1.33,2.5,1.33,4.06,0,2.1-.79,3.85-2.37,5.25s-3.6,2.11-6.06,2.11c-1.24,0-2.53-.23-3.88-.7s-2.12-.7-2.31-.7c-.47,0-.78.14-.95.43-.16.29-.27.59-.32.92h-.88l-1.19-8.52h.92Z"/><path class="l" d="m576.32,236.5c1.47-.16,2.42-.42,2.86-.79s.65-1.3.65-2.81v-17.79c0-1.42-.21-2.35-.64-2.78-.43-.44-1.39-.71-2.87-.81v-.74h21.25l.14,5.72h-1.02c-.34-1.76-.85-2.9-1.52-3.42-.68-.52-2.19-.78-4.53-.78h-5.45c-.59,0-.95.09-1.09.28-.14.19-.21.54-.21,1.06v8.93h6.17c1.71,0,2.79-.25,3.26-.76s.85-1.53,1.13-3.07h.94v9.24h-.94c-.3-1.55-.68-2.57-1.15-3.08-.47-.5-1.55-.75-3.24-.75h-6.17v9.9c0,.79.25,1.26.75,1.41.5.14,2,.21,4.51.21,2.71,0,4.71-.3,6-.89,1.29-.59,2.45-2.03,3.48-4.31h1.11l-1.82,6.76h-21.62v-.74Z"/><path class="l" d="m601.01,236.5c1.61-.09,2.65-.34,3.12-.75.47-.41.71-1.36.71-2.85v-17.79c0-1.47-.24-2.42-.71-2.84-.47-.42-1.51-.67-3.12-.75v-.74h11.2c3.2,0,5.74.51,7.62,1.54,1.88,1.03,2.82,2.8,2.82,5.32,0,1.89-.66,3.32-1.97,4.3-.74.56-1.86,1.02-3.34,1.39,1.84.44,3.41,1.18,4.71,2.21,1.3,1.03,1.95,2.48,1.95,4.34,0,3.12-1.44,5.27-4.33,6.44-1.52.61-3.4.92-5.62.92h-13.04v-.74Zm15.04-14.51c1.69-.78,2.54-2.19,2.54-4.21,0-2.39-.98-4-2.93-4.83-1.08-.46-2.72-.68-4.92-.68-.83,0-1.35.07-1.54.22-.2.14-.29.54-.29,1.17v9.04l3.81-.06c1.34-.03,2.45-.24,3.34-.65Zm1.29,12.62c1.38-.79,2.07-2.32,2.07-4.57s-.81-3.77-2.42-4.59-3.67-1.23-6.17-1.23h-1.16c-.16,0-.41,0-.75-.02v9.96c0,.69.2,1.14.59,1.34.39.2,1.3.3,2.71.3,2.04,0,3.76-.4,5.14-1.19Z"/><path class="l" d="m627.57,237.24v-.74c1.03-.12,1.8-.5,2.31-1.16.51-.66,1.4-2.46,2.64-5.4l8.33-19.63h.8l9.97,22.68c.66,1.5,1.19,2.43,1.59,2.79.4.36,1.06.6,2,.73v.74h-10.17v-.74c1.17-.1,1.92-.23,2.26-.38.34-.15.51-.52.51-1.1,0-.19-.07-.54-.2-1.03-.13-.49-.31-1.01-.55-1.56l-1.6-3.85h-10.54c-1.04,2.62-1.66,4.21-1.86,4.79-.2.58-.3,1.03-.3,1.37,0,.67.27,1.14.82,1.4.34.16.97.27,1.91.35v.74h-7.93Zm17.23-10.27l-4.58-11.02-4.61,11.02h9.19Z"/><path class="l" d="m658.45,229.19c.68,1.8,1.47,3.23,2.38,4.3,1.59,1.86,3.56,2.79,5.91,2.79,1.27,0,2.38-.4,3.31-1.21.93-.81,1.39-1.93,1.39-3.38,0-1.3-.47-2.43-1.4-3.4-.61-.61-1.9-1.53-3.86-2.75l-3.41-2.13c-1.03-.65-1.85-1.31-2.46-1.97-1.13-1.26-1.7-2.66-1.7-4.18,0-2.02.67-3.7,2.01-5.04,1.34-1.34,3.12-2.01,5.33-2.01.91,0,2.01.22,3.29.67s2.01.67,2.2.67c.5,0,.84-.12,1.03-.35s.33-.57.44-1h.82l.88,8.52h-.96c-.65-2.56-1.7-4.36-3.13-5.37s-2.86-1.52-4.27-1.52c-1.09,0-2.05.32-2.86.97s-1.22,1.54-1.22,2.69c0,1.03.31,1.91.94,2.64.62.74,1.59,1.52,2.91,2.32l3.51,2.17c2.2,1.35,3.75,2.6,4.65,3.73.89,1.15,1.33,2.5,1.33,4.06,0,2.1-.79,3.85-2.37,5.25s-3.6,2.11-6.06,2.11c-1.24,0-2.53-.23-3.88-.7s-2.12-.7-2.31-.7c-.47,0-.78.14-.95.43-.16.29-.27.59-.32.92h-.88l-1.19-8.52h.92Z"/><path class="l" d="m678.9,210.77h22.62l.21,6.8h-.96c-.47-2.14-1.06-3.53-1.79-4.17s-2.24-.97-4.56-.97h-2.23v20.47c0,1.54.24,2.5.72,2.87s1.54.61,3.16.73v.74h-11.66v-.74c1.69-.13,2.75-.41,3.16-.84s.62-1.5.62-3.23v-20h-2.25c-2.21,0-3.72.32-4.52.96-.8.64-1.4,2.03-1.81,4.18h-.98l.23-6.8Z"/><path class="l" d="m703.19,236.5c1.63-.12,2.68-.36,3.16-.73s.72-1.32.72-2.87v-17.79c0-1.47-.24-2.42-.72-2.84-.48-.42-1.54-.67-3.16-.75v-.74h11.84v.74c-1.63.08-2.68.33-3.16.75-.48.42-.72,1.37-.72,2.84v17.79c0,1.54.24,2.5.72,2.87s1.54.61,3.16.73v.74h-11.84v-.74Z"/><path class="l" d="m716.46,237.24v-.74c1.03-.12,1.8-.5,2.31-1.16.51-.66,1.4-2.46,2.64-5.4l8.33-19.63h.8l9.97,22.68c.66,1.5,1.19,2.43,1.59,2.79.4.36,1.06.6,2,.73v.74h-10.17v-.74c1.17-.1,1.92-.23,2.26-.38.34-.15.51-.52.51-1.1,0-.19-.07-.54-.2-1.03-.13-.49-.31-1.01-.55-1.56l-1.6-3.85h-10.54c-1.04,2.62-1.66,4.21-1.86,4.79-.2.58-.3,1.03-.3,1.37,0,.67.27,1.14.82,1.4.34.16.97.27,1.91.35v.74h-7.93Zm17.23-10.27l-4.58-11.02-4.61,11.02h9.19Z"/><path class="l" d="m745.21,236.5c1.65-.17,2.71-.54,3.18-1.12s.7-1.92.7-4.03v-17.62l-.55-.64c-.59-.69-1.08-1.12-1.49-1.28s-1.03-.26-1.85-.28v-.74h6.83l15.44,19.14v-13.29c0-2.19-.33-3.61-.98-4.27-.43-.43-1.38-.71-2.85-.83v-.74h9.39v.74c-1.52.16-2.54.53-3.05,1.11s-.76,1.93-.76,4.02v21.05h-.68l-17.7-21.93v15.57c0,2.19.32,3.61.96,4.27.42.43,1.35.72,2.79.88v.74h-9.39v-.74Z"/><path class="l" d="m784.29,236.5c1.63-.12,2.68-.36,3.16-.73s.72-1.32.72-2.87v-17.79c0-1.47-.24-2.42-.72-2.84-.48-.42-1.54-.67-3.16-.75v-.74h11.84v.74c-1.63.08-2.68.33-3.16.75-.48.42-.72,1.37-.72,2.84v17.79c0,1.54.24,2.5.72,2.87s1.54.61,3.16.73v.74h-11.84v-.74Z"/><path class="l" d="m799.54,229.19c.68,1.8,1.47,3.23,2.38,4.3,1.59,1.86,3.56,2.79,5.91,2.79,1.27,0,2.38-.4,3.31-1.21.93-.81,1.39-1.93,1.39-3.38,0-1.3-.47-2.43-1.4-3.4-.61-.61-1.9-1.53-3.86-2.75l-3.41-2.13c-1.03-.65-1.85-1.31-2.46-1.97-1.13-1.26-1.7-2.66-1.7-4.18,0-2.02.67-3.7,2.01-5.04,1.34-1.34,3.12-2.01,5.33-2.01.91,0,2.01.22,3.29.67s2.01.67,2.2.67c.5,0,.84-.12,1.03-.35s.33-.57.44-1h.82l.88,8.52h-.96c-.65-2.56-1.7-4.36-3.13-5.37s-2.86-1.52-4.27-1.52c-1.09,0-2.05.32-2.86.97s-1.22,1.54-1.22,2.69c0,1.03.31,1.91.94,2.64.62.74,1.59,1.52,2.91,2.32l3.51,2.17c2.2,1.35,3.75,2.6,4.65,3.73.89,1.15,1.33,2.5,1.33,4.06,0,2.1-.79,3.85-2.37,5.25s-3.6,2.11-6.06,2.11c-1.24,0-2.53-.23-3.88-.7s-2.12-.7-2.31-.7c-.47,0-.78.14-.95.43-.16.29-.27.59-.32.92h-.88l-1.19-8.52h.92Z"/><path class="l" d="m848.58,210.95c1.5.43,2.36.64,2.58.64.57,0,.98-.11,1.22-.33.24-.22.45-.54.62-.96h.88l.31,8.42h-.92c-.82-1.94-1.67-3.39-2.54-4.34-1.58-1.67-3.63-2.5-6.15-2.5s-4.82.97-6.77,2.92c-1.95,1.95-2.92,5.15-2.92,9.62,0,3.69.97,6.56,2.91,8.63s4.34,3.11,7.19,3.11c.48,0,1.05-.05,1.7-.14.65-.09,1.27-.23,1.86-.43.95-.31,1.54-.58,1.78-.81.23-.23.35-.56.35-1v-6.37c0-1.54-.22-2.51-.65-2.89-.44-.38-1.39-.62-2.86-.71v-.74h10.2v.74c-.99.07-1.65.23-1.97.49-.55.42-.82,1.28-.82,2.58v7.87c0,.47-1.15,1.09-3.45,1.88s-4.51,1.17-6.63,1.17c-3.91,0-7.2-1.14-9.88-3.42-2.96-2.51-4.43-5.89-4.43-10.12,0-3.72,1.18-6.91,3.54-9.57,2.59-2.93,6.03-4.39,10.31-4.39,1.55,0,3.07.21,4.57.64Z"/><path class="l" d="m858.55,236.5c1.47-.16,2.42-.42,2.86-.79s.65-1.3.65-2.81v-17.79c0-1.42-.21-2.35-.64-2.78-.43-.44-1.39-.71-2.87-.81v-.74h21.25l.14,5.72h-1.02c-.34-1.76-.85-2.9-1.52-3.42-.68-.52-2.19-.78-4.53-.78h-5.45c-.59,0-.95.09-1.09.28-.14.19-.21.54-.21,1.06v8.93h6.17c1.71,0,2.79-.25,3.26-.76s.85-1.53,1.13-3.07h.94v9.24h-.94c-.3-1.55-.68-2.57-1.15-3.08-.47-.5-1.55-.75-3.24-.75h-6.17v9.9c0,.79.25,1.26.75,1.41.5.14,2,.21,4.51.21,2.71,0,4.71-.3,6-.89,1.29-.59,2.45-2.03,3.48-4.31h1.11l-1.82,6.76h-21.62v-.74Z"/><path class="l" d="m883.31,210.77h22.62l.21,6.8h-.96c-.47-2.14-1.06-3.53-1.79-4.17s-2.24-.97-4.56-.97h-2.23v20.47c0,1.54.24,2.5.72,2.87s1.54.61,3.16.73v.74h-11.66v-.74c1.69-.13,2.75-.41,3.16-.84s.62-1.5.62-3.23v-20h-2.25c-2.21,0-3.72.32-4.52.96-.8.64-1.4,2.03-1.81,4.18h-.98l.23-6.8Z"/><path class="l" d="m907.75,210.77h22.62l.21,6.8h-.96c-.47-2.14-1.06-3.53-1.79-4.17s-2.24-.97-4.56-.97h-2.23v20.47c0,1.54.24,2.5.72,2.87s1.54.61,3.16.73v.74h-11.66v-.74c1.69-.13,2.75-.41,3.16-.84s.62-1.5.62-3.23v-20h-2.25c-2.21,0-3.72.32-4.52.96-.8.64-1.4,2.03-1.81,4.18h-.98l.23-6.8Z"/><path class="l" d="m932.04,236.5c1.63-.12,2.68-.36,3.16-.73s.72-1.32.72-2.87v-17.79c0-1.47-.24-2.42-.72-2.84-.48-.42-1.54-.67-3.16-.75v-.74h11.84v.74c-1.63.08-2.68.33-3.16.75-.48.42-.72,1.37-.72,2.84v17.79c0,1.54.24,2.5.72,2.87s1.54.61,3.16.73v.74h-11.84v-.74Z"/><path class="l" d="m945.17,236.5c1.65-.17,2.71-.54,3.18-1.12s.7-1.92.7-4.03v-17.62l-.55-.64c-.59-.69-1.08-1.12-1.49-1.28s-1.03-.26-1.85-.28v-.74h6.83l15.44,19.14v-13.29c0-2.19-.33-3.61-.98-4.27-.43-.43-1.38-.71-2.85-.83v-.74h9.39v.74c-1.52.16-2.54.53-3.05,1.11s-.76,1.93-.76,4.02v21.05h-.68l-17.7-21.93v15.57c0,2.19.32,3.61.96,4.27.42.43,1.35.72,2.79.88v.74h-9.39v-.74Z"/><path class="l" d="m992.98,210.95c1.5.43,2.36.64,2.58.64.57,0,.98-.11,1.22-.33.24-.22.45-.54.62-.96h.88l.31,8.42h-.92c-.82-1.94-1.67-3.39-2.54-4.34-1.58-1.67-3.63-2.5-6.15-2.5s-4.82.97-6.77,2.92c-1.95,1.95-2.92,5.15-2.92,9.62,0,3.69.97,6.56,2.91,8.63s4.34,3.11,7.19,3.11c.48,0,1.05-.05,1.7-.14.65-.09,1.27-.23,1.86-.43.95-.31,1.54-.58,1.78-.81.23-.23.35-.56.35-1v-6.37c0-1.54-.22-2.51-.65-2.89-.44-.38-1.39-.62-2.86-.71v-.74h10.2v.74c-.99.07-1.65.23-1.97.49-.55.42-.82,1.28-.82,2.58v7.87c0,.47-1.15,1.09-3.45,1.88s-4.51,1.17-6.63,1.17c-3.91,0-7.2-1.14-9.88-3.42-2.96-2.51-4.43-5.89-4.43-10.12,0-3.72,1.18-6.91,3.54-9.57,2.59-2.93,6.03-4.39,10.31-4.39,1.55,0,3.07.21,4.57.64Z"/><path class="l" d="m1021.77,210.77v.74c-.79.03-1.36.1-1.7.21-.6.22-.9.62-.9,1.21,0,.26.04.51.11.76.07.25.18.57.32.96l5.79,15.04,4.23-11.21-1.87-4.9c-.35-.89-.88-1.48-1.58-1.78-.42-.18-1.05-.28-1.89-.29v-.74h10.71v.74c-1,.01-1.69.08-2.07.21-.6.22-.9.68-.9,1.37,0,.23.03.44.08.62s.18.54.39,1.08l5.78,15,5-13.57c.29-.77.48-1.45.59-2.05.06-.34.1-.61.1-.82,0-.74-.35-1.26-1.05-1.54-.39-.17-.98-.27-1.76-.29v-.74h7.94v.74c-.72.1-1.26.27-1.64.49-.68.38-1.18,1.03-1.52,1.96l-4.19,11.92-1.62,4.6-2.54,7.22h-.62l-1.75-4.58-4.63-12.32-6.14,16.9h-.6l-2.98-8.29-3.37-9.38c-1.39-3.86-2.36-6.23-2.92-7.11-.55-.88-1.42-1.35-2.59-1.42v-.74h9.8Z"/><path class="l" d="m1050.19,236.5c1.63-.12,2.68-.36,3.16-.73s.72-1.32.72-2.87v-17.79c0-1.47-.24-2.42-.72-2.84-.48-.42-1.54-.67-3.16-.75v-.74h11.84v.74c-1.63.08-2.68.33-3.16.75-.48.42-.72,1.37-.72,2.84v17.79c0,1.54.24,2.5.72,2.87s1.54.61,3.16.73v.74h-11.84v-.74Z"/><path class="l" d="m1063.31,236.5c1.65-.17,2.71-.54,3.18-1.12s.7-1.92.7-4.03v-17.62l-.55-.64c-.59-.69-1.08-1.12-1.49-1.28s-1.03-.26-1.85-.28v-.74h6.83l15.44,19.14v-13.29c0-2.19-.33-3.61-.98-4.27-.43-.43-1.38-.71-2.85-.83v-.74h9.39v.74c-1.52.16-2.54.53-3.05,1.11s-.76,1.93-.76,4.02v21.05h-.68l-17.7-21.93v15.57c0,2.19.32,3.61.96,4.27.42.43,1.35.72,2.79.88v.74h-9.39v-.74Z"/><path class="l" d="m1092.2,236.5c1.47-.16,2.42-.42,2.86-.79s.65-1.3.65-2.81v-17.79c0-1.42-.21-2.35-.64-2.78-.43-.44-1.39-.71-2.87-.81v-.74h21.25l.14,5.72h-1.02c-.34-1.76-.85-2.9-1.52-3.42-.68-.52-2.19-.78-4.53-.78h-5.45c-.59,0-.95.09-1.09.28-.14.19-.21.54-.21,1.06v8.93h6.17c1.71,0,2.79-.25,3.26-.76s.85-1.53,1.13-3.07h.94v9.24h-.94c-.3-1.55-.68-2.57-1.15-3.08-.47-.5-1.55-.75-3.24-.75h-6.17v9.9c0,.79.25,1.26.75,1.41.5.14,2,.21,4.51.21,2.71,0,4.71-.3,6-.89,1.29-.59,2.45-2.03,3.48-4.31h1.11l-1.82,6.76h-21.62v-.74Z"/><path class="l" d="m554.07,284.5c1.58-.17,2.56-.46,2.94-.86.38-.41.58-1.47.58-3.2v-17.32c0-1.42-.21-2.35-.64-2.78-.43-.44-1.39-.71-2.87-.81v-.74h21.31l.14,5.72h-1.11c-.27-1.83-.79-2.98-1.54-3.47-.75-.49-2.25-.73-4.47-.73h-5.48c-.54,0-.88.09-1.03.27-.15.18-.23.54-.23,1.07v8.93h5.8c1.71,0,2.79-.25,3.26-.76s.85-1.53,1.13-3.07h.94v9.24h-.94c-.3-1.55-.68-2.57-1.15-3.08-.47-.5-1.55-.75-3.24-.75h-5.8v8.75c0,1.46.22,2.4.67,2.81s1.43.67,2.94.79v.74h-11.19v-.74Z"/><path class="l" d="m576.32,284.5c1.54-.14,2.49-.44,2.87-.89s.57-1.51.57-3.17v-17.32c0-1.41-.21-2.33-.63-2.76-.42-.44-1.36-.71-2.8-.83v-.74h11.07c2.3,0,4.23.29,5.76.88,2.92,1.1,4.38,3.14,4.38,6.1,0,1.99-.65,3.52-1.94,4.58s-3.06,1.77-5.28,2.11l8.24,10.15c.51.62,1.02,1.07,1.52,1.36.51.28,1.16.46,1.95.54v.74h-6.44l-10-12.32-1.76.1v7.88c0,1.48.22,2.42.67,2.81s1.43.66,2.94.79v.74h-11.11v-.74Zm13.67-13.87c2.12-.87,3.18-2.51,3.18-4.91s-.95-3.89-2.85-4.74c-1.02-.46-2.36-.68-4.04-.68-1.13,0-1.83.08-2.08.24-.25.16-.38.54-.38,1.14v9.85c2.88-.1,4.93-.4,6.17-.9Z"/><path class="l" d="m607.76,261.74c2.46-2.36,5.49-3.54,9.08-3.54s6.64,1.19,9.1,3.55c2.67,2.57,4,5.98,4,10.25s-1.38,7.79-4.14,10.35c-2.47,2.29-5.46,3.44-8.96,3.44-3.75,0-6.86-1.27-9.34-3.81-2.51-2.59-3.77-5.92-3.77-9.98,0-4.27,1.34-7.7,4.02-10.27Zm2.99,19.6c1.66,2.01,3.69,3.02,6.1,3.02s4.38-.98,6.05-2.94c1.67-1.96,2.51-5.09,2.51-9.4s-.85-7.51-2.54-9.45c-1.69-1.94-3.7-2.91-6.02-2.91s-4.43,1.01-6.09,3.02-2.49,5.13-2.49,9.35.83,7.31,2.48,9.33Z"/><path class="l" d="m631.89,284.5c1.65-.17,2.71-.54,3.18-1.12s.7-1.92.7-4.03v-16.24c0-1.44-.23-2.38-.68-2.82-.46-.44-1.49-.69-3.11-.77v-.74h7.89l9.19,19.92,8.96-19.92h7.95v.74c-1.48.1-2.44.37-2.87.81-.43.44-.64,1.36-.64,2.78v17.78c0,1.46.21,2.39.64,2.8.43.41,1.39.68,2.87.81v.74h-11.19v-.74c1.61-.13,2.62-.42,3.02-.87.4-.45.6-1.52.6-3.21v-17.95l-10.24,22.78h-.55l-10.07-21.84v15.94c0,2.19.32,3.61.96,4.27.42.43,1.35.72,2.79.88v.74h-9.39v-.74Z"/><path class="l" d="m677.08,258.77h22.62l.21,6.8h-.96c-.47-2.14-1.06-3.53-1.79-4.17s-2.24-.97-4.56-.97h-2.23v20.47c0,1.54.24,2.5.72,2.87s1.54.61,3.16.73v.74h-11.66v-.74c1.69-.13,2.75-.41,3.16-.84s.62-1.5.62-3.23v-20h-2.25c-2.21,0-3.72.32-4.52.96-.8.64-1.4,2.03-1.81,4.18h-.98l.23-6.8Z"/><path class="l" d="m701.38,284.5c1.56-.17,2.54-.46,2.93-.86.39-.41.59-1.47.59-3.2v-17.32c0-1.43-.22-2.36-.65-2.79s-1.39-.7-2.86-.8v-.74h11.09v.74c-1.46.1-2.42.37-2.86.8s-.66,1.36-.66,2.79v7.79h12.15v-7.79c0-1.43-.21-2.36-.64-2.79s-1.39-.7-2.87-.8v-.74h11.09v.74c-1.47.1-2.42.37-2.86.8s-.65,1.36-.65,2.79v17.79c0,1.45.22,2.38.65,2.79s1.39.68,2.86.81v.74h-11.09v-.74c1.58-.16,2.56-.44,2.94-.85.38-.42.58-1.48.58-3.21v-7.77h-12.15v8.24c0,1.45.22,2.38.66,2.8s1.39.68,2.86.8v.74h-11.09v-.74Z"/><path class="l" d="m730.07,284.5c1.47-.16,2.42-.42,2.86-.79s.65-1.3.65-2.81v-17.79c0-1.42-.21-2.35-.64-2.78-.43-.44-1.39-.71-2.87-.81v-.74h21.25l.14,5.72h-1.02c-.34-1.76-.85-2.9-1.52-3.42-.68-.52-2.19-.78-4.53-.78h-5.45c-.59,0-.95.09-1.09.28-.14.19-.21.54-.21,1.06v8.93h6.17c1.71,0,2.79-.25,3.26-.76s.85-1.53,1.13-3.07h.94v9.24h-.94c-.3-1.55-.68-2.57-1.15-3.08-.47-.5-1.55-.75-3.24-.75h-6.17v9.9c0,.79.25,1.26.75,1.41.5.14,2,.21,4.51.21,2.71,0,4.71-.3,6-.89,1.29-.59,2.45-2.03,3.48-4.31h1.11l-1.82,6.76h-21.62v-.74Z"/><path class="l" d="m766.63,277.19c.68,1.8,1.47,3.23,2.38,4.3,1.59,1.86,3.56,2.79,5.91,2.79,1.27,0,2.38-.4,3.31-1.21.93-.81,1.39-1.93,1.39-3.38,0-1.3-.47-2.43-1.4-3.4-.61-.61-1.9-1.53-3.86-2.75l-3.41-2.13c-1.03-.65-1.85-1.31-2.46-1.97-1.13-1.26-1.7-2.66-1.7-4.18,0-2.02.67-3.7,2.01-5.04,1.34-1.34,3.12-2.01,5.33-2.01.91,0,2.01.22,3.29.67s2.01.67,2.2.67c.5,0,.84-.12,1.03-.35s.33-.57.44-1h.82l.88,8.52h-.96c-.65-2.56-1.7-4.36-3.13-5.37s-2.86-1.52-4.27-1.52c-1.09,0-2.05.32-2.86.97s-1.22,1.54-1.22,2.69c0,1.03.31,1.91.94,2.64.62.74,1.59,1.52,2.91,2.32l3.51,2.17c2.2,1.35,3.75,2.6,4.65,3.73.89,1.15,1.33,2.5,1.33,4.06,0,2.1-.79,3.85-2.37,5.25s-3.6,2.11-6.06,2.11c-1.24,0-2.53-.23-3.88-.7s-2.12-.7-2.31-.7c-.47,0-.78.14-.95.43-.16.29-.27.59-.32.92h-.88l-1.19-8.52h.92Z"/><path class="l" d="m787.08,258.77h22.62l.21,6.8h-.96c-.47-2.14-1.06-3.53-1.79-4.17s-2.24-.97-4.56-.97h-2.23v20.47c0,1.54.24,2.5.72,2.87s1.54.61,3.16.73v.74h-11.66v-.74c1.69-.13,2.75-.41,3.16-.84s.62-1.5.62-3.23v-20h-2.25c-2.21,0-3.72.32-4.52.96-.8.64-1.4,2.03-1.81,4.18h-.98l.23-6.8Z"/><path class="l" d="m815.25,261.74c2.46-2.36,5.49-3.54,9.08-3.54s6.64,1.19,9.1,3.55c2.67,2.57,4,5.98,4,10.25s-1.38,7.79-4.14,10.35c-2.47,2.29-5.46,3.44-8.96,3.44-3.75,0-6.86-1.27-9.34-3.81-2.51-2.59-3.77-5.92-3.77-9.98,0-4.27,1.34-7.7,4.02-10.27Zm2.99,19.6c1.66,2.01,3.69,3.02,6.1,3.02s4.38-.98,6.05-2.94c1.67-1.96,2.51-5.09,2.51-9.4s-.85-7.51-2.54-9.45c-1.69-1.94-3.7-2.91-6.02-2.91s-4.43,1.01-6.09,3.02-2.49,5.13-2.49,9.35.83,7.31,2.48,9.33Z"/><path class="l" d="m858.17,258.95c1.52.43,2.38.64,2.56.64.38,0,.74-.1,1.07-.31.34-.21.57-.53.7-.98h.84l.37,8.98h-.92c-.53-1.78-1.23-3.22-2.09-4.32-1.64-2.06-3.85-3.09-6.62-3.09s-5.09,1.11-6.87,3.32c-1.78,2.21-2.67,5.26-2.67,9.14,0,3.57.93,6.42,2.8,8.54s4.24,3.19,7.1,3.19c2.07,0,3.98-.49,5.72-1.48,1-.56,2.1-1.41,3.3-2.54l.74.74c-.89,1.12-1.99,2.1-3.3,2.95-2.24,1.43-4.67,2.15-7.29,2.15-4.3,0-7.71-1.37-10.23-4.12-2.33-2.54-3.5-5.71-3.5-9.51s1.23-7.16,3.69-9.8c2.59-2.77,5.96-4.16,10.12-4.16,1.45,0,2.93.21,4.45.64Z"/><path class="l" d="m866.32,284.55c1.63-.13,2.64-.42,3.03-.87.39-.45.59-1.52.59-3.22v-17.35c0-1.45-.22-2.38-.65-2.81-.44-.42-1.42-.69-2.96-.79v-.74h11.39v.74c-1.56.08-2.57.34-3.03.78-.46.44-.68,1.38-.68,2.81v8.2c2.46-2.1,4.48-3.89,6.04-5.36,2.8-2.66,4.2-4.37,4.2-5.12,0-.53-.24-.88-.71-1.05-.48-.17-1.15-.25-2.02-.25v-.74h10.48v.74c-1.28.13-2.29.37-3.02.74-.74.37-1.76,1.17-3.06,2.41l-7.81,7.24,9.53,10.29c1.73,1.85,2.91,3,3.54,3.46.63.46,1.54.76,2.76.9v.68h-12.23v-.68c1.11-.04,1.86-.13,2.25-.26.39-.14.59-.41.59-.81,0-.22-.13-.56-.38-1.02s-.65-.99-1.2-1.59l-7.7-8.32-1.23,1.14v7.24c0,1.49.22,2.43.67,2.83.45.4,1.43.66,2.94.79v.68h-11.29v-.68Z"/><path class="l" d="m573,354.95c1.5.43,2.36.64,2.58.64.57,0,.98-.11,1.22-.33.24-.22.45-.54.62-.96h.88l.31,8.42h-.92c-.82-1.94-1.67-3.39-2.54-4.34-1.58-1.67-3.63-2.5-6.15-2.5s-4.82.97-6.77,2.92c-1.95,1.95-2.92,5.15-2.92,9.62,0,3.69.97,6.56,2.91,8.63s4.34,3.11,7.19,3.11c.48,0,1.05-.05,1.7-.14s1.27-.23,1.86-.43c.95-.31,1.54-.58,1.78-.81.23-.23.35-.56.35-1v-6.37c0-1.54-.22-2.51-.65-2.89-.44-.38-1.39-.62-2.86-.71v-.74h10.2v.74c-.99.07-1.65.23-1.97.49-.55.42-.82,1.28-.82,2.58v7.87c0,.47-1.15,1.09-3.45,1.88s-4.51,1.17-6.63,1.17c-3.91,0-7.2-1.14-9.88-3.42-2.96-2.51-4.43-5.89-4.43-10.12,0-3.72,1.18-6.91,3.54-9.57,2.59-2.93,6.03-4.39,10.31-4.39,1.55,0,3.07.21,4.57.64Z"/><path class="l" d="m582.96,380.5c1.47-.16,2.42-.42,2.86-.79.44-.37.65-1.3.65-2.81v-17.79c0-1.42-.21-2.35-.64-2.78-.43-.44-1.39-.71-2.87-.81v-.74h21.25l.14,5.72h-1.02c-.34-1.76-.85-2.9-1.52-3.42-.68-.52-2.19-.78-4.53-.78h-5.45c-.59,0-.95.09-1.09.28-.14.19-.21.54-.21,1.06v8.93h6.17c1.71,0,2.79-.25,3.26-.76s.85-1.53,1.13-3.07h.94v9.24h-.94c-.3-1.55-.68-2.57-1.15-3.08-.47-.5-1.55-.75-3.24-.75h-6.17v9.9c0,.79.25,1.26.75,1.41s2,.21,4.51.21c2.71,0,4.71-.3,6-.89s2.45-2.03,3.48-4.31h1.11l-1.82,6.76h-21.62v-.74Z"/><path class="l" d="m607.73,354.77h22.62l.21,6.8h-.96c-.47-2.14-1.06-3.53-1.79-4.17s-2.24-.97-4.56-.97h-2.23v20.47c0,1.54.24,2.5.72,2.87s1.54.61,3.16.73v.74h-11.66v-.74c1.69-.13,2.75-.41,3.16-.84s.62-1.5.62-3.23v-20h-2.25c-2.21,0-3.72.32-4.52.96-.8.64-1.4,2.03-1.81,4.18h-.98l.23-6.8Z"/><path class="l" d="m640.75,354.77h22.62l.21,6.8h-.96c-.47-2.14-1.06-3.53-1.79-4.17s-2.24-.97-4.56-.97h-2.23v20.47c0,1.54.24,2.5.72,2.87s1.54.61,3.16.73v.74h-11.66v-.74c1.69-.13,2.75-.41,3.16-.84s.62-1.5.62-3.23v-20h-2.25c-2.21,0-3.72.32-4.52.96-.8.64-1.4,2.03-1.81,4.18h-.98l.23-6.8Z"/><path class="l" d="m665.05,380.5c1.56-.17,2.54-.46,2.93-.87s.59-1.47.59-3.2v-17.32c0-1.43-.22-2.36-.65-2.79s-1.39-.7-2.86-.8v-.74h11.09v.74c-1.46.1-2.42.37-2.86.8s-.66,1.36-.66,2.79v7.79h12.15v-7.79c0-1.43-.21-2.36-.64-2.79s-1.39-.7-2.87-.8v-.74h11.09v.74c-1.47.1-2.42.37-2.86.8s-.65,1.36-.65,2.79v17.79c0,1.45.22,2.38.65,2.79.44.41,1.39.68,2.86.81v.74h-11.09v-.74c1.58-.16,2.56-.44,2.94-.86.38-.41.58-1.48.58-3.21v-7.77h-12.15v8.24c0,1.45.22,2.38.66,2.8.44.42,1.39.68,2.86.8v.74h-11.09v-.74Z"/><path class="l" d="m693.74,380.5c1.47-.16,2.42-.42,2.86-.79.44-.37.65-1.3.65-2.81v-17.79c0-1.42-.21-2.35-.64-2.78-.43-.44-1.39-.71-2.87-.81v-.74h21.25l.14,5.72h-1.02c-.34-1.76-.85-2.9-1.52-3.42-.68-.52-2.19-.78-4.53-.78h-5.45c-.59,0-.95.09-1.09.28-.14.19-.21.54-.21,1.06v8.93h6.17c1.71,0,2.79-.25,3.26-.76s.85-1.53,1.13-3.07h.94v9.24h-.94c-.3-1.55-.68-2.57-1.15-3.08-.47-.5-1.55-.75-3.24-.75h-6.17v9.9c0,.79.25,1.26.75,1.41s2,.21,4.51.21c2.71,0,4.71-.3,6-.89s2.45-2.03,3.48-4.31h1.11l-1.82,6.76h-21.62v-.74Z"/><path class="l" d="m737.01,354.77v.74c-.79.03-1.36.1-1.7.21-.6.22-.9.62-.9,1.21,0,.26.04.51.11.76.07.25.18.57.32.96l5.79,15.04,4.23-11.21-1.87-4.9c-.35-.89-.88-1.48-1.58-1.78-.42-.18-1.05-.28-1.89-.29v-.74h10.71v.74c-1,.01-1.69.08-2.07.21-.6.22-.9.68-.9,1.37,0,.23.03.44.08.62s.18.54.39,1.08l5.78,15,5-13.57c.29-.77.48-1.45.59-2.05.06-.34.1-.61.1-.82,0-.74-.35-1.26-1.05-1.54-.39-.17-.98-.27-1.76-.29v-.74h7.94v.74c-.72.1-1.26.27-1.64.49-.68.38-1.18,1.03-1.52,1.96l-4.19,11.92-1.62,4.6-2.54,7.22h-.62l-1.75-4.58-4.63-12.32-6.14,16.9h-.6l-2.98-8.29-3.37-9.38c-1.39-3.86-2.36-6.23-2.92-7.11-.55-.88-1.42-1.35-2.59-1.42v-.74h9.8Z"/><path class="l" d="m765.42,380.5c1.63-.12,2.68-.36,3.16-.73s.72-1.32.72-2.87v-17.79c0-1.47-.24-2.42-.72-2.84-.48-.42-1.54-.67-3.16-.75v-.74h11.84v.74c-1.63.08-2.68.33-3.16.75-.48.42-.72,1.37-.72,2.84v17.79c0,1.54.24,2.5.72,2.87s1.54.61,3.16.73v.74h-11.84v-.74Z"/><path class="l" d="m778.55,380.5c1.65-.17,2.71-.54,3.18-1.12s.7-1.92.7-4.03v-17.62l-.55-.64c-.59-.69-1.08-1.12-1.49-1.28s-1.03-.26-1.85-.28v-.74h6.83l15.44,19.14v-13.29c0-2.19-.33-3.61-.98-4.27-.43-.43-1.38-.71-2.85-.83v-.74h9.39v.74c-1.52.16-2.54.53-3.05,1.11s-.76,1.93-.76,4.02v21.05h-.68l-17.7-21.93v15.57c0,2.19.32,3.61.96,4.27.42.43,1.35.72,2.79.88v.74h-9.39v-.74Z"/><path class="l" d="m807.43,380.5c1.47-.16,2.42-.42,2.86-.79.44-.37.65-1.3.65-2.81v-17.79c0-1.42-.21-2.35-.64-2.78-.43-.44-1.39-.71-2.87-.81v-.74h21.25l.14,5.72h-1.02c-.34-1.76-.85-2.9-1.52-3.42-.68-.52-2.19-.78-4.53-.78h-5.45c-.59,0-.95.09-1.09.28-.14.19-.21.54-.21,1.06v8.93h6.17c1.71,0,2.79-.25,3.26-.76s.85-1.53,1.13-3.07h.94v9.24h-.94c-.3-1.55-.68-2.57-1.15-3.08-.47-.5-1.55-.75-3.24-.75h-6.17v9.9c0,.79.25,1.26.75,1.41s2,.21,4.51.21c2.71,0,4.71-.3,6-.89s2.45-2.03,3.48-4.31h1.11l-1.82,6.76h-21.62v-.74Z"/><path class="l" d="m840.83,358.08c-.01.23-.04.5-.08.81l-.88,7.4-.92,7.91h-.51l-.37-4.3c-.1-1.22-.39-3.56-.86-7.01-.42-3.01-.62-4.82-.62-5.45,0-.81.16-1.55.47-2.23.31-.68.89-1.02,1.74-1.02s1.47.46,1.8,1.39c.17.48.25,1.08.25,1.8,0,.23,0,.47-.02.69Zm-3.61,23c-.42-.39-.63-.89-.63-1.5s.21-1.09.62-1.52.93-.64,1.54-.64,1.09.22,1.49.65c.4.44.6.94.6,1.51s-.21,1.06-.63,1.47-.94.62-1.55.62c-.55,0-1.03-.2-1.45-.59Z"/><path class="l" d="m554.27,428.5c1.46-.16,2.41-.42,2.85-.79.44-.37.66-1.3.66-2.81v-17.79c0-1.46-.21-2.4-.64-2.81s-1.39-.68-2.87-.78v-.74h10.78c3.63,0,6.71.6,9.22,1.8,4.53,2.15,6.8,5.99,6.8,11.52,0,1.99-.41,3.89-1.22,5.68s-2.04,3.31-3.68,4.55c-1.04.78-2.12,1.37-3.24,1.78-2.04.75-4.56,1.13-7.54,1.13h-11.11v-.74Zm8.06-1.05c.32.21.98.31,1.98.31,3.12,0,5.7-.62,7.71-1.86,3.1-1.9,4.65-5.15,4.65-9.75,0-4.1-1.28-7.19-3.83-9.27-2.19-1.77-5.08-2.66-8.69-2.66-.9,0-1.51.1-1.83.29-.32.2-.48.63-.48,1.29v20.35c0,.65.16,1.08.48,1.29Z"/><path class="l" d="m587.73,405.74c2.46-2.36,5.49-3.54,9.08-3.54s6.64,1.18,9.1,3.55c2.67,2.57,4,5.98,4,10.25s-1.38,7.79-4.14,10.35c-2.47,2.29-5.46,3.44-8.96,3.44-3.75,0-6.86-1.27-9.34-3.81-2.51-2.59-3.77-5.92-3.77-9.98,0-4.27,1.34-7.7,4.02-10.27Zm2.99,19.6c1.66,2.01,3.69,3.02,6.1,3.02s4.38-.98,6.05-2.94,2.51-5.09,2.51-9.4-.85-7.51-2.54-9.45-3.7-2.91-6.02-2.91-4.43,1.01-6.09,3.02-2.49,5.13-2.49,9.35.83,7.31,2.48,9.33Z"/><path class="l" d="m612.04,428.5c1.46-.16,2.41-.42,2.85-.79.44-.37.66-1.3.66-2.81v-17.79c0-1.46-.21-2.4-.64-2.81s-1.39-.68-2.87-.78v-.74h10.78c3.63,0,6.71.6,9.22,1.8,4.53,2.15,6.8,5.99,6.8,11.52,0,1.99-.41,3.89-1.22,5.68s-2.04,3.31-3.68,4.55c-1.04.78-2.12,1.37-3.24,1.78-2.04.75-4.56,1.13-7.54,1.13h-11.11v-.74Zm8.06-1.05c.32.21.98.31,1.98.31,3.12,0,5.7-.62,7.71-1.86,3.1-1.9,4.65-5.15,4.65-9.75,0-4.1-1.28-7.19-3.83-9.27-2.19-1.77-5.08-2.66-8.69-2.66-.9,0-1.51.1-1.83.29-.32.2-.48.63-.48,1.29v20.35c0,.65.16,1.08.48,1.29Z"/><path class="l" d="m659.66,402.95c1.5.43,2.36.64,2.58.64.57,0,.98-.11,1.22-.33s.45-.54.62-.96h.88l.31,8.42h-.92c-.82-1.94-1.67-3.39-2.54-4.34-1.58-1.67-3.63-2.5-6.15-2.5s-4.82.97-6.77,2.92-2.92,5.15-2.92,9.62c0,3.68.97,6.56,2.91,8.63s4.34,3.11,7.19,3.11c.48,0,1.05-.05,1.7-.14s1.27-.23,1.86-.43c.95-.31,1.54-.58,1.78-.81.23-.23.35-.56.35-1v-6.37c0-1.54-.22-2.51-.65-2.89s-1.39-.62-2.86-.71v-.74h10.2v.74c-.99.07-1.65.23-1.97.49-.55.42-.82,1.28-.82,2.58v7.87c0,.47-1.15,1.09-3.45,1.88s-4.51,1.17-6.63,1.17c-3.91,0-7.2-1.14-9.88-3.42-2.96-2.51-4.43-5.89-4.43-10.12,0-3.72,1.18-6.91,3.54-9.57,2.59-2.93,6.03-4.39,10.31-4.39,1.55,0,3.07.21,4.57.64Z"/><path class="l" d="m669.62,428.5c1.47-.16,2.42-.42,2.86-.79.44-.37.65-1.3.65-2.81v-17.79c0-1.42-.21-2.35-.64-2.78s-1.39-.71-2.87-.81v-.74h21.25l.14,5.72h-1.02c-.34-1.76-.85-2.9-1.52-3.42-.68-.52-2.19-.78-4.53-.78h-5.45c-.59,0-.95.09-1.09.28-.14.19-.21.54-.21,1.06v8.93h6.17c1.71,0,2.79-.25,3.26-.76.47-.5.85-1.53,1.13-3.07h.94v9.24h-.94c-.3-1.55-.68-2.58-1.15-3.08s-1.55-.75-3.24-.75h-6.17v9.9c0,.79.25,1.26.75,1.41s2,.21,4.51.21c2.71,0,4.71-.3,6-.89s2.45-2.03,3.48-4.31h1.11l-1.82,6.76h-21.62v-.74Z"/><path class="l" d="m703.68,402.77h22.62l.21,6.8h-.96c-.47-2.14-1.06-3.53-1.79-4.17s-2.24-.97-4.56-.97h-2.23v20.47c0,1.54.24,2.5.72,2.87s1.54.61,3.16.73v.74h-11.66v-.74c1.69-.13,2.75-.41,3.16-.84s.62-1.5.62-3.23v-20h-2.25c-2.21,0-3.72.32-4.52.96s-1.4,2.03-1.81,4.18h-.98l.23-6.8Z"/><path class="l" d="m727.98,428.5c1.56-.17,2.54-.46,2.93-.87s.59-1.47.59-3.2v-17.32c0-1.43-.22-2.36-.65-2.79s-1.39-.7-2.86-.8v-.74h11.09v.74c-1.46.1-2.42.37-2.86.8s-.66,1.36-.66,2.79v7.79h12.15v-7.79c0-1.43-.21-2.36-.64-2.79s-1.39-.7-2.87-.8v-.74h11.09v.74c-1.47.1-2.42.37-2.86.8s-.65,1.36-.65,2.79v17.79c0,1.45.22,2.38.65,2.79.44.41,1.39.68,2.86.81v.74h-11.09v-.74c1.58-.16,2.56-.44,2.94-.86.38-.41.58-1.48.58-3.21v-7.77h-12.15v8.24c0,1.45.22,2.38.66,2.8.44.42,1.39.68,2.86.8v.74h-11.09v-.74Z"/><path class="l" d="m756.67,428.5c1.47-.16,2.42-.42,2.86-.79.44-.37.65-1.3.65-2.81v-17.79c0-1.42-.21-2.35-.64-2.78s-1.39-.71-2.87-.81v-.74h21.25l.14,5.72h-1.02c-.34-1.76-.85-2.9-1.52-3.42-.68-.52-2.19-.78-4.53-.78h-5.45c-.59,0-.95.09-1.09.28-.14.19-.21.54-.21,1.06v8.93h6.17c1.71,0,2.79-.25,3.26-.76.47-.5.85-1.53,1.13-3.07h.94v9.24h-.94c-.3-1.55-.68-2.58-1.15-3.08s-1.55-.75-3.24-.75h-6.17v9.9c0,.79.25,1.26.75,1.41s2,.21,4.51.21c2.71,0,4.71-.3,6-.89s2.45-2.03,3.48-4.31h1.11l-1.82,6.76h-21.62v-.74Z"/><path class="l" d="m809.91,402.95c1.52.43,2.38.64,2.56.64.38,0,.74-.1,1.07-.31s.57-.53.7-.98h.84l.37,8.98h-.92c-.53-1.78-1.23-3.22-2.09-4.32-1.64-2.06-3.85-3.09-6.62-3.09s-5.09,1.11-6.87,3.32-2.67,5.26-2.67,9.14c0,3.57.93,6.42,2.8,8.54s4.24,3.19,7.1,3.19c2.07,0,3.98-.5,5.72-1.48,1-.56,2.1-1.41,3.3-2.54l.74.74c-.89,1.12-1.99,2.1-3.3,2.95-2.24,1.43-4.67,2.15-7.29,2.15-4.3,0-7.71-1.37-10.23-4.12-2.33-2.54-3.5-5.71-3.5-9.51s1.23-7.16,3.69-9.8c2.59-2.77,5.96-4.16,10.12-4.16,1.45,0,2.93.21,4.45.64Z"/><path class="l" d="m829.23,402.77v.74c-1.54.1-2.53.36-2.99.77s-.68,1.35-.68,2.82v12.79c0,2.1.29,3.73.86,4.9,1.07,2.14,3.09,3.2,6.07,3.2,3.27,0,5.46-1.09,6.58-3.28.62-1.22.94-3.11.94-5.66v-10.41c0-2.17-.26-3.54-.78-4.09s-1.51-.9-2.97-1.04v-.74h9.26v.74c-1.55.17-2.56.54-3.04,1.12s-.71,1.92-.71,4.01v10.41c0,2.76-.42,4.92-1.27,6.46-1.56,2.85-4.53,4.28-8.91,4.28s-7.27-1.41-8.83-4.22c-.85-1.51-1.27-3.5-1.27-5.98v-12.5c0-1.46-.22-2.39-.67-2.8s-1.43-.67-2.94-.79v-.74h11.35Z"/><path class="l" d="m848.8,421.19c.68,1.8,1.47,3.23,2.38,4.3,1.59,1.86,3.56,2.79,5.91,2.79,1.27,0,2.38-.4,3.31-1.21s1.39-1.93,1.39-3.38c0-1.3-.47-2.43-1.4-3.4-.61-.61-1.9-1.53-3.86-2.75l-3.41-2.13c-1.03-.65-1.85-1.31-2.46-1.97-1.13-1.26-1.7-2.66-1.7-4.18,0-2.02.67-3.7,2.01-5.04s3.12-2.01,5.33-2.01c.91,0,2.01.22,3.29.67s2.01.67,2.2.67c.5,0,.84-.12,1.03-.35s.33-.57.44-1h.82l.88,8.52h-.96c-.65-2.57-1.7-4.36-3.13-5.37s-2.86-1.52-4.27-1.52c-1.09,0-2.05.32-2.86.97s-1.22,1.54-1.22,2.69c0,1.03.31,1.91.94,2.64.62.74,1.59,1.52,2.91,2.32l3.51,2.17c2.2,1.35,3.75,2.6,4.65,3.73.89,1.15,1.33,2.5,1.33,4.06,0,2.1-.79,3.85-2.37,5.25s-3.6,2.11-6.06,2.11c-1.24,0-2.53-.23-3.88-.7s-2.12-.7-2.31-.7c-.47,0-.78.14-.95.43s-.27.59-.32.92h-.88l-1.19-8.52h.92Z"/><path class="l" d="m869.11,428.5c1.56-.17,2.54-.46,2.93-.87s.59-1.47.59-3.2v-17.32c0-1.43-.22-2.36-.65-2.79s-1.39-.7-2.86-.8v-.74h11.09v.74c-1.46.1-2.42.37-2.86.8s-.66,1.36-.66,2.79v7.79h12.15v-7.79c0-1.43-.21-2.36-.64-2.79s-1.39-.7-2.87-.8v-.74h11.09v.74c-1.47.1-2.42.37-2.86.8s-.65,1.36-.65,2.79v17.79c0,1.45.22,2.38.65,2.79.44.41,1.39.68,2.86.81v.74h-11.09v-.74c1.58-.16,2.56-.44,2.94-.86.38-.41.58-1.48.58-3.21v-7.77h-12.15v8.24c0,1.45.22,2.38.66,2.8.44.42,1.39.68,2.86.8v.74h-11.09v-.74Z"/><path class="l" d="m898,428.5c1.63-.12,2.68-.36,3.16-.73s.72-1.32.72-2.87v-17.79c0-1.47-.24-2.42-.72-2.84s-1.54-.67-3.16-.75v-.74h11.84v.74c-1.63.08-2.68.33-3.16.75s-.72,1.37-.72,2.84v17.79c0,1.54.24,2.5.72,2.87s1.54.61,3.16.73v.74h-11.84v-.74Z"/><path class="l" d="m915.89,405.74c2.46-2.36,5.49-3.54,9.08-3.54s6.64,1.18,9.1,3.55c2.67,2.57,4,5.98,4,10.25s-1.38,7.79-4.14,10.35c-2.47,2.29-5.46,3.44-8.96,3.44-3.75,0-6.86-1.27-9.34-3.81-2.51-2.59-3.77-5.92-3.77-9.98,0-4.27,1.34-7.7,4.02-10.27Zm2.99,19.6c1.66,2.01,3.69,3.02,6.1,3.02s4.38-.98,6.05-2.94,2.51-5.09,2.51-9.4-.85-7.51-2.54-9.45-3.7-2.91-6.02-2.91-4.43,1.01-6.09,3.02-2.49,5.13-2.49,9.35.83,7.31,2.48,9.33Z"/><path class="l" d="m940.01,428.5c1.65-.17,2.71-.54,3.18-1.12s.7-1.92.7-4.03v-17.62l-.55-.64c-.59-.69-1.08-1.12-1.49-1.28s-1.03-.26-1.85-.28v-.74h6.83l15.44,19.14v-13.29c0-2.19-.33-3.61-.98-4.27-.43-.43-1.38-.71-2.85-.83v-.74h9.39v.74c-1.52.16-2.54.53-3.05,1.11s-.76,1.93-.76,4.02v21.05h-.68l-17.7-21.93v15.57c0,2.19.32,3.61.96,4.27.42.43,1.35.72,2.79.88v.74h-9.39v-.74Z"/><path class="l" d="m971.03,421.19c.68,1.8,1.47,3.23,2.38,4.3,1.59,1.86,3.56,2.79,5.91,2.79,1.27,0,2.38-.4,3.31-1.21s1.39-1.93,1.39-3.38c0-1.3-.47-2.43-1.4-3.4-.61-.61-1.9-1.53-3.86-2.75l-3.41-2.13c-1.03-.65-1.85-1.31-2.46-1.97-1.13-1.26-1.7-2.66-1.7-4.18,0-2.02.67-3.7,2.01-5.04s3.12-2.01,5.33-2.01c.91,0,2.01.22,3.29.67s2.01.67,2.2.67c.5,0,.84-.12,1.03-.35s.33-.57.44-1h.82l.88,8.52h-.96c-.65-2.57-1.7-4.36-3.13-5.37s-2.86-1.52-4.27-1.52c-1.09,0-2.05.32-2.86.97s-1.22,1.54-1.22,2.69c0,1.03.31,1.91.94,2.64.62.74,1.59,1.52,2.91,2.32l3.51,2.17c2.2,1.35,3.75,2.6,4.65,3.73.89,1.15,1.33,2.5,1.33,4.06,0,2.1-.79,3.85-2.37,5.25s-3.6,2.11-6.06,2.11c-1.24,0-2.53-.23-3.88-.7s-2.12-.7-2.31-.7c-.47,0-.78.14-.95.43s-.27.59-.32.92h-.88l-1.19-8.52h.92Z"/><path class="f" d="m292.46,348.52c-10.09-9.9-24.84-17.06-39.24-14.96-3.95.58-7.75,1.97-11.15,4.08-.51.32-.94,1.08-.69,1.69,4.59,11.13,16.65,16.43,27.92,17.99,3,.42,6.03.62,9.06.55,2.8-.07,5.57-.25,8.38-.06,5.42.35,11,1.5,15.89,3.93,4.11,2.05,7.99,5.22,8.93,9.94,1.33,6.65-3.79,12.17-8.22,16.36-10.37,9.79-21.76,20.26-35.98,23.75-10.43,2.56-24.1-.05-30.73-9.18-3.57-4.92-4.31-11.14-2.44-16.88,2.06-6.34,6.75-11.61,11.81-15.76,10.81-8.87,24.85-12.31,36.65-19.56,5.28-3.24,10.56-7.34,13.79-12.72,2.63-4.37,3.96-9.54,3.97-14.63,0-4.73-1.15-9.69-3.96-13.56-3.02-4.16-7.63-6.63-12.78-6.88-6.31-.31-12.19,3.02-16.38,7.52-4.76,5.12-7.39,11.49-8.51,18.32-1.32,8.05-.97,16.27-2.21,24.33-.5,3.23-.98,7.54-3.51,9.91s-6.24,1.74-9.18.62c-3.3-1.25-6.15-3.39-9-5.41s-5.83-4.15-8.77-6.18c-5.9-4.06-11.95-7.97-18.37-11.18-11.25-5.62-24.74-9.38-36.51-3-3.39,1.84-6.44,4.38-9.3,6.94-3.85,3.45-7.41,7.22-10.7,11.21-6.92,8.38-13.31,18.11-15.75,28.84-1.07,4.73-1.31,9.74.05,14.44,1.56,5.41,4.7,10.49,8.86,14.28,7.86,7.17,19.33,9.63,29.27,5.55,6.08-2.5,10.77-7.28,15.51-11.7,5.57-5.19,10.94-10.58,16.16-16.13,10.59-11.26,20.51-23.14,30-35.34,9.4-12.08,18.39-24.46,27.2-36.98,4.09-5.81,8.14-11.65,12.19-17.5.68-.98-.24-2.22-1.3-2.26-15.19-.6-32.55,1.67-43.84,12.87-4.58,4.54-7.24,10.34-7.83,16.76-.54,5.82.7,12.02,3.88,16.96,3.43,5.33,8.89,8.55,15.21,9.03,4.9.37,9.74-.8,14.59-1.31,4.5-.47,8.84-.09,13.12,1.43,8.24,2.94,14.99,9.01,21.48,14.66,7.96,6.93,15.91,13.86,23.87,20.78,15.85,13.8,31.7,27.6,47.54,41.4,1.94,1.69,3.88,3.38,5.83,5.07l-.23-1.82c-8.97,14.79-28.85,17.77-44.32,13.15-7.72-2.3-15.19-6.7-19.97-13.32-5.67-7.88-5.82-17.57-6.44-26.9-.71-10.72-1.92-23.49-12.79-28.81-1.73-.84-3.25,1.74-1.51,2.59,9.72,4.75,10.65,16.31,11.28,25.88s.78,19.84,6.44,28.13c9.88,14.46,29.95,19.87,46.52,16.45,9.52-1.96,18.27-7.25,23.37-15.67.32-.54.26-1.39-.23-1.82-15.41-13.42-30.82-26.84-46.23-40.26-7.7-6.71-15.41-13.42-23.11-20.13-6.86-5.97-13.54-12.42-21.16-17.44-3.48-2.3-7.24-4.25-11.25-5.43-4.22-1.24-8.54-1.41-12.89-.9-7.51.87-15.77,3.05-22.4-1.84-9.09-6.71-9.81-21.32-4.11-30.35,3.73-5.91,10.21-10,16.64-12.4,7.3-2.73,15.14-3.75,22.89-3.86,1.88-.03,3.76,0,5.64.08-.43-.75-.86-1.5-1.3-2.26-8.41,12.15-16.86,24.28-25.59,36.19-9.09,12.4-18.49,24.58-28.43,36.3-9.84,11.6-20.22,22.78-31.37,33.14-4.57,4.25-9.12,8.99-15.14,11.12-4.79,1.7-9.99,1.85-14.87.45-9.83-2.82-18.05-12.15-19.02-22.45-.98-10.38,4.33-20.62,9.94-28.96,5.55-8.24,12.42-16.01,20.31-22.11,3.67-2.84,7.68-4.97,12.29-5.8,6.04-1.09,12.27.15,17.98,2.16,13.3,4.69,24.91,13.5,36.28,21.6,5.07,3.61,12.22,8.16,18.57,5.01,3.01-1.49,4.55-4.56,5.38-7.67,1.02-3.8,1.47-7.77,1.78-11.69.63-7.95.43-16.2,2.88-23.88,1.9-5.96,5.87-11.63,11.26-14.92,4.73-2.89,10.77-3.57,15.66-.64,3.89,2.32,6.07,6.52,6.95,10.84.96,4.76.37,9.84-1.39,14.34-2.11,5.41-6.41,9.57-11.07,12.89-11.23,7.99-24.99,11.32-36.35,19.05-10.35,7.04-20.75,19.08-17.36,32.54,2.88,11.46,14.77,17.46,25.74,18.4,13.75,1.18,26.23-6.09,36.54-14.46,2.85-2.31,5.6-4.75,8.32-7.22s5.26-4.7,7.59-7.33c4.05-4.56,7-10.49,5.2-16.68-2.98-10.27-15.89-13.86-25.22-14.87-5.69-.61-11.37.18-17.06-.36-5.8-.55-11.67-2.06-16.81-4.86-4.65-2.53-8.79-6.26-10.84-11.24l-.69,1.69c11.81-7.32,26.66-3.68,37.73,3.27,3.26,2.05,6.28,4.44,9.02,7.13,1.38,1.35,3.5-.77,2.12-2.12h0Z"/><path class="f" d="m599.17,650.65c-18.43-4.89-37.63-6.87-56.66-5.86-9.46.5-18.89,1.73-28.16,3.69-2.11.45-4.08,1.1-6.23.87-1.61-.17-3.22-.38-4.82-.65-3.3-.55-6.57-1.29-9.78-2.23-6.14-1.79-12.3-4.3-17.4-8.23-4.06-3.14-7.53-7.53-7.68-12.86-.19-6.71,4.14-12.08,9.6-15.46,6.79-4.21,14.79-6.08,22.53-7.7,18.98-3.97,38.6-4.86,57.88-2.73,2.46.27,4.91.6,7.36.97-.22-.84-.44-1.67-.66-2.51-20.43,19.18-47.61,30.85-75.45,33.36-15.44,1.39-30.61-.58-45.79-3.34-15.64-2.85-31.42-6.26-47.41-5.85-13.35.34-29.36,3.11-38.09,14.32-6.83,8.78-6.3,23.73,4.6,29.08,6.43,3.16,13.96,2.38,20.79,1.23s13.83-3.21,20.43-5.78c13.63-5.3,26.28-12.72,38.96-19.92,11.95-6.79,23.99-13.43,37.14-17.61,12.34-3.92,25.57-6.12,38.5-4.47,12.55,1.6,23.85,7.35,32.02,17.08,8.47,10.08,13.39,22.57,21.26,33.08,3.36,4.48,7.09,8.48,11.94,11.35,4.34,2.56,9.22,4.31,14.19,5.13,8.66,1.43,19.2.36,24.88-7.17,3.19-4.22,4.12-9.81,2.73-14.89-1.65-6.01-6.12-11.05-11.36-14.26-12.99-7.96-29.57-3.85-42.87,1.02-25.19,9.24-47.85,23.95-71.21,36.88-22.07,12.21-45.95,23.79-71.68,24.29-6.14.12-12.27-.4-18.29-1.57l1.1,1.45c-.81-7.89,5.02-13.9,11.03-18.11,3.3-2.31,6.84-4.27,10.45-6.04,4.89-2.41,9.81-4.76,14.72-7.14,19.91-9.65,39.82-19.3,59.73-28.95,11.26-5.46,22.53-10.92,33.79-16.38,1.74-.84.22-3.43-1.51-2.59-20.46,9.92-40.93,19.84-61.39,29.76-10.15,4.92-20.3,9.84-30.46,14.76-5.08,2.46-10.15,4.92-15.23,7.38-3.83,1.86-7.6,3.86-11.12,6.27-7.01,4.79-13.94,11.85-12.99,21.03.06.62.42,1.31,1.1,1.45,12.22,2.37,24.71,2.11,36.9-.33s23.71-6.87,34.85-12.1c23.74-11.13,45.58-25.83,69.02-37.54,5.84-2.92,11.78-5.65,17.86-8.06,6.74-2.67,13.67-5.07,20.85-6.25s15.02-1.11,21.62,2.12c5.36,2.62,10.17,7.22,12.02,13.01,1.49,4.68.67,10.01-2.63,13.75-2.77,3.13-6.72,4.74-10.77,5.42-9.17,1.53-19.42-1.43-26.8-6.93-4.66-3.48-8.18-8.45-11.31-13.28-3.54-5.47-6.61-11.23-9.97-16.8-3.26-5.39-6.83-10.66-11.27-15.16s-9.49-7.94-15.15-10.4c-11.41-4.96-24.14-5.64-36.34-4.01s-25,5.77-36.51,11.3c-25.42,12.23-48.56,30.42-76.79,35.92-6.56,1.28-14.41,2.54-20.67-.53-4.96-2.42-7.59-7.47-7.68-12.88-.23-13.48,13.11-20.64,24.6-23.2,15.1-3.37,30.9-1.45,45.96,1.15s30.92,6.25,46.68,6.76c27.42.9,55.22-7.09,77.93-22.49,5.39-3.66,10.5-7.73,15.25-12.19.76-.71.47-2.33-.66-2.51-19.93-3.05-40.26-2.9-60.14.49-8.61,1.47-17.44,3.23-25.43,6.88-6.52,2.98-12.75,7.73-14.84,14.89-1.65,5.65-.37,11.38,3.21,15.98,3.85,4.94,9.54,8.25,15.22,10.66,6.46,2.75,13.31,4.52,20.26,5.48,1.61.22,3.41.63,5.04.56,1.16-.05,2.4-.53,3.54-.78,1.21-.27,2.42-.52,3.64-.77,4.89-.98,9.83-1.75,14.79-2.31,19.75-2.22,39.88-1.2,59.29,3.11,2.42.54,4.82,1.13,7.21,1.76,1.87.5,2.66-2.4.8-2.89h0Z"/><path class="e" d="m208.08,564.5c-12.91-1.68-26.75-3.19-39.06,2.11-5.14,2.21-9.54,5.48-12.82,10.02-2.91,4.03-4.89,8.82-5.84,13.69-1.8,9.17-.05,20.07,8.49,25.37,9.97,6.18,22.42.15,28.96-8.2,8.45-10.78,9.65-25.62,10.51-38.78,1.05-16.02,1.88-32.06,2.99-48.07.38-5.46,1.19-10.97,3-16.16,1.49-4.27,3.95-8.93,8.31-10.84,6.18-2.71,12.41,1.75,17.05,5.47,4.91,3.94,9.52,8.35,13.28,13.42,3.43,4.63,6.51,10.05,7.13,15.88.62,5.93-1.67,11.57-6.29,15.34-5.05,4.12-11.81,6.06-17.79,8.38-7.54,2.93-15.07,5.86-22.61,8.78-3.69,1.43-7.38,2.87-11.07,4.3-.91.35-1.4,1.29-.9,2.2,9.65,17.71,18.65,35.78,26.97,54.15,8.35,18.45,16.01,37.21,22.98,56.23,3.95,10.79,7.68,21.66,11.19,32.59l.15-1.16c-3.49,4.79-9.51,1.86-13.19-1.08-5.12-4.1-8.3-9.85-11.51-15.45-7.21-12.56-13.22-25.8-18-39.47-4.84-13.84-8.43-28.12-10.74-42.6-2.01-12.62-2.9-25.39-4.67-38.04-1.65-11.78-3.97-23.68-9.05-34.51-2.34-4.98-5.32-9.67-9.02-13.74-4.23-4.65-9.42-8.04-14.76-11.28-5.46-3.31-11.41-6.77-14.94-12.28-2.86-4.47-4.63-10.34-3.42-15.64,1.29-5.67,6.27-9.1,12.04-8.12s10.85,5.07,14.69,9.55c7.68,8.96,11.63,20.47,13.69,31.93,2.24,12.43,2.38,25.18,2.02,37.78-.09,3.03-.21,6.06-.35,9.08-.09,1.93,2.91,1.93,3,0,.8-17.25,1.17-34.88-2.61-51.84-1.75-7.87-4.5-15.62-8.78-22.48-4.29-6.89-10.21-13.53-18.09-16.21-3.75-1.28-7.92-1.44-11.54.32-3.41,1.65-5.82,4.96-6.8,8.57-2.02,7.39.9,15.91,5.8,21.54,6.09,7.01,15.11,10.4,22.33,15.98,6.12,4.73,10.71,11.08,14.02,18.03,7.14,15.02,8.85,32.2,10.64,48.53.99,9,1.93,18,3.48,26.92,1.73,10.01,4.09,19.91,7.04,29.62,5.77,19,13.83,37.36,24.11,54.35,2.28,3.77,4.66,7.38,7.94,10.37,2.78,2.54,6.2,4.94,9.99,5.58,3.5.6,7.06-.61,9.11-3.63.76-1.12.08-2.28-.29-3.45-.41-1.27-.82-2.53-1.24-3.79-.83-2.53-1.67-5.05-2.53-7.57-6.83-20.13-14.43-39.99-22.76-59.54-8.29-19.45-17.32-38.57-27.09-57.32-2.35-4.51-4.75-9-7.18-13.47l-.9,2.2c7.54-2.93,15.07-5.86,22.61-8.78,7.09-2.76,14.28-5.35,21.28-8.33,5.56-2.36,10.94-5.62,13.85-11.12,2.74-5.17,2.89-11.12,1.17-16.65-1.81-5.8-5.26-10.99-9.15-15.59-4.13-4.89-8.96-9.25-14.13-13s-11.26-6.37-17.38-3.7c-4.49,1.96-7.31,6.26-9.13,10.63-2.1,5.05-3.08,10.51-3.64,15.92-.77,7.37-1,14.83-1.46,22.22-.5,8.14-1.01,16.28-1.51,24.41-.44,7.15-.83,14.34-2.13,21.4-2.18,11.8-7.61,24.75-20.01,28.77-4.93,1.6-10.36,1.15-14.49-2.17-3.52-2.82-5.41-7.08-6.05-11.47-1.35-9.34,2.32-20,9.31-26.37,9.58-8.72,23.98-8.99,36.11-7.91,3.25.29,6.49.69,9.73,1.11.81.11,1.49-.77,1.5-1.5,0-.9-.7-1.4-1.5-1.5h0Z"/><path class="e" d="m649.36,559.93c16.86,4.44,32.41,15.21,40.74,30.76,8.03,15,6.79,32.43-2.1,46.77-4.58,7.38-10.88,13.67-18.14,18.41-6.88,4.5-14.56,7.35-22.34,9.88-13.84,4.5-28.64,7.6-41.42,14.81-5.1,2.88-9.98,6.68-12.88,11.88-1.35,2.42-2.21,5.07-2.58,7.81-.25,1.82.25,2.26,1.67,3.31,1.62,1.2,3.29,2.33,5,3.4,13.82,8.64,30.03,12.96,46.2,14.09,33.48,2.33,68.43-8.5,93.06-31.62,25.49-23.93,38.35-58.45,38.7-93.05.04-4.19-.1-8.37-.41-12.55l-2.8.76c18.38,29.46,40.46,57,67.4,79.09,27.14,22.26,59.84,39.41,94.74,45.1,30.61,4.98,63.08,1.48,91.86-10.13,25.16-10.15,49.42-27.59,59.72-53.59,5.96-15.04,6.61-32.4-.18-47.28-7.76-17.01-24.6-26.82-41.75-32.37-20.18-6.53-41.89-8.26-63-7.81-22.07.47-43.99,3.47-65.75,7.04-45.16,7.4-89.84,17.36-134.44,27.55-22.2,5.07-44.38,10.2-66.61,15.09-9.79,2.16-21.7,5.68-30.87-.21-7.14-4.59-11.31-13.59-15.01-20.93-7.24-14.38-12.67-29.81-21.89-43.11-4.41-6.36-9.66-12.08-15.91-16.68-6.67-4.91-16.01-10.39-24.4-6.57-6.49,2.96-8.95,10.33-9.59,16.93-.87,8.9-.17,18.14,1.07,26.97,2.67,18.88,9.36,37.14,19.13,53.5,4.91,8.23,10.62,15.97,16.94,23.18,1.27,1.46,3.39-.67,2.12-2.12-12.76-14.58-22.86-31.47-29.15-49.82-3.01-8.79-5.19-17.9-6.35-27.12-1.07-8.48-1.89-17.77-.54-26.26.55-3.45,1.64-7.05,3.95-9.74,3.05-3.54,7.67-4.4,12.09-3.3,8.26,2.06,15.9,8.36,21.59,14.47,10.6,11.39,16.69,26.05,23.06,40.02,3.22,7.06,6.53,14.1,10.55,20.74,4.4,7.27,9.94,13.9,18.74,15.51,9.5,1.74,19.38-1.26,28.59-3.3,10.72-2.37,21.43-4.79,32.14-7.23,42.99-9.8,85.93-19.9,129.25-28.19,21.7-4.16,43.51-8.06,65.46-10.71s42.68-3.79,63.97-1.73c19.21,1.86,39.64,6.07,55.92,16.97,15.48,10.37,23.59,27.36,22.49,45.91-1.67,28.21-22.4,50.3-45.94,63.53-26.12,14.69-57.08,20.97-86.89,19.82-33.83-1.3-66.45-13.88-94.46-32.53-28.56-19.01-52.42-44.44-72.21-72.3-4.62-6.5-9.02-13.15-13.24-19.91-.74-1.18-2.91-.8-2.8.76,2.58,35.31-7.55,71.84-32.01,98.06-24.02,25.75-59.68,38.18-94.56,36.27-18.75-1.03-37.45-6.54-52.53-17.99l.74,1.3c1.31-12.9,14.38-19.27,25.14-23.33,13.6-5.14,27.94-8.13,41.37-13.73,14.89-6.21,27.77-17.52,34.29-32.48,6.11-14.03,5.55-29.57-1.76-43.04-8.72-16.06-24.92-27.25-42.38-31.85-1.87-.49-2.67,2.4-.8,2.89h0Z"/><path class="e" d="m133.07,198.55c8.23.94,16.5,1.76,24.79,1.92s15.96-.26,23.64-2.26c5.42-1.41,11.6-3.62,14.44-8.85,2.12-3.91,1.63-8.55-1.08-12.04-3.94-5.09-10.84-6.54-16.96-6.16-1.33.08-1.93,1.56-1.06,2.56,6.02,6.91,12.2,13.89,16.63,21.96,3.29,6,5.69,13.13,4.09,20.01-2.95,12.63-15.67,20.42-27.31,23.79-7.51,2.17-15.25,2.83-23.03,2.08-6.87-.66-13.89-2.32-20.1-5.4-3.93-1.95-9.15-5.06-10.01-9.8-.8-4.4,3.45-8.09,6.83-10.16,5.64-3.45,12.27-5.2,18.68-6.57,7.69-1.64,15.51-2.6,23.33-3.31,1.94-.18,3.87-.33,5.81-.48,1.6-.12,2.14-2.54.4-2.95-14.11-3.3-28.38-6.57-41.88-11.94-5.79-2.3-11.47-5.06-16.57-8.67-4.1-2.9-7.89-6.81-9.66-11.6-1.46-3.95-1.41-8.27.67-12,2.64-4.74,7.61-7.7,12.55-9.56,12.23-4.62,25.86-4.03,38.5-1.61,14.61,2.8,28.71,8.06,42.13,14.41,1.19.56,3.07-.73,2.05-2.05-2.65-3.45-3.78-7.51-2.05-11.65,1.95-4.67,6.27-8.19,10.38-10.9,5.85-3.85,12.36-6.66,18.98-8.89,7.67-2.59,15.6-4.41,23.61-5.56s16.23-1.52,24.36-1.27c7.7.23,15.43.99,22.95,2.71,6.14,1.4,12.47,3.4,17.6,7.19,3.32,2.46,6.24,5.91,4.22,10.09-2.15,4.44-7.11,7.37-11.53,9.1-5.57,2.19-11.87,3.13-17.77,1.83-1.44-.32-2.86-.76-4.21-1.36l-1.16,2.74c21.41,5.71,42.48,12.83,62.76,21.78,5.36,2.36,10.66,4.86,15.9,7.48v-2.59c-11.71,6.5-25.61,8.72-38.82,9.37-15.13.74-30.25-.84-44.96-4.38s-29.63-9.23-43.8-15.56c-3.37-1.51-6.73-3.05-10.08-4.6-.84-.39-1.53-.83-2.45-.44-.65.27-1.28.71-1.87,1.09-1.03.66-2.02,1.41-2.92,2.25-3.05,2.85-4.64,6.77-3.94,10.93s3.61,7.91,6.78,10.65c4.2,3.62,9.27,6.15,14.54,7.79,11.79,3.68,25.72,3.13,36.75-2.72,7.53-4,14.28-11.67,12.73-20.75-1.72-10-12.57-15-21.4-17.04-11.44-2.65-23.74-1.99-35.07.87-5.19,1.31-10.32,3.14-15,5.76-3.78,2.11-7.41,4.82-9.85,8.45-1,1.48-1.75,3.16-2.12,4.9-.4,1.88,2.49,2.69,2.89.8,1.03-4.78,5.1-8.22,9.08-10.67,5.68-3.5,12.17-5.63,18.67-7.01,7.25-1.54,14.76-2.08,22.15-1.49,6.86.55,14.07,2.1,19.97,5.79,4.23,2.64,7.82,6.82,7.93,12.02s-2.91,9.47-6.65,12.61c-5.32,4.45-12.41,6.66-19.2,7.44-8.05.92-16.35-.09-23.85-3.2-5.44-2.26-11.09-5.83-14.04-11.09-1.07-1.9-1.73-4.13-1.4-6.32.35-2.34,1.74-4.3,3.47-5.84,1.17-1.04,2.51-1.87,3.89-2.61h-1.51c18.18,8.45,36.64,16.43,56.21,21.07,18.95,4.48,38.79,5.89,58.11,3.07,9.44-1.38,18.93-3.86,27.32-8.51.94-.52,1.01-2.08,0-2.59-19.46-9.74-39.8-17.67-60.57-24.14-6.23-1.94-12.51-3.74-18.82-5.43-1.58-.42-2.75,2.03-1.16,2.74,6.16,2.74,13.08,2.89,19.58,1.32,5.73-1.39,11.69-4.15,15.68-8.61,3.17-3.54,4.81-8.5,1.93-12.75-3.46-5.1-9.69-8.05-15.31-10.04-7.41-2.63-15.31-3.88-23.12-4.57-8.51-.76-17.13-.79-25.65-.05-8.81.76-17.56,2.35-26.07,4.77-7.57,2.16-15.07,4.97-21.92,8.88-8.67,4.94-19.88,14.19-14.77,25.41.54,1.18,1.23,2.26,2.02,3.29l2.05-2.05c-12.53-5.93-25.62-10.94-39.18-13.95-13.25-2.94-27.57-4.18-40.74-.18-5.73,1.74-11.61,4.49-15.47,9.23-3.07,3.78-4.5,8.46-3.8,13.3,1.66,11.57,12.98,18.69,22.65,23.25,13.54,6.39,28.29,10,42.79,13.45,1.9.45,3.8.9,5.7,1.34.13-.98.27-1.96.4-2.95-8.45.64-16.9,1.5-25.25,2.98-7.31,1.3-14.73,3.02-21.42,6.32-4.6,2.27-9.94,6.03-10.91,11.48-.93,5.26,2.81,9.53,6.8,12.39,5.64,4.03,12.65,6.27,19.39,7.56,7.88,1.51,16.03,1.77,23.94.35,13.88-2.48,29.08-9.8,34.84-23.54,6.63-15.8-5.59-31.62-15.26-43.08-1.62-1.92-3.28-3.83-4.93-5.72-.35.85-.71,1.71-1.06,2.56,4.88-.3,10.35.51,13.9,4.19,2.43,2.52,3.27,6.23,1.59,9.4-2.48,4.7-8.29,6.46-13.07,7.66-7.04,1.78-14.37,2.16-21.6,2.07-8.58-.11-17.14-.97-25.66-1.93-1.92-.22-1.9,2.78,0,3h0Z"/></svg>