<?xml version="1.0" encoding="UTF-8"?><svg id="b" xmlns="http://www.w3.org/2000/svg" width="337.94" height="148" viewBox="0 0 337.94 148"><defs><style>.d{fill:#f095b3;}.e{fill:#e7d7ff;}.f{fill:#fff;}.g{fill:#edc8d7;}.h{fill:#dbcab4;}.i{fill:#354235;}</style></defs><rect class="h" width="337.94" height="148" rx="12" ry="12"/><rect class="d" x="11.06" y="8" width="314" height="131" rx="12" ry="12"/><rect class="f" x="294.79" y="38.09" width="5.74" height="71.22" rx="1.5" ry="1.5"/><circle class="f" cx="295.29" cy="118.28" r="3.28"/><circle class="f" cx="59.48" cy="34.71" r="3.28"/><path class="i" d="m46.29,57.91h22.62l.21,6.8h-.96c-.47-2.14-1.06-3.53-1.79-4.17s-2.24-.97-4.56-.97h-2.23v20.47c0,1.54.24,2.5.72,2.87s1.54.61,3.16.73v.74h-11.66v-.74c1.69-.13,2.75-.41,3.16-.84s.62-1.5.62-3.23v-20h-2.25c-2.21,0-3.72.32-4.52.96-.8.64-1.4,2.03-1.81,4.18h-.98l.23-6.8Z"/><path class="i" d="m70.39,83.63c1.54-.14,2.49-.44,2.87-.89s.57-1.51.57-3.17v-17.32c0-1.41-.21-2.33-.63-2.76-.42-.44-1.36-.71-2.8-.83v-.74h11.07c2.3,0,4.23.29,5.76.88,2.92,1.11,4.38,3.14,4.38,6.1,0,1.99-.65,3.52-1.94,4.58s-3.06,1.77-5.28,2.11l8.24,10.15c.51.62,1.02,1.07,1.52,1.36.51.28,1.16.46,1.95.54v.74h-6.44l-10-12.32-1.76.1v7.88c0,1.48.22,2.42.67,2.81.45.4,1.43.66,2.94.79v.74h-11.11v-.74Zm13.67-13.87c2.12-.87,3.18-2.51,3.18-4.91s-.95-3.89-2.85-4.74c-1.02-.46-2.36-.68-4.04-.68-1.13,0-1.83.08-2.08.24-.25.16-.38.54-.38,1.14v9.85c2.88-.1,4.93-.4,6.17-.9Z"/><path class="i" d="m106.51,57.91v.74c-.94-.03-1.64.04-2.11.21-.47.17-.7.53-.7,1.09,0,.17.04.38.12.63s.25.59.53,1.01l5.89,8.63,5.74-8.77c.23-.38.39-.69.46-.94.07-.25.11-.43.11-.55,0-.57-.31-.95-.92-1.13-.37-.12-.99-.18-1.88-.2v-.74h8.74v.74c-.81.04-1.53.28-2.16.72-.99.69-2.1,1.97-3.33,3.85l-5.91,9.02v7.78c0,1.55.25,2.51.75,2.89.5.38,1.62.62,3.37.71v.74h-12.21v-.74c1.81-.1,2.93-.37,3.37-.81s.65-1.52.65-3.27v-6.94l-5.23-7.68c-1.81-2.64-3.08-4.34-3.81-5.09-.73-.75-1.61-1.15-2.66-1.2v-.74h11.19Z"/><path class="i" d="m130.26,84.37v-.74c1.03-.12,1.8-.5,2.31-1.16.51-.66,1.4-2.46,2.64-5.4l8.33-19.63h.8l9.97,22.68c.66,1.5,1.19,2.43,1.59,2.79.4.36,1.06.6,2,.73v.74h-10.17v-.74c1.17-.1,1.92-.23,2.26-.38.34-.15.51-.52.51-1.1,0-.19-.07-.54-.2-1.03-.13-.49-.31-1.01-.55-1.55l-1.6-3.85h-10.54c-1.04,2.62-1.66,4.21-1.86,4.79-.2.58-.3,1.03-.3,1.37,0,.67.27,1.14.82,1.4.34.15.97.27,1.91.35v.74h-7.93Zm17.23-10.27l-4.58-11.02-4.61,11.02h9.19Z"/><path class="i" d="m177.93,58.08c1.5.43,2.36.64,2.58.64.57,0,.98-.11,1.22-.33.24-.22.45-.54.62-.96h.88l.31,8.42h-.92c-.82-1.94-1.67-3.39-2.54-4.34-1.58-1.67-3.63-2.5-6.15-2.5s-4.82.97-6.77,2.92c-1.95,1.95-2.92,5.15-2.92,9.62,0,3.68.97,6.56,2.91,8.63s4.34,3.11,7.19,3.11c.48,0,1.05-.05,1.7-.14.65-.09,1.27-.23,1.86-.43.95-.31,1.54-.58,1.78-.81s.35-.56.35-1v-6.37c0-1.54-.22-2.51-.65-2.89-.44-.38-1.39-.62-2.86-.71v-.74h10.2v.74c-.99.06-1.65.23-1.97.49-.55.42-.82,1.28-.82,2.58v7.87c0,.47-1.15,1.09-3.45,1.88s-4.51,1.17-6.63,1.17c-3.91,0-7.2-1.14-9.88-3.42-2.96-2.51-4.43-5.89-4.43-10.12,0-3.72,1.18-6.91,3.54-9.57,2.59-2.93,6.03-4.39,10.31-4.39,1.55,0,3.07.21,4.57.64Z"/><path class="i" d="m188.03,84.37v-.74c1.03-.12,1.8-.5,2.31-1.16.51-.66,1.4-2.46,2.64-5.4l8.33-19.63h.8l9.97,22.68c.66,1.5,1.19,2.43,1.59,2.79.4.36,1.06.6,2,.73v.74h-10.17v-.74c1.17-.1,1.92-.23,2.26-.38.34-.15.51-.52.51-1.1,0-.19-.07-.54-.2-1.03-.13-.49-.31-1.01-.55-1.55l-1.6-3.85h-10.54c-1.04,2.62-1.66,4.21-1.86,4.79-.2.58-.3,1.03-.3,1.37,0,.67.27,1.14.82,1.4.34.15.97.27,1.91.35v.74h-7.93Zm17.23-10.27l-4.58-11.02-4.61,11.02h9.19Z"/><path class="i" d="m216.98,83.63c1.63-.12,2.68-.36,3.16-.73s.72-1.32.72-2.87v-17.79c0-1.47-.24-2.42-.72-2.84-.48-.42-1.54-.67-3.16-.75v-.74h11.84v.74c-1.63.08-2.68.33-3.16.75-.48.42-.72,1.37-.72,2.84v17.79c0,1.54.24,2.5.72,2.87s1.54.61,3.16.73v.74h-11.84v-.74Z"/><path class="i" d="m230.1,83.63c1.65-.17,2.71-.54,3.18-1.12.47-.58.7-1.92.7-4.03v-17.62l-.55-.64c-.59-.69-1.08-1.12-1.49-1.28-.41-.16-1.03-.26-1.85-.28v-.74h6.83l15.44,19.14v-13.29c0-2.19-.33-3.61-.98-4.27-.43-.43-1.38-.71-2.85-.83v-.74h9.39v.74c-1.52.16-2.54.53-3.05,1.11s-.76,1.93-.76,4.02v21.05h-.68l-17.7-21.93v15.57c0,2.19.32,3.61.96,4.27.42.43,1.35.72,2.79.88v.74h-9.39v-.74Z"/><circle class="f" cx="66.52" cy="44.82" r="6.82"/><rect class="g" x="175.02" y="14.98" width="4" height="258.03" rx="1.5" ry="1.5" transform="translate(321.02 -33.02) rotate(90)"/><path class="f" d="m243.03,131.41c16.71,3.26,33.81,4.25,50.78,2.88,1.91-.15,1.93-3.16,0-3-16.7,1.35-33.54.44-49.99-2.77-1.89-.37-2.69,2.52-.8,2.89h0Z"/><path class="f" d="m76.12,35.04c21.76-3.37,43.64-5.88,65.6-7.51,21.84-1.63,43.75-2.39,65.65-2.3,12.39.05,24.77.39,37.14.99,1.93.09,1.92-2.91,0-3-22.12-1.08-44.29-1.29-66.42-.61-21.97.68-43.92,2.22-65.77,4.63-12.36,1.36-24.7,3-36.99,4.91-1.9.29-1.09,3.19.8,2.89h0Z"/><path class="f" d="m269.65,28.64l.6-1.21c.33-.52.51-1.07.53-1.67.13-.6.11-1.2-.08-1.79-.14-.59-.41-1.1-.81-1.53-.32-.49-.74-.88-1.26-1.16l-1.07-.45c-.8-.21-1.6-.21-2.39,0l-1.07.45c-.68.4-1.21.94-1.61,1.61l-.6,1.21c-.33.52-.51,1.07-.53,1.67-.13.6-.11,1.2.08,1.79.14.59.41,1.1.81,1.53.32.49.74.88,1.26,1.16l1.07.45c.8.21,1.6.21,2.39,0l1.07-.45c.68-.4,1.21-.94,1.61-1.61h0Z"/><path class="f" d="m18.61,111.38c-2.01,5.59,2.25,10.9,6.83,13.56,4.43,2.57,9.61,3.64,14.6,4.48,10.98,1.84,22.09,2.87,33.21,3.4,22.1,1.05,44.23.2,66.35.24,12.48.02,24.96.34,37.39,1.42,2.35.21,4.6-2.22,4.5-4.5-.12-2.61-1.98-4.28-4.5-4.5-21.25-1.85-42.61-1.44-63.92-1.22-21.01.21-42.11.26-62.99-2.38-.31-.04-.63-.08-.94-.12-1.54-.2.86.12-.68-.09-.7-.1-1.4-.2-2.1-.3-1.46-.22-2.92-.45-4.38-.69-2.68-.46-5.36-.98-7.95-1.79-.61-.19-1.21-.39-1.8-.61-.26-.1-.52-.19-.77-.3.77.33-.08-.06-.23-.13-.55-.27-1.1-.55-1.62-.88-.23-.14-.46-.3-.69-.45-1.02-.68.52.54-.35-.28-.19-.18-.38-.35-.56-.53-.08-.08-.78-.85-.38-.38.37.43-.09-.14-.17-.26-.1-.16-.42-.53-.42-.74-.02.51.18.62.1.16-.05-.28-.17-1.29-.05-.04-.07-.73-.07.31-.1.26-.09-.12.22-.82.26-.93.8-2.22-.9-5.02-3.14-5.54-2.53-.58-4.68.77-5.54,3.14h0Z"/><path class="e" d="m27.82,109.29c3.7,1.96,7.71,3.24,11.78,4.23,31.74,7.72,65.67-2.47,97.56,4.6"/><path class="e" d="m27.07,110.58c6.33,3.3,13.43,4.95,20.45,6.01,7.16,1.09,14.39,1.48,21.63,1.49,14.49.03,28.94-1.34,43.43-1.09,8.12.14,16.23.82,24.18,2.56,1.88.41,2.69-2.48.8-2.89-28.31-6.2-57.26.81-85.79-2.5-7.87-.92-16.1-2.48-23.19-6.17-1.71-.89-3.23,1.7-1.51,2.59h0Z"/></svg>