<?xml version="1.0" encoding="UTF-8"?><svg id="b" xmlns="http://www.w3.org/2000/svg" width="1366" height="769.21" viewBox="0 0 1366 769.21"><defs><style>.d{fill:#e7d7ff;}.e{fill:#ef7d5b;}.f{fill:#f4840b;}.g{fill:#fff;}.h{fill:#ffefe6;}.i{fill:#fff5ea;}.j{fill:#ffe7cc;}.k,.l{fill:#ffd0ab;}.m{fill:#f22e00;}.n{fill:#6b523e;}.o{fill:#b59b7f;}.p{fill:#d22f00;}.q{fill:#dab994;}.r{fill:#4479c4;}.s{fill:#0e0000;}.t{fill:#a38971;}.u{fill:#354235;}.v{fill:#3d2a24;}.w{fill:#4f372e;}.l{stroke:#b59b7f;stroke-miterlimit:10;}</style></defs><rect class="i" x="1.51" y=".97" width="1366" height="769.21"/><rect class="d" x="65.51" y="61.21" width="1232" height="661"/><path class="i" d="m607.57,232.41c-8.05-6.52-17.58-10.98-27.8-12.75s-20.44-1.04-30.28,1.65c-10.09,2.76-19.64,7.54-28,13.81-8.68,6.52-16.17,14.59-21.85,23.86-5.86,9.57-9.66,20.29-11.11,31.42-.19,1.45-.33,2.91-.44,4.37-.15,1.95,2.79,1.88,3,0,3.57-31.72,7.14-63.44,10.71-95.15,1.79-15.95,3.59-31.89,5.38-47.84.77-6.86,1-14.26,3.65-20.73,2.35-5.73,7.14-9.45,13.17-10.62,9.04-1.75,18.23,2.25,24.61,8.53,6.45,6.35,10.56,14.82,12.85,23.5,2.47,9.35,2.95,19.36,1.09,28.87-2.01,10.26-7.01,19.53-14.15,27.15-15.1,16.12-37.92,22.74-59.56,21.13-2.6-.19-5.19-.51-7.77-.95-1.65-.28-2.62,1.76-1.16,2.74,19.52,13.08,38.42,27.34,54.88,44.18,15.96,16.33,29.87,35.49,36.5,57.58,3.77,12.57,4.93,25.73,3.44,38.77l2.56-1.06c-14.89-14.49-29.09-29.69-42.53-45.53-13.62-16.05-26.48-32.74-38.55-49.99-12.19-17.42-23.58-35.41-34.14-53.86-5.28-9.23-10.36-18.59-15.22-28.05-4.42-8.59-8.5-17.36-13.26-25.78-7.8-13.79-18.83-29.92-35.79-32.45-6.56-.98-13.09.42-18.68,4.02-5.68,3.67-10.09,9.08-13.28,14.99-6.91,12.82-9.07,29.01-4.45,42.95,5.14,15.49,18.33,27.22,33.46,32.61,15.75,5.61,33.02,4.62,48.5-1.32,19.32-7.41,35.68-20.72,50.9-34.43,3.81-3.43,7.56-6.92,11.31-10.41l-2.51-1.46c-4.17,29.57-11.92,58.64-23.13,86.32-10.95,27.04-25.27,52.79-42.77,76.15-4.22,5.64-9.05,11.08-11.42,17.83-1.71,4.88-1.86,10.25.15,15.06,3.53,8.44,12.5,13.39,21.33,14.1,4.53.36,9.18-.46,13.23-2.54,4.66-2.38,8.13-6.56,10.74-11.01,6.5-11.09,7.46-24.72,6.4-37.27-.58-6.84-1.83-13.56-3.4-20.23-1.9-8.05-4.07-16.11-4.85-24.37-.7-7.36-.35-14.91,2.66-21.76,2.41-5.47,6.35-10.83,11.91-13.38,2.42-1.11,5.14-1.52,7.78-1.08,1.89.32,2.7-2.57.8-2.89-12.72-2.13-21.95,10.21-25,21.11-4.3,15.36,1.27,31.63,4.6,46.6,2.78,12.51,4.17,25.91,1.45,38.56-2.15,10.03-7.6,21.6-18.32,24.55-8.23,2.26-17.9-.39-23.59-6.81-2.79-3.15-4.32-7.23-4.23-11.44.14-6.84,4.14-12.72,8.13-17.98,8.56-11.27,16.65-22.8,23.87-34.98,7.4-12.48,13.99-25.43,19.77-38.73,11.69-26.9,20.13-55.2,25.09-84.11.62-3.63,1.19-7.27,1.7-10.91.2-1.42-1.32-2.56-2.51-1.46-14.85,13.83-29.95,27.94-47.79,37.88-8.06,4.49-16.74,8.16-25.83,9.94-7.67,1.5-15.68,1.65-23.39.36-15.59-2.61-29.98-11.12-38.2-24.85-7.56-12.62-7.84-28.2-3.01-41.87,4.07-11.5,13.1-23.89,26.26-25.01,16.42-1.4,28.38,13.08,36.17,25.6,4.74,7.62,8.68,15.67,12.68,23.69,4.69,9.39,9.58,18.68,14.68,27.86,10.04,18.08,20.87,35.73,32.46,52.86,11.5,16.99,23.74,33.47,36.71,49.36,12.78,15.68,26.28,30.78,40.45,45.21,3.47,3.53,6.97,7.02,10.52,10.46,1.01.98,2.42.18,2.56-1.06,1.35-11.8.55-23.77-2.36-35.28-2.83-11.18-7.58-21.84-13.56-31.69-12.44-20.52-29.85-37.71-48.39-52.74-10.27-8.32-21.02-16.05-32-23.41l-1.16,2.74c22.35,3.79,46.65-.82,64.39-15.46,8.55-7.05,15.45-16.47,18.96-27.03,3.21-9.67,3.73-20.13,2.23-30.17-2.65-17.66-13.23-37.95-32.45-41.37-5.71-1.02-11.82-.44-16.91,2.48-5.82,3.34-8.8,9.32-10.17,15.68-.77,3.57-1.14,7.21-1.55,10.83-.47,4.21-.95,8.41-1.42,12.62-.93,8.24-1.85,16.47-2.78,24.71-3.71,32.94-7.42,65.89-11.12,98.83-.45,4.03-.91,8.06-1.36,12.09h3c1.61-21.5,12.62-41.27,29.17-54.9,15.21-12.52,35.28-19.93,55.08-17.83,10.99,1.17,21.52,5.53,30.1,12.49,1.49,1.2,3.62-.91,2.12-2.12h0Z"/><path class="i" d="m1006.3,496.05c-16.15-12.33-39.29,2.71-43.64,20.07-2.35,9.36,1.18,18.93,7.85,25.65,6.93,6.99,16.67,10.75,26.37,11.55,10.29.86,20.55-1.84,28.88-7.97,9.32-6.86,15.79-16.83,19.42-27.73,8.75-26.25-.13-53.42-12.59-76.87-7.01-13.19-15.22-25.67-22.68-38.6-7.45-12.91-14.72-26.68-17.97-41.35-1.49-6.72-1.3-14.07,3.5-19.45,3.42-3.84,8.28-5.95,13.19-7.16,11.97-2.94,24.54-.97,36.55.57,32.07,4.12,63.85,10.58,95,19.27,11.92,3.32,29.39,6.3,30.32,21.62.74,12.1-7.44,22.56-17.65,28.03-12.29,6.58-26.58,7.99-39.9,11.45-12.09,3.14-23.84,7.48-35.18,12.7-23.08,10.62-44.26,24.89-64.43,40.24s-40.16,32.44-60.31,48.57c-21.03,16.84-42.75,32.7-66.26,45.92-26.09,14.67-53.53,26.69-80.7,39.17-13.53,6.22-27.01,12.55-40.23,19.4-6.66,3.45-13.26,7.02-19.76,10.77-5.64,3.26-11.32,6.54-16.46,10.56-8.4,6.59-15.08,16.16-13.38,27.31,1.24,8.15,7.24,14.33,14.07,18.42,8.47,5.07,18.37,7.62,28.07,8.91,11.39,1.51,22.37.52,33.72-.86,31.14-3.79,62.17-8.42,93.06-13.9,31.04-5.51,61.93-11.87,92.63-19.08s61.16-15.25,91.4-24.14,60.2-18.59,89.89-29.12c14.34-5.09,28.6-10.37,42.8-15.83,1.1-.42,1.43-1.6.66-2.51-31.21-37.17-68.83-68.8-110.43-93.75-41.79-25.06-87.64-43.44-135.2-54.07-26.65-5.95-53.84-9.46-81.12-10.39-1.93-.07-1.93,2.93,0,3,48.55,1.66,96.67,11.59,142.08,28.8,45.11,17.1,87.59,41.4,125,71.89,20.9,17.03,40.21,36,57.56,56.65l.66-2.51c-28.96,11.15-58.23,21.52-87.75,31.08-29.54,9.56-59.34,18.32-89.36,26.27-30.03,7.95-60.28,15.09-90.69,21.4-30.43,6.32-61.03,11.81-91.75,16.46-15.53,2.35-31.1,4.49-46.7,6.42-11.55,1.42-22.81,2.76-34.43,1.44-9.76-1.11-19.82-3.58-28.34-8.61-7.01-4.14-13-10.6-13.07-19.17-.11-12.69,10.6-21.12,20.41-27.2,12.39-7.68,25.35-14.47,38.41-20.93,26.45-13.09,53.65-24.58,80.18-37.5,25.16-12.26,49.29-26.13,71.88-42.68,20.55-15.06,40.01-31.52,59.76-47.59,19.68-16.02,39.72-31.75,61.39-45.02,21.32-13.05,44.23-23.47,68.67-29.05,12.95-2.95,26.7-4.96,38.08-12.3,8.94-5.77,15.45-15.69,15.78-26.51.15-4.88-1.21-9.78-4.24-13.66-3.91-4.99-9.91-7.49-15.8-9.34-14.94-4.7-30.22-8.5-45.5-11.94s-31.05-6.42-46.71-8.81c-7.66-1.17-15.34-2.21-23.04-3.11-5.93-.7-11.84-1.34-17.83-1.18-9.52.26-20.69,2.12-27.28,9.71-9.09,10.46-3.92,25.3.53,36.66,10.75,27.46,29.73,50.61,41.86,77.39,10.75,23.72,15.41,51.97,1.2,75.36-5.83,9.61-14.88,17.57-25.92,20.38-9.79,2.49-20.68,1.29-29.65-3.37s-15.94-12.79-16.29-22.81c-.34-9.87,6.16-19.02,14.26-24.12,7.92-4.99,17.87-6.23,25.64-.29,1.53,1.17,3.03-1.43,1.51-2.59h0Z"/><path d="m645.2,330.98c1.5.43,2.36.64,2.58.64.57,0,.98-.11,1.22-.33.24-.22.45-.54.62-.96h.88l.31,8.42h-.92c-.82-1.94-1.67-3.39-2.54-4.34-1.58-1.67-3.63-2.5-6.15-2.5s-4.82.97-6.77,2.92c-1.95,1.95-2.92,5.15-2.92,9.62,0,3.69.97,6.56,2.91,8.63s4.34,3.11,7.19,3.11c.48,0,1.05-.05,1.7-.14.65-.09,1.27-.23,1.86-.43.95-.31,1.54-.58,1.78-.81.23-.23.35-.56.35-1v-6.37c0-1.54-.22-2.51-.65-2.89-.44-.38-1.39-.62-2.86-.71v-.74h10.2v.74c-.99.07-1.65.23-1.97.49-.55.42-.82,1.28-.82,2.58v7.87c0,.47-1.15,1.09-3.45,1.88s-4.51,1.17-6.63,1.17c-3.91,0-7.2-1.14-9.88-3.42-2.96-2.51-4.43-5.89-4.43-10.12,0-3.72,1.18-6.91,3.54-9.57,2.59-2.93,6.03-4.39,10.31-4.39,1.55,0,3.07.21,4.57.64Z"/><path d="m659.93,333.78c2.46-2.36,5.49-3.54,9.08-3.54s6.64,1.19,9.1,3.55c2.67,2.57,4,5.98,4,10.25s-1.38,7.79-4.14,10.35c-2.47,2.29-5.46,3.44-8.96,3.44-3.75,0-6.86-1.27-9.34-3.81-2.51-2.59-3.77-5.92-3.77-9.98,0-4.27,1.34-7.7,4.02-10.27Zm2.99,19.6c1.66,2.01,3.69,3.02,6.1,3.02s4.38-.98,6.05-2.94c1.67-1.96,2.51-5.09,2.51-9.4s-.85-7.51-2.54-9.45c-1.69-1.94-3.7-2.91-6.02-2.91s-4.43,1.01-6.09,3.02-2.49,5.13-2.49,9.35.83,7.31,2.48,9.33Z"/><path d="m688.82,333.78c2.46-2.36,5.49-3.54,9.08-3.54s6.64,1.19,9.1,3.55c2.67,2.57,4,5.98,4,10.25s-1.38,7.79-4.14,10.35c-2.47,2.29-5.46,3.44-8.96,3.44-3.75,0-6.86-1.27-9.34-3.81-2.51-2.59-3.77-5.92-3.77-9.98,0-4.27,1.34-7.7,4.02-10.27Zm2.99,19.6c1.66,2.01,3.69,3.02,6.1,3.02s4.38-.98,6.05-2.94c1.67-1.96,2.51-5.09,2.51-9.4s-.85-7.51-2.54-9.45c-1.69-1.94-3.7-2.91-6.02-2.91s-4.43,1.01-6.09,3.02-2.49,5.13-2.49,9.35.83,7.31,2.48,9.33Z"/><path d="m713.13,356.53c1.46-.16,2.41-.42,2.85-.79s.66-1.3.66-2.81v-17.79c0-1.46-.21-2.4-.64-2.81-.43-.42-1.39-.68-2.87-.78v-.74h10.78c3.63,0,6.71.6,9.22,1.8,4.53,2.15,6.8,5.99,6.8,11.52,0,1.99-.41,3.89-1.22,5.68s-2.04,3.31-3.68,4.55c-1.04.78-2.12,1.37-3.24,1.78-2.04.76-4.56,1.13-7.54,1.13h-11.11v-.74Zm8.06-1.06c.32.21.98.31,1.98.31,3.12,0,5.7-.62,7.71-1.86,3.1-1.9,4.65-5.15,4.65-9.75,0-4.1-1.28-7.19-3.83-9.27-2.19-1.77-5.08-2.66-8.69-2.66-.9,0-1.51.1-1.83.29s-.48.63-.48,1.29v20.35c0,.65.16,1.08.48,1.29Z"/><path d="m752.38,353.43c.4-.31.82-.46,1.28-.46.9,0,1.56.55,1.99,1.66.43,1.11.89,1.66,1.37,1.66.52,0,.88-.23,1.08-.68.2-.46.3-1.25.3-2.38v-18.09c0-1.48-.24-2.43-.72-2.85-.48-.42-1.48-.66-2.99-.74v-.74h11.48v.74c-1.55.09-2.56.37-3.02.83-.46.46-.69,1.38-.69,2.76v14.69c0,2.68-.64,4.67-1.93,5.96-1.29,1.3-2.88,1.95-4.79,1.95-1.25,0-2.22-.29-2.92-.86s-1.04-1.21-1.04-1.91.2-1.23.6-1.53Z"/><path d="m772.16,333.78c2.46-2.36,5.49-3.54,9.08-3.54s6.64,1.19,9.1,3.55c2.67,2.57,4,5.98,4,10.25s-1.38,7.79-4.14,10.35c-2.47,2.29-5.46,3.44-8.96,3.44-3.75,0-6.86-1.27-9.34-3.81-2.51-2.59-3.77-5.92-3.77-9.98,0-4.27,1.34-7.7,4.02-10.27Zm2.99,19.6c1.66,2.01,3.69,3.02,6.1,3.02s4.38-.98,6.05-2.94c1.67-1.96,2.51-5.09,2.51-9.4s-.85-7.51-2.54-9.45c-1.69-1.94-3.7-2.91-6.02-2.91s-4.43,1.01-6.09,3.02-2.49,5.13-2.49,9.35.83,7.31,2.48,9.33Z"/><path d="m796.53,356.53c1.61-.09,2.65-.34,3.12-.75.47-.41.71-1.36.71-2.85v-17.79c0-1.47-.24-2.42-.71-2.84-.47-.42-1.51-.67-3.12-.75v-.74h11.2c3.2,0,5.74.51,7.62,1.54,1.88,1.03,2.82,2.8,2.82,5.32,0,1.89-.66,3.32-1.97,4.3-.74.56-1.86,1.02-3.34,1.39,1.84.44,3.41,1.18,4.71,2.21,1.3,1.03,1.95,2.48,1.95,4.34,0,3.12-1.44,5.27-4.33,6.44-1.52.61-3.4.92-5.62.92h-13.04v-.74Zm15.04-14.51c1.69-.78,2.54-2.19,2.54-4.21,0-2.39-.98-4-2.93-4.83-1.08-.46-2.72-.68-4.92-.68-.83,0-1.35.07-1.54.22-.2.14-.29.54-.29,1.17v9.04l3.81-.06c1.34-.03,2.45-.24,3.34-.65Zm1.29,12.62c1.38-.79,2.07-2.32,2.07-4.57s-.81-3.77-2.42-4.59-3.67-1.23-6.17-1.23h-1.16c-.16,0-.41,0-.75-.02v9.96c0,.69.2,1.14.59,1.34.39.2,1.3.3,2.71.3,2.04,0,3.76-.4,5.14-1.19Z"/><path d="m831.92,334.12c-.01.23-.04.5-.08.81l-.88,7.4-.92,7.91h-.51l-.37-4.3c-.1-1.22-.39-3.56-.86-7.01-.42-3.01-.62-4.82-.62-5.45,0-.81.16-1.55.47-2.23.31-.68.89-1.02,1.74-1.02s1.47.46,1.8,1.39c.17.48.25,1.08.25,1.8,0,.23,0,.47-.02.69Zm-3.61,23c-.42-.39-.63-.89-.63-1.5s.21-1.09.62-1.52.93-.64,1.54-.64,1.09.22,1.49.65c.4.44.6.94.6,1.51s-.21,1.06-.63,1.47-.94.62-1.55.62c-.55,0-1.03-.2-1.45-.59Z"/><path d="m856.43,330.81v.74c-.94-.03-1.64.05-2.11.21-.47.17-.7.53-.7,1.09,0,.17.04.38.12.63s.25.59.53,1.01l5.89,8.63,5.74-8.77c.23-.38.39-.69.46-.94.07-.25.11-.43.11-.55,0-.57-.31-.95-.92-1.13-.37-.12-.99-.18-1.88-.2v-.74h8.74v.74c-.81.04-1.53.28-2.16.72-.99.69-2.1,1.97-3.33,3.85l-5.91,9.02v7.78c0,1.55.25,2.51.75,2.9.5.38,1.62.62,3.37.71v.74h-12.21v-.74c1.81-.1,2.93-.37,3.37-.81s.65-1.52.65-3.27v-6.94l-5.23-7.68c-1.81-2.64-3.08-4.34-3.81-5.09-.73-.75-1.61-1.15-2.66-1.2v-.74h11.19Z"/><path d="m878.47,333.78c2.46-2.36,5.49-3.54,9.08-3.54s6.64,1.19,9.1,3.55c2.67,2.57,4,5.98,4,10.25s-1.38,7.79-4.14,10.35c-2.47,2.29-5.46,3.44-8.96,3.44-3.75,0-6.86-1.27-9.34-3.81-2.51-2.59-3.77-5.92-3.77-9.98,0-4.27,1.34-7.7,4.02-10.27Zm2.99,19.6c1.66,2.01,3.69,3.02,6.1,3.02s4.38-.98,6.05-2.94c1.67-1.96,2.51-5.09,2.51-9.4s-.85-7.51-2.54-9.45c-1.69-1.94-3.7-2.91-6.02-2.91s-4.43,1.01-6.09,3.02-2.49,5.13-2.49,9.35.83,7.31,2.48,9.33Z"/><path d="m914.03,330.81v.74c-1.54.1-2.53.36-2.99.77s-.68,1.35-.68,2.82v12.79c0,2.1.29,3.73.86,4.9,1.07,2.14,3.09,3.2,6.07,3.2,3.27,0,5.46-1.09,6.58-3.28.62-1.22.94-3.11.94-5.66v-10.41c0-2.17-.26-3.54-.78-4.09-.52-.55-1.51-.9-2.97-1.04v-.74h9.26v.74c-1.55.17-2.56.54-3.04,1.12-.48.58-.71,1.92-.71,4.01v10.41c0,2.76-.42,4.92-1.27,6.46-1.56,2.85-4.53,4.28-8.91,4.28s-7.27-1.41-8.83-4.22c-.85-1.51-1.27-3.5-1.27-5.98v-12.5c0-1.46-.22-2.39-.67-2.8s-1.43-.67-2.94-.79v-.74h11.35Z"/><path d="m941.67,356.53c1.46-.16,2.41-.42,2.85-.79s.66-1.3.66-2.81v-17.79c0-1.46-.21-2.4-.64-2.81-.43-.42-1.39-.68-2.87-.78v-.74h10.78c3.63,0,6.71.6,9.22,1.8,4.53,2.15,6.8,5.99,6.8,11.52,0,1.99-.41,3.89-1.22,5.68s-2.04,3.31-3.68,4.55c-1.04.78-2.12,1.37-3.24,1.78-2.04.76-4.56,1.13-7.54,1.13h-11.11v-.74Zm8.06-1.06c.32.21.98.31,1.98.31,3.12,0,5.7-.62,7.71-1.86,3.1-1.9,4.65-5.15,4.65-9.75,0-4.1-1.28-7.19-3.83-9.27-2.19-1.77-5.08-2.66-8.69-2.66-.9,0-1.51.1-1.83.29s-.48.63-.48,1.29v20.35c0,.65.16,1.08.48,1.29Z"/><path d="m970.56,356.53c1.63-.12,2.68-.36,3.16-.73s.72-1.32.72-2.87v-17.79c0-1.47-.24-2.42-.72-2.84-.48-.42-1.54-.67-3.16-.75v-.74h11.84v.74c-1.63.08-2.68.33-3.16.75-.48.42-.72,1.37-.72,2.84v17.79c0,1.54.24,2.5.72,2.87s1.54.61,3.16.73v.74h-11.84v-.74Z"/><path d="m983.88,356.53c1.46-.16,2.41-.42,2.85-.79s.66-1.3.66-2.81v-17.79c0-1.46-.21-2.4-.64-2.81-.43-.42-1.39-.68-2.87-.78v-.74h10.78c3.63,0,6.71.6,9.22,1.8,4.53,2.15,6.8,5.99,6.8,11.52,0,1.99-.41,3.89-1.22,5.68s-2.04,3.31-3.68,4.55c-1.04.78-2.12,1.37-3.24,1.78-2.04.76-4.56,1.13-7.54,1.13h-11.11v-.74Zm8.06-1.06c.32.21.98.31,1.98.31,3.12,0,5.7-.62,7.71-1.86,3.1-1.9,4.65-5.15,4.65-9.75,0-4.1-1.28-7.19-3.83-9.27-2.19-1.77-5.08-2.66-8.69-2.66-.9,0-1.51.1-1.83.29s-.48.63-.48,1.29v20.35c0,.65.16,1.08.48,1.29Z"/><path d="m1022.76,356.53c1.63-.12,2.68-.36,3.16-.73s.72-1.32.72-2.87v-17.79c0-1.47-.24-2.42-.72-2.84-.48-.42-1.54-.67-3.16-.75v-.74h11.84v.74c-1.63.08-2.68.33-3.16.75-.48.42-.72,1.37-.72,2.84v17.79c0,1.54.24,2.5.72,2.87s1.54.61,3.16.73v.74h-11.84v-.74Z"/><path d="m1036.22,330.81h22.62l.21,6.8h-.96c-.47-2.14-1.06-3.53-1.79-4.17s-2.24-.97-4.56-.97h-2.23v20.47c0,1.54.24,2.5.72,2.87s1.54.61,3.16.73v.74h-11.66v-.74c1.69-.13,2.75-.41,3.16-.84s.62-1.5.62-3.23v-20h-2.25c-2.21,0-3.72.32-4.52.96-.8.64-1.4,2.03-1.81,4.18h-.98l.23-6.8Z"/><path d="m1061.86,357.09c-.43-.44-.64-.96-.64-1.57s.22-1.13.65-1.56.96-.64,1.57-.64,1.13.21,1.56.64.64.95.64,1.56-.21,1.14-.63,1.57-.95.65-1.57.65-1.15-.22-1.58-.65Z"/><path d="m645.09,378.98c1.52.43,2.38.64,2.56.64.38,0,.74-.1,1.07-.31.34-.21.57-.53.7-.98h.84l.37,8.98h-.92c-.53-1.78-1.23-3.22-2.09-4.32-1.64-2.06-3.85-3.09-6.62-3.09s-5.09,1.11-6.87,3.32c-1.78,2.21-2.67,5.26-2.67,9.14,0,3.57.93,6.42,2.8,8.54s4.24,3.19,7.1,3.19c2.07,0,3.98-.49,5.72-1.48,1-.56,2.1-1.41,3.3-2.54l.74.74c-.89,1.12-1.99,2.1-3.3,2.95-2.24,1.43-4.67,2.15-7.29,2.15-4.3,0-7.71-1.37-10.23-4.12-2.33-2.54-3.5-5.71-3.5-9.51s1.23-7.16,3.69-9.8c2.59-2.77,5.96-4.16,10.12-4.16,1.45,0,2.93.21,4.45.64Z"/><path d="m653.15,404.53c1.56-.17,2.54-.46,2.93-.86.39-.41.59-1.47.59-3.2v-17.32c0-1.43-.22-2.36-.65-2.79s-1.39-.7-2.86-.8v-.74h11.09v.74c-1.46.1-2.42.37-2.86.8s-.66,1.36-.66,2.79v7.79h12.15v-7.79c0-1.43-.21-2.36-.64-2.79s-1.39-.7-2.87-.8v-.74h11.09v.74c-1.47.1-2.42.37-2.86.8s-.65,1.36-.65,2.79v17.79c0,1.45.22,2.38.65,2.79s1.39.68,2.86.81v.74h-11.09v-.74c1.58-.16,2.56-.44,2.94-.85.38-.42.58-1.48.58-3.21v-7.77h-12.15v8.24c0,1.45.22,2.38.66,2.8s1.39.68,2.86.8v.74h-11.09v-.74Z"/><path d="m681.84,404.53c1.47-.16,2.42-.42,2.86-.79s.65-1.3.65-2.81v-17.79c0-1.42-.21-2.35-.64-2.78-.43-.44-1.39-.71-2.87-.81v-.74h21.25l.14,5.72h-1.02c-.34-1.76-.85-2.9-1.52-3.42-.68-.52-2.19-.78-4.53-.78h-5.45c-.59,0-.95.09-1.09.28-.14.19-.21.54-.21,1.06v8.93h6.17c1.71,0,2.79-.25,3.26-.76s.85-1.53,1.13-3.07h.94v9.24h-.94c-.3-1.55-.68-2.57-1.15-3.08-.47-.5-1.55-.75-3.24-.75h-6.17v9.9c0,.79.25,1.26.75,1.41.5.14,2,.21,4.51.21,2.71,0,4.71-.3,6-.89,1.29-.59,2.45-2.03,3.48-4.31h1.11l-1.82,6.76h-21.62v-.74Z"/><path d="m706.28,404.53c1.47-.16,2.42-.42,2.86-.79s.65-1.3.65-2.81v-17.79c0-1.42-.21-2.35-.64-2.78-.43-.44-1.39-.71-2.87-.81v-.74h21.25l.14,5.72h-1.02c-.34-1.76-.85-2.9-1.52-3.42-.68-.52-2.19-.78-4.53-.78h-5.45c-.59,0-.95.09-1.09.28-.14.19-.21.54-.21,1.06v8.93h6.17c1.71,0,2.79-.25,3.26-.76s.85-1.53,1.13-3.07h.94v9.24h-.94c-.3-1.55-.68-2.57-1.15-3.08-.47-.5-1.55-.75-3.24-.75h-6.17v9.9c0,.79.25,1.26.75,1.41.5.14,2,.21,4.51.21,2.71,0,4.71-.3,6-.89,1.29-.59,2.45-2.03,3.48-4.31h1.11l-1.82,6.76h-21.62v-.74Z"/><path d="m730.71,404.53c1.54-.14,2.49-.44,2.87-.89s.57-1.51.57-3.17v-17.32c0-1.41-.21-2.33-.63-2.76-.42-.44-1.36-.71-2.8-.83v-.74h11.07c2.3,0,4.23.29,5.76.88,2.92,1.1,4.38,3.14,4.38,6.1,0,1.99-.65,3.52-1.94,4.58s-3.06,1.77-5.28,2.11l8.24,10.15c.51.62,1.02,1.07,1.52,1.36.51.28,1.16.46,1.95.54v.74h-6.44l-10-12.32-1.76.1v7.88c0,1.48.22,2.42.67,2.81s1.43.66,2.94.79v.74h-11.11v-.74Zm13.67-13.87c2.12-.87,3.18-2.51,3.18-4.91s-.95-3.89-2.85-4.74c-1.02-.46-2.36-.68-4.04-.68-1.13,0-1.83.08-2.08.24-.25.16-.38.54-.38,1.14v9.85c2.88-.1,4.93-.4,6.17-.9Z"/><path d="m759.52,397.23c.68,1.8,1.47,3.23,2.38,4.3,1.59,1.86,3.56,2.79,5.91,2.79,1.27,0,2.38-.4,3.31-1.21.93-.81,1.39-1.93,1.39-3.38,0-1.3-.47-2.43-1.4-3.4-.61-.61-1.9-1.53-3.86-2.75l-3.41-2.13c-1.03-.65-1.85-1.31-2.46-1.97-1.13-1.26-1.7-2.66-1.7-4.18,0-2.02.67-3.7,2.01-5.04,1.34-1.34,3.12-2.01,5.33-2.01.91,0,2.01.22,3.29.67s2.01.67,2.2.67c.5,0,.84-.12,1.03-.35s.33-.57.44-1h.82l.88,8.52h-.96c-.65-2.56-1.7-4.36-3.13-5.37-1.44-1.02-2.86-1.52-4.27-1.52-1.09,0-2.05.32-2.86.97s-1.22,1.54-1.22,2.69c0,1.03.31,1.91.94,2.64.62.74,1.59,1.52,2.91,2.32l3.51,2.17c2.2,1.35,3.75,2.6,4.65,3.73.89,1.15,1.33,2.5,1.33,4.06,0,2.1-.79,3.85-2.37,5.25s-3.6,2.11-6.06,2.11c-1.24,0-2.53-.23-3.88-.7s-2.12-.7-2.31-.7c-.47,0-.78.14-.95.43-.16.29-.27.59-.32.92h-.88l-1.19-8.52h.92Z"/><path d="m788.6,382.12c-.01.23-.04.5-.08.81l-.88,7.4-.92,7.91h-.51l-.37-4.3c-.1-1.22-.39-3.56-.86-7.01-.42-3.01-.62-4.82-.62-5.45,0-.81.16-1.55.47-2.23.31-.68.89-1.02,1.74-1.02s1.47.46,1.8,1.39c.17.48.25,1.08.25,1.8,0,.23,0,.47-.02.69Zm-3.61,23c-.42-.39-.63-.89-.63-1.5s.21-1.09.62-1.52.93-.64,1.54-.64,1.09.22,1.49.65c.4.44.6.94.6,1.51s-.21,1.06-.63,1.47-.94.62-1.55.62c-.55,0-1.03-.2-1.45-.59Z"/><rect class="u" x="419.52" y="558.04" width="47.99" height="159.96" rx="13.95" ry="13.95"/><rect class="g" x="455.11" y="595.61" width="4.98" height="90.16" rx="1.71" ry="1.71" transform="translate(27.64 -18.87) rotate(2.44)"/><rect class="u" x="436.25" y="522.41" width="16" height="37.81"/><rect class="g" x="439.28" y="523.77" width="4.98" height="33.54" rx="1.71" ry="1.71"/><circle class="g" cx="458.06" cy="587.85" r="2.91"/><ellipse class="w" cx="230.46" cy="311" rx="105.14" ry="156.78"/><ellipse class="n" cx="289.68" cy="254.48" rx="35.05" ry="96.35" transform="translate(-72.38 121.86) rotate(-21.18)"/><rect class="g" x="152.99" y="370.02" width="153.1" height="252.7"/><ellipse class="l" cx="233.22" cy="379.25" rx="28.59" ry="12.91"/><polygon class="k" points="251.72 371.51 215.7 370.02 215.7 311 252.59 311 251.72 371.51"/><ellipse class="n" cx="158.04" cy="224.31" rx="79.31" ry="24.9" transform="translate(-116.34 227.15) rotate(-55.43)"/><rect class="r" x="234.98" y="620.88" width="78.03" height="100.79"/><rect class="r" x="147.13" y="620.89" width="77.21" height="100.79"/><rect class="k" x="290.03" y="470.44" width="129.38" height="39.21" rx="7.62" ry="7.62" transform="translate(546.05 -83.86) rotate(54.34)"/><ellipse class="k" cx="230.46" cy="251.97" rx="70.09" ry="83"/><path class="o" d="m299.8,251.97c-.03,16.65-4.21,33.31-12.81,47.63-7.67,12.78-18.86,23.57-32.6,29.59-13.52,5.92-28.97,6.61-42.96,1.89s-26.07-14.68-34.51-26.84c-9.33-13.46-14.55-29.55-15.6-45.85-1.09-16.82,2.1-33.98,9.8-49.02,6.88-13.44,17.39-25.19,30.77-32.38s28.17-9.1,42.5-5.63,26.91,12.28,36.15,23.7c10.17,12.57,16.36,28.19,18.44,44.16.55,4.22.81,8.48.82,12.73,0,.97,1.5.97,1.5,0-.03-16.96-4.31-33.96-13.1-48.54-7.87-13.05-19.38-24.12-33.48-30.17-13.79-5.92-29.45-6.66-43.69-1.86-14.4,4.85-26.56,14.88-35.21,27.25-9.61,13.72-14.92,30.22-16,46.88-1.11,17.08,2.19,34.51,10,49.78,7.01,13.7,17.79,25.69,31.44,32.99,13.23,7.08,28.74,9.25,43.36,5.74,14.66-3.51,27.54-12.48,36.97-24.12,10.36-12.8,16.67-28.58,18.84-44.86.58-4.34.86-8.72.87-13.1,0-.97-1.5-.97-1.5,0Z"/><ellipse class="v" cx="272.2" cy="212.99" rx="35.05" ry="76.46" transform="translate(-69.03 267.94) rotate(-47.19)"/><ellipse class="v" cx="166.82" cy="224.31" rx="79.31" ry="24.9" transform="translate(-112.54 234.38) rotate(-55.43)"/><rect class="g" x="279.79" y="376.83" width="66.69" height="98.93" rx="5.22" ry="5.22" transform="translate(-189.81 262.51) rotate(-35.66)"/><rect class="k" x="268.68" y="540.03" width="121.74" height="36.2" transform="translate(-234.92 239.55) rotate(-30)"/><rect class="k" x="42.2" y="470.54" width="121.74" height="39.21" rx="7.62" ry="7.62" transform="translate(561.39 692.18) rotate(125.66)"/><rect class="g" x="93.63" y="394.02" width="98.93" height="59.25" rx="5.22" ry="5.22" transform="translate(-284.53 292.91) rotate(-54.34)"/><rect class="k" x="69.59" y="533.06" width="121.74" height="39.21" transform="translate(-32.89 1096.51) rotate(-150)"/><path class="s" d="m211.43,250.06c2.28-3.81-.81-7.59-4.16-9.3-3.89-1.99-8.29-3.4-12.68-3.57-7.52-.29-15.41,4.31-16.27,12.3-.21,1.92,2.8,1.9,3,0,.64-5.96,6.94-9.27,12.38-9.31,3.47-.03,6.9.94,10.09,2.27,2.11.88,6.9,3.03,5.05,6.1-.99,1.66,1.6,3.17,2.59,1.51h0Z"/><path class="s" d="m246.69,248.49c1.93-3.7,4.46-7,7.56-9.78s6.81-5.4,10.89-6.11c7.85-1.36,13.54,6.39,17.27,12.11,1.05,1.61,3.65.11,2.59-1.51-3.49-5.36-7.88-11.29-14.3-13.19-7.16-2.12-14.31,2.51-19.3,7.26-2.95,2.8-5.41,6.11-7.3,9.71-.89,1.71,1.7,3.23,2.59,1.51h0Z"/><path class="g" d="m278.74,722.09l14.04,1.12c.94.08,1.77-.58,1.85-1.47l6.22-69.34c.08-.89-.62-1.67-1.56-1.74l-14.04-1.12c-.94-.08-1.77.58-1.85,1.47l-6.22,69.34c-.08.89.62,1.67,1.56,1.74Z"/><circle class="g" cx="252.02" cy="241.3" r="6.36"/><circle class="g" cx="185.91" cy="244.65" r="5.67"/><circle class="g" cx="260.1" cy="236.04" r="1.84"/><circle class="g" cx="195.74" cy="239.45" r="1.63"/><path class="p" d="m224.92,307.03c2.15-.5,4.32-.66,6.52-.52,2.39.16,4.86,1.27,7.22.43,1.01-.36,1.91-.95,2.9-1.37s2.06-.72,3.11-.96c1.93-.43,4-.54,5.96-.26,1.6.23,3.22-.4,3.69-2.1.39-1.41-.48-3.46-2.1-3.69-5.11-.74-10.14-.04-14.76,2.33-.19.1-.48.36-.67.4-.42.1-1.16-.22-1.59-.31-1.32-.25-2.66-.42-4-.5-2.64-.15-5.31.15-7.89.75-1.58.37-2.51,2.17-2.1,3.69.44,1.62,2.11,2.46,3.69,2.1h0Z"/><path class="p" d="m217.85,310.55c5.34-1.16,10.73-1.53,16.36-1.17,3.05.2,3.97-4.15,1.51-5.59-7.09-4.18-16.24-3.22-22.51,2-1.21,1.01-1.12,3.22,0,4.24,1.29,1.18,2.95,1.07,4.24,0,.17-.14.29-.24.04-.05.15-.11.3-.22.45-.32.34-.24.69-.46,1.04-.67.32-.19.64-.36.97-.52.21-.1.41-.2.62-.29-.28.13-.17.07.05-.01.74-.27,1.48-.51,2.24-.68.36-.08.72-.14,1.08-.21.46-.1-.45.03.02,0,.23-.02.46-.05.69-.06.74-.05,1.47-.06,2.21-.02.23.01.46.03.69.05.06,0,.62.08.29.03s.23.04.28.05c.18.03.36.07.54.11.77.17,1.51.39,2.25.66.22.08.33.13.05,0,.21.09.42.19.63.29.37.18.73.38,1.09.6.5-1.86,1.01-3.73,1.51-5.59-6.01-.39-12.06.11-17.95,1.38-1.54.33-2.58,2.21-2.1,3.69.52,1.62,2.04,2.45,3.69,2.1h0Z"/><rect class="u" x="272.66" y="448.12" width="50.03" height="166.78" rx="13.95" ry="13.95" transform="translate(84.26 -39.08) rotate(8.74)"/><rect class="g" x="309.18" y="489.49" width="5.19" height="94" rx="1.63" ry="1.63" transform="translate(109.93 -50.27) rotate(11.18)"/><rect class="u" x="305.42" y="412.26" width="16.68" height="39.42" rx="1.59" ry="1.59" transform="translate(69.32 -42.68) rotate(8.74)"/><rect class="g" x="308.54" y="415.86" width="5.19" height="32.39" rx="1.63" ry="1.63" transform="translate(69.3 -42.28) rotate(8.74)"/><circle class="g" cx="320.62" cy="482.11" r="3.03"/><path class="g" d="m273.36,588.32c.21,2.86,1.72,5.45,4.12,7.02.66.43,1.69.16,2.05-.54.39-.75.17-1.6-.54-2.05-.12-.08-.24-.16-.36-.25-.16-.12.06.03.1.08-.05-.05-.12-.09-.17-.14-.2-.17-.39-.35-.57-.54-.1-.1-.2-.21-.29-.32-.04-.04-.07-.09-.11-.13-.15-.19,0-.03.05.06-.05-.11-.16-.22-.23-.32-.08-.12-.16-.24-.23-.37-.13-.23-.25-.46-.36-.69-.1-.22,0-.03.03.08-.02-.05-.04-.11-.06-.16-.05-.14-.1-.27-.14-.41-.08-.25-.15-.5-.2-.76-.03-.14-.05-.29-.07-.43.01.05.04.35.02.14,0-.09-.02-.17-.02-.26-.06-.78-.65-1.54-1.5-1.5-.76.03-1.56.66-1.5,1.5h0Z"/><path class="g" d="m317,475.97c1.93,0,1.93-3,0-3s-1.93,3,0,3h0Z"/><rect class="t" x="112.3" y="519.48" width="234.07" height="2.67"/><rect class="t" x="117.36" y="572.62" width="234.07" height="2.86"/><rect class="q" x="110.56" y="574.76" width="241.63" height="51.65"/><rect class="q" x="110.56" y="467.78" width="241.63" height="51.65"/><rect class="g" x="288.04" y="432.74" width="3.7" height="113.93" rx="1.26" ry="1.26" transform="translate(-199.82 779.59) rotate(-90)"/><rect class="q" x="110.56" y="521.27" width="241.63" height="51.65"/><rect class="g" x="182.63" y="465.29" width="5.33" height="133.13" rx="1.71" ry="1.71" transform="translate(-346.56 717.15) rotate(-90)"/><path class="j" d="m355.11,565.14c8.73-4.41,17.31-9.14,25.7-14.17,4.2-2.52,8.35-5.11,12.45-7.78,3.28-2.13,6.98-4.34,8.12-8.34.53-1.86-2.36-2.65-2.89-.8-1.07,3.76-5.7,5.89-8.73,7.83-3.85,2.47-7.74,4.88-11.68,7.22-8,4.76-16.17,9.24-24.48,13.44-1.72.87-.21,3.46,1.51,2.59h0Z"/><path class="j" d="m96.81,553.37c-6.79-2.81-13.46-6.09-19.38-10.48-4.34-3.22-8.08-7.12-11.64-11.16-2.19-2.49-4.34-5.02-6.55-7.49-1.29-1.44-3.4.69-2.12,2.12,3.82,4.27,7.42,8.75,11.47,12.8,4.31,4.31,9.2,7.96,14.5,10.95,4.16,2.35,8.51,4.33,12.92,6.15,1.78.74,2.56-2.16.8-2.89h0Z"/><path class="j" d="m237.85,343.26c.24,12.35.03,24.7-.65,37.03-.11,1.93,2.89,1.92,3,0,.68-12.33.89-24.68.65-37.03-.04-1.93-3.04-1.93-3,0h0Z"/><path class="j" d="m267.8,319.73c7.09-8.09,12.65-17.35,16.49-27.4.69-1.81-2.21-2.59-2.89-.8-3.64,9.54-8.99,18.4-15.72,26.08-1.27,1.45.85,3.58,2.12,2.12h0Z"/><path class="j" d="m205.91,309.25c3.57,6.6,10.77,9.63,17.7,11.4,3.85.98,8.07,2.3,12.08,1.88s7.17-2.57,10.31-4.75c3.79-2.63,7.39-5.5,10.81-8.6,1.43-1.3-.69-3.42-2.12-2.12-3.57,3.24-7.35,6.22-11.35,8.91-1.78,1.2-3.63,2.43-5.69,3.1-2.27.74-4.6.58-6.92.13-8.01-1.55-17.98-3.64-22.22-11.47-.92-1.7-3.51-.19-2.59,1.51h0Z"/><path class="p" d="m205.13,306.27c7.6,7.02,17,12.56,27.57,12.95,5.09.19,10.29-.89,14.79-3.32,4.73-2.55,8.12-6.7,11.4-10.84,4.21-5.32,8.42-10.63,12.64-15.95,1.01-1.27,1.24-3,0-4.24-1.04-1.04-3.23-1.28-4.24,0-3.49,4.41-6.99,8.82-10.48,13.23-3.01,3.8-5.91,8.1-9.82,11.04-7.09,5.33-16.92,5.04-24.75,1.6-4.78-2.1-9.04-5.18-12.86-8.71-1.19-1.1-3.06-1.18-4.24,0-1.11,1.11-1.19,3.14,0,4.24h0Z"/><path class="e" d="m231.22,305.78c-.29,1.14,1.18,1.86,2.34,2.08,3.15.6,6.35.98,9.55,1.12,2.52.12,5.89-.67,5.96-3.19-8.01,3.8-17.06,5.35-25.88,4.43-.5-1.05,1.02-1.87,2.17-2.03,9.33-1.35,18.79-1.78,28.21-1.28"/><path class="p" d="m228.22,305.78c-.37,2.77,2.43,4.56,4.77,5.02,2.85.56,5.77.91,8.67,1.11,4.42.3,9.99-.73,10.4-6.11.19-2.47-2.64-3.47-4.51-2.59-7.59,3.56-16.04,4.85-24.36,4.02.96.73,1.93,1.47,2.89,2.2.12.86-.1,1.48-.67,1.87.31-.17.36-.2.15-.08.52-.09,1.03-.2,1.56-.27,1.18-.16,2.37-.3,3.56-.42,2.51-.27,5.02-.47,7.53-.6,5.11-.28,10.24-.27,15.35,0,1.62.08,3-1.44,3-3,0-1.69-1.38-2.92-3-3-6.25-.32-12.52-.25-18.76.23-3.19.25-6.36.61-9.52,1.05-2.81.39-6.09,2.51-4.99,5.83.45,1.37,1.51,2.06,2.89,2.2,9.4.94,18.86-.83,27.39-4.84-1.5-.86-3.01-1.73-4.51-2.59-.01-.13.02-.25.1-.36.1-.19.08-.15-.06.11.19-.23.21-.26.06-.11-.15.14-.12.12.09-.05-.1.04-.81.41-.31.2-.23.1-.48.16-.72.22-.13.03-.87.17-.67.14.3-.04-.46.02-.53.03-.78.03-1.56-.03-2.34-.09-1.65-.11-3.3-.28-4.94-.53-.89-.14-1.79-.26-2.67-.47-.14-.03-.46-.14-.45-.16.06-.08.47,2.08.61,1.04.21-1.61-1.53-3-3-3-1.8,0-2.79,1.39-3,3h0Z"/><path class="g" d="m257.72,299.38c-2.62.78-5.42.15-8.15.08s-5.88.75-7.02,3.24"/><path class="g" d="m257.32,297.94c-3.09.87-6.29-.25-9.42.1-2.64.3-5.41,1.37-6.64,3.91-.35.73-.2,1.62.54,2.05.66.39,1.7.19,2.05-.54.92-1.9,3.15-2.44,5.1-2.49,3.09-.08,6.11.72,9.17-.14,1.86-.52,1.07-3.42-.8-2.89h0Z"/><path class="m" d="m209.04,304.97c6.96,2.23,14.2,3.63,21.49,4.05,6.84.39,13.78-.3,20.02-3.3,1.74-.84.22-3.42-1.51-2.59-5.88,2.82-12.53,3.27-18.95,2.86-6.88-.44-13.69-1.81-20.26-3.91-1.84-.59-2.63,2.31-.8,2.89h0Z"/><path class="g" d="m290.96,373.16h11.47c1.83-.02,3.66-.02,5.49-.02,1.28,0,2.86-.15,3.82.87,1.33,1.43,3.37-.67,2.12-2.12-2.24-2.61-6.34-2.09-9.41-2.13-4.22-.06-8.44-.11-12.67-.17-3.92-.05-7.82.03-11.56,1.35-3.64,1.28-6.93,3.31-10.18,5.35-1.63,1.02-.13,3.62,1.51,2.59,2.89-1.82,5.83-3.7,9.05-4.9,3.48-1.29,7.03-1.44,10.7-1.4s7.61.1,11.41.15c1.77.02,3.55.02,5.32.07,1.35.04,2.77.11,3.71,1.2.71-.71,1.41-1.41,2.12-2.12-2.37-2.54-6.84-1.75-9.93-1.74l-12.97.02c-1.93,0-1.93,3,0,3h0Z"/><path class="g" d="m148.5,372.18c8.66-.21,17.85-.4,25.48,4.32,1.65,1.02,3.16-1.58,1.51-2.59-8.1-5-17.81-4.95-27-4.73-1.93.05-1.93,3.05,0,3h0Z"/><path class="h" d="m129.7,455.26c8.76-10.23,14.58-22.81,16.55-36.15.28-1.89-2.61-2.7-2.89-.8-1.89,12.82-7.35,24.98-15.78,34.83-1.25,1.46.86,3.59,2.12,2.12h0Z"/><path class="h" d="m269.46,591.21h32.77c1.93,0,1.93-3,0-3h-32.77c-1.93,0-1.93,3,0,3h0Z"/><path class="h" d="m155.72,635.87c-.88,22.2-1.76,44.39-2.64,66.59-.25,6.29-.5,12.59-.75,18.88-.08,1.93,2.92,1.93,3,0,.88-22.2,1.76-44.39,2.64-66.59.25-6.29.5-12.59.75-18.88.08-1.93-2.92-1.93-3,0h0Z"/><path class="q" d="m138.71,271.73c23.34-22.82,43.68-48.71,60.35-76.78"/><path class="q" d="m139.77,272.79c18.22-17.84,34.64-37.52,48.91-58.66,4.07-6.03,7.96-12.17,11.67-18.42.99-1.66-1.6-3.17-2.59-1.51-12.98,21.83-28.15,42.34-45.27,61.11-4.8,5.26-9.75,10.38-14.84,15.37-1.38,1.35.74,3.47,2.12,2.12h0Z"/><path class="q" d="m149.48,299.16c-.41,8.92-.82,17.87-.14,26.78.33,4.4.93,8.8,1.9,13.11s2.42,8.65,3.77,12.93c1.58,4.99,3.15,9.98,4.73,14.97.58,1.83,3.48,1.05,2.89-.8-2.71-8.57-5.75-17.11-7.99-25.81-2.19-8.52-2.72-17.33-2.66-26.1.04-5.03.26-10.06.5-15.08.09-1.93-2.91-1.93-3,0h0Z"/><path class="q" d="m301.06,466.3c1.93,0,1.93-3,0-3s-1.93,3,0,3h0Z"/><path class="q" d="m157.57,643.89v70.32c0,1.93,3,1.93,3,0v-70.32c0-1.93-3-1.93-3,0h0Z"/><path class="f" d="m464.52,699.18c8.23.94,16.5,1.76,24.79,1.92s15.96-.26,23.64-2.26c5.42-1.41,11.6-3.62,14.44-8.85,2.12-3.91,1.63-8.55-1.08-12.04-3.94-5.09-10.84-6.54-16.96-6.16-1.33.08-1.93,1.56-1.06,2.56,6.02,6.91,12.2,13.89,16.63,21.96,3.29,6,5.69,13.13,4.09,20.01-2.95,12.63-15.67,20.42-27.31,23.79-7.51,2.17-15.25,2.83-23.03,2.08-6.87-.66-13.89-2.32-20.1-5.4-3.93-1.95-9.15-5.06-10.01-9.8-.8-4.4,3.45-8.09,6.83-10.16,5.64-3.45,12.27-5.2,18.68-6.57,7.69-1.64,15.51-2.6,23.33-3.31,1.94-.18,3.87-.33,5.81-.48,1.6-.12,2.14-2.54.4-2.95-14.11-3.3-28.38-6.57-41.88-11.94-5.79-2.3-11.47-5.06-16.57-8.67-4.1-2.9-7.89-6.81-9.66-11.6-1.46-3.95-1.41-8.27.67-12,2.64-4.74,7.61-7.7,12.55-9.56,12.23-4.62,25.86-4.03,38.5-1.61,14.61,2.8,28.71,8.06,42.13,14.41,1.19.56,3.07-.73,2.05-2.05-2.65-3.45-3.78-7.51-2.05-11.65,1.95-4.67,6.27-8.19,10.38-10.9,5.85-3.85,12.36-6.66,18.98-8.89,7.67-2.59,15.6-4.41,23.61-5.56s16.23-1.52,24.36-1.27c7.7.23,15.43.99,22.95,2.71,6.14,1.4,12.47,3.4,17.6,7.19,3.32,2.46,6.24,5.91,4.22,10.09-2.15,4.44-7.11,7.37-11.53,9.1-5.57,2.19-11.87,3.13-17.77,1.83-1.44-.32-2.86-.76-4.21-1.36l-1.16,2.74c21.41,5.71,42.48,12.83,62.76,21.78,5.36,2.36,10.66,4.86,15.9,7.48v-2.59c-11.71,6.5-25.61,8.72-38.82,9.37-15.13.74-30.25-.84-44.96-4.38-15.11-3.64-29.63-9.23-43.8-15.56-3.37-1.51-6.73-3.05-10.08-4.6-.84-.39-1.53-.83-2.45-.44-.65.27-1.28.71-1.87,1.09-1.03.66-2.02,1.41-2.92,2.25-3.05,2.85-4.64,6.77-3.94,10.93.71,4.23,3.61,7.91,6.78,10.65,4.2,3.62,9.27,6.15,14.54,7.79,11.79,3.68,25.72,3.13,36.75-2.72,7.53-4,14.28-11.67,12.73-20.75-1.72-10-12.57-15-21.4-17.04-11.44-2.65-23.74-1.99-35.07.87-5.19,1.31-10.32,3.14-15,5.76-3.78,2.11-7.41,4.82-9.85,8.45-1,1.48-1.75,3.16-2.12,4.9-.4,1.88,2.49,2.69,2.89.8,1.03-4.78,5.1-8.22,9.08-10.67,5.68-3.5,12.17-5.63,18.67-7.01,7.25-1.54,14.76-2.08,22.15-1.49,6.86.55,14.07,2.1,19.97,5.79,4.23,2.64,7.82,6.82,7.93,12.02s-2.91,9.47-6.65,12.61c-5.32,4.45-12.41,6.66-19.2,7.44-8.05.92-16.35-.09-23.85-3.2-5.44-2.26-11.09-5.83-14.04-11.09-1.07-1.9-1.73-4.13-1.4-6.32.35-2.34,1.74-4.3,3.47-5.84,1.17-1.04,2.51-1.87,3.89-2.61h-1.51c18.18,8.45,36.64,16.43,56.21,21.07,18.95,4.48,38.79,5.89,58.11,3.07,9.44-1.38,18.93-3.86,27.32-8.51.94-.52,1.01-2.08,0-2.59-19.46-9.74-39.8-17.67-60.57-24.14-6.23-1.94-12.51-3.74-18.82-5.43-1.58-.42-2.75,2.03-1.16,2.74,6.16,2.74,13.08,2.89,19.58,1.32,5.73-1.39,11.69-4.15,15.68-8.61,3.17-3.54,4.81-8.5,1.93-12.75-3.46-5.1-9.69-8.05-15.31-10.04-7.41-2.63-15.31-3.88-23.12-4.57-8.51-.76-17.13-.79-25.65-.05-8.81.76-17.56,2.35-26.07,4.77-7.57,2.16-15.07,4.97-21.92,8.88-8.67,4.94-19.88,14.19-14.77,25.41.54,1.18,1.23,2.26,2.02,3.29l2.05-2.05c-12.53-5.93-25.62-10.94-39.18-13.95-13.25-2.94-27.57-4.18-40.74-.18-5.73,1.74-11.61,4.49-15.47,9.23-3.07,3.78-4.5,8.46-3.8,13.3,1.66,11.57,12.98,18.69,22.65,23.25,13.54,6.39,28.29,10,42.79,13.45,1.9.45,3.8.9,5.7,1.34.13-.98.27-1.96.4-2.95-8.45.64-16.9,1.5-25.25,2.98-7.31,1.3-14.73,3.02-21.42,6.32-4.6,2.27-9.94,6.03-10.91,11.48-.93,5.26,2.81,9.53,6.8,12.39,5.64,4.03,12.65,6.27,19.39,7.56,7.88,1.51,16.03,1.77,23.94.35,13.88-2.48,29.08-9.8,34.84-23.54,6.63-15.8-5.59-31.62-15.26-43.08-1.62-1.92-3.28-3.83-4.93-5.72l-1.06,2.56c4.88-.3,10.35.51,13.9,4.19,2.43,2.52,3.27,6.23,1.59,9.4-2.48,4.7-8.29,6.46-13.07,7.66-7.04,1.78-14.37,2.16-21.6,2.07-8.58-.11-17.14-.97-25.66-1.93-1.92-.22-1.9,2.78,0,3h0Z"/><path class="f" d="m1181.57,160.23c-9.06,2.54-18.56,1.82-27.8.84s-18.31-2.66-27.34-1.49c-6.84.89-13.88,3.27-19.36,7.54-3.83,2.99-7.38,8.01-4.37,12.81.66,1.05,1.75,2.42,2.88,3,.76.38,1.46.06,2.22-.17,1.24-.38,2.48-.75,3.72-1.14,4.25-1.31,8.49-2.66,12.68-4.14,7.69-2.72,15.35-5.85,22.26-10.24,5.76-3.66,11.3-8.32,14.15-14.67,2.4-5.35,2.89-11.45.56-16.92-6.1-14.35-23.69-13.57-36.12-18.25-3.06-1.15-6.34-2.91-8.02-5.84-1.51-2.63-1.01-5.65.37-8.23,3.54-6.57,10.79-10.75,17.46-13.48,14.06-5.74,29.6-7.63,44.7-6.89s29.54,3.92,42.48,10.91c3.14,1.7,6.38,3.59,9.03,5.99,1.23,1.12,2.83,2.7,2.64,4.53-.19,1.91-2.14,3.37-3.58,4.36-3.76,2.59-8.05,4.5-12.08,6.62-4.42,2.32-8.84,4.64-13.27,6.95-18.15,9.47-36.36,18.81-54.63,28.04-4.39,2.22-8.79,4.43-13.19,6.63-1.13.57-.88,2.47.36,2.74,21.6,4.67,43.33,9.69,63.87,17.99,18.11,7.32,36.82,17.8,47.38,34.86,4.3,6.95,6.98,15.08,5.99,23.32-1.02,8.47-5.82,16.65-14.09,19.73-9.91,3.69-20.87.38-29.65-4.69s-16.58-12.67-23.55-20.19c-13.93-15.03-24.67-32.52-34.77-50.25-1.2-2.1-2.38-4.2-3.57-6.3-.57-1.01-2-.93-2.59,0-8.15,12.79-16.43,25.5-25.28,37.82-9.15,12.74-18.9,25.07-29.57,36.57-11.12,11.99-23.24,23.08-36.43,32.76-14.05,10.31-29.25,19.01-45.27,25.88-8.59,3.69-17.46,7.02-26.51,9.39-8.9,2.33-18.29,3.8-27.49,2.74-8.46-.97-17.05-4.65-21.23-12.48-3.34-6.25-3.09-13.76-1.13-20.4,4.39-14.89,17.28-26.07,29.56-34.65,15.27-10.66,32.18-18.84,49.16-26.38,20.31-9.01,40.82-17.56,61.43-25.86,20.73-8.35,41.56-16.44,62.41-24.49,5.15-1.99,10.3-3.97,15.45-5.95,1.61-.62,1.31-2.76-.4-2.95-29.59-3.23-59.01-7.99-88.09-14.33-28.26-6.16-56.2-13.8-83.62-23.04-15.04-5.07-29.91-10.62-44.58-16.68.12.91.24,1.83.36,2.74,23.55-10.85,51.32-11.39,76.52-7.24,26.87,4.43,51.83,15.45,74.77,29.89,12.61,7.94,24.61,16.78,36.58,25.64,1.55,1.15,3.05-1.45,1.51-2.59-22.06-16.36-44.48-32.46-69.86-43.35-24.85-10.66-52.08-16.15-79.16-14.65-14.38.8-28.75,3.65-41.88,9.7-1.32.61-.69,2.31.36,2.74,26.39,10.89,53.43,20.15,80.9,27.91,28.4,8.02,57.25,14.44,86.34,19.35,16.54,2.79,33.17,5.08,49.84,6.9l-.4-2.95c-21.47,8.27-42.94,16.54-64.32,25.03s-42.2,17-63.07,26.04c-18.33,7.94-36.71,16.05-53.72,26.61-13.71,8.52-27.96,19.06-35.67,33.65-3.27,6.19-5.28,13.3-4.81,20.35.55,8.05,4.67,15.27,11.56,19.55,7.66,4.77,17.22,5.65,26.02,5.02,9.57-.69,18.89-3.12,27.93-6.23,17.44-6,34.2-13.99,49.74-23.93,14.28-9.13,27.52-19.85,39.62-31.7s22.16-23.74,31.99-36.65c9.54-12.53,18.36-25.59,26.92-38.8,2.04-3.15,4.06-6.31,6.08-9.47h-2.59c10.41,18.41,21.06,36.79,34.96,52.85,7.07,8.17,14.95,16.22,23.89,22.37,8.53,5.86,19.18,10.31,29.72,9.08,9.66-1.13,17.25-7.11,20.73-16.15,3.05-7.9,2.65-16.66-.35-24.51-7.22-18.88-25.34-31.56-42.89-39.96-20.74-9.93-43.27-15.65-65.62-20.65-2.88-.65-5.76-1.28-8.65-1.9.12.91.24,1.83.36,2.74,29.54-14.8,58.93-29.9,88.14-45.34,4.47-2.36,12.35-6.42,9.52-12.74-1.27-2.83-4.02-4.81-6.49-6.51-2.19-1.51-4.48-2.88-6.84-4.12-10.56-5.55-22.28-8.65-34.07-10.13-12.26-1.54-24.8-1.22-36.95,1.07-11.6,2.19-24.43,6.11-32.93,14.72-3.46,3.51-6.54,8.33-5.56,13.47,1.03,5.37,6.26,8.5,10.97,10.27,10.5,3.96,24.79,3.26,32.17,13.07,6.3,8.38,2.66,19.33-4.41,25.9-9.84,9.15-23.42,13.77-35.98,17.8-3.36,1.08-6.73,2.11-10.1,3.13l1.46.39c-8.92-7.01,6.09-14.46,11.74-16.3,12.94-4.2,26.79-.78,39.97.3,7.78.63,15.68.66,23.26-1.46,1.86-.52,1.07-3.41-.8-2.89h0Z"/></svg>