<?xml version="1.0" encoding="UTF-8"?><svg id="Layer_1" xmlns="http://www.w3.org/2000/svg" viewBox="0 0 85.04 85.04"><defs><style>.cls-1{stroke:#b097b7;stroke-width:2px;}.cls-1,.cls-2{fill:none;stroke-miterlimit:10;}.cls-2{stroke:#1d1d1b;}</style></defs><g><path class="cls-2" d="m38.38,22c1.93-1.21-2.48-5.94-2.48-5.94l-1.93-1.03s.19-1.19,0-1.55c-.26-.51-1.93-1.55-1.93-1.55l-6.23-3.1"/><path class="cls-2" d="m3.7,57.83v1.86l2.74,3.04s2.53,2.2,9.27,1.69c6.74-.51,15.59-6.59,15.59-6.59,0,0,2.53-3.38,2.53-5.41s-1.48-2.7-1.48-2.7c0,0-8.99,2.53-9.55,3.38s0,2.03,0,2.03c0,0-6.45-.34-6.66.34s-5.48.08-5.48,1.64-2.74.38-2.95,1.4-4-.68-4-.68Z"/><path class="cls-2" d="m16.13,55.47c-4.77-2.24-4.59-3.3-5.17-4.61s1.29-2.63,2.22-3.38,1.64-.09,2.11-.66-.35-.85-.58-.85-1.81-.38-1.81-.38c0,0-.53-.33-.7-1.27s.7-1.03.7-1.03c0,0-.23-.28-.41-.89s.64-.75.64-.75c0,0-.41-.23-.41-.26s-.06-.53-.47-1,.23-1.36.35-2.72,1.23-.66,1.23-1.22,2.16-2.02,2.16-2.02l-1.93.37c-1.93.37-1.64.06-2.63,0s-.41.09-1.75.28-1.58.14-2.57.19-.7-.19-1.58-.19-1.64.47-2.16.52-1.34-.19-1.34,0-.76.47-.76.47l-.53-.23H.01"/><path class="cls-2" d="m14.1,17.75s-1.05.04-.95.22-1.45-.56-1.29-.11,2.74,1.57,2.74,1.57c0,0,5.47,2.97,7.3,5.6s5.87,6.91,5.87,6.91c0,0-7.3-14.93-13.67-14.19Z"/><path class="cls-2" d="m30.96,18.81s-6.96-3.48-12-1.1c-5.03,2.38.91.21.65.7s-.7,1.68.44,1.75.26.84,1.31.91-.26.79.35.92.32,1.67,1.08,1.6,2.86.63,4,.91,1.57,4.35,3.5,4.21,0,.77,2.05,1.05,2.49-.77,2.58.28-.7,1.12.79,1.05,2.71-1.01,2.62.02,1.05-.89,1.57,0,1.05,2.01,1.4,2.09,1.22-.07,1.22.77,1.84-.36,1.84.45.44-.1.96.88,1.25,2.44.98,2.31"/><path class="cls-2" d="m15.16,34.59s6.89-.91,8.71-3.46c0,0-10.86-5.03-17.36-3.47s-5.22.78-5.22.78l-1.28-.14"/><path class="cls-2" d="m44.37,34.44s-2.8,1.77-3.53,2.08-1.99-.21-3.78-.41-1.19-.17-3.65-.01-.66-1.33-2.12-1.38,1.39-1.44-1.53-1.06c-2.92.37-1.99-1.7-1.99-1.7l1.06.19c1.06.19,1.46-3.41,1.46-3.41"/><path class="cls-2" d="m42.99,38.45s-16.09-1.91-16.15,10.09c0,0,1.13-.61,1.86-.24s1.54.53,2.96.24-.98,1.32.69,1.18,3.33.29,3.66.76-.27.85.99.85.33,1.01,1.33.9,5.49-1.97,7.05-3.35"/><path class="cls-2" d="m.01,55.47s.73.02,1.23,0l.5-.02s.1-1.62.5-2.02-1.01-2.5,0-2.26.4-1.37,4.03-.81c3.63.57,5.28,1.9,5.28,1.9"/><path class="cls-2" d="m12.19,44.33c-1.75-.53-1.48.45-1.98.62s-.81,1.04-.81.35.81.78,0,.69-.6.16-1.51.65,0,0,0,0l-.81-.16c-.81-.16-.81,3.88-.81,3.88"/><path class="cls-2" d="m3.36,35.61s-.61,3.43-.71,4.32.5,2.75,1.51,2.59-.2-.71,0-1.12,1.03-2.84,1.62-2.68.49-1.7,1.1-1.62,2.96-1.35,2.79-2.01"/><path class="cls-2" d="m12.89,43.3s-2.51.33-2.6-.77c0,0-.07,1.22-.6.9-2.55-1.5-2.07-3.09-2.22-3.67-.24-.89-1.68,1.12-1.68,1.12h-1.41"/><path class="cls-2" d="m4.96,1.57s-1.16,1.29,0,1.23,1.16-.54,1.16-.06-.08,1.09.98,1.09.28,1.21,1.53.9,2.38-.9,3.8-1.09.25-.26,1.5.24c1.6.64-1.41,1.05,1.6.64s1.56-.21,2.31-.21.83.96,2.03.63,1.05-.15,1.91.17"/><path class="cls-2" d="m11.56,64.39s-2.93.97-.99,3.6c1.93,2.64,2.84,5.27.17,5.27s-5.58-1.4-3.65,1.86c1.93,3.26,5.22,4.5,5.8,2.79s3.97-1.55,3.24-.16,1.55-1.4,2.63-1.24,2.33-1.55,3.55-.93-1.79-2.95.48-2.95.85-4.96,3.01-4.96,18.62-8.96,17.74-12.39"/><path class="cls-2" d="m8.07,17.71S-2.19,9.28,6.12,2.74"/><path class="cls-2" d="m19.87,4.94s2.68,2.1,2.92,3.57,1.95,5,7.53,8.68"/><path class="cls-2" d="m27.63,9.72c-.33-.16-1.12-1.54-1.04-2.25s-4.86-3.66-4.86-3.66"/><path class="cls-2" d="m11.86,17.86s-3.3-.77-4.71,0S.01,22.93.01,22.93"/><path class="cls-2" d="m1.3,28.44s7.09-8.34,13.04-7.43c3.71.57,4.11.85,4.11.85"/><path class="cls-2" d="m.01,2.95l4.95-1.38h8.6l5.16.69,3.01,1.55s.3,2.38,1.07,2.76c.41.2,1.54-.22,1.94,0,.62.34,1.07,2.24,1.07,2.24l3.87,6.72,1.29,3.28,3.01,2.07h1.93l3.44,1.55,2.36,1.38,1.93,1.38,1.29,3.1,1.07,3.84,1.72,2.19v3.97l-2.58-1.21h-3.44l1.93,2.07,2.66,1.72v7.33l-2.76,2.01v5.07l-1.33,3.47-2.33,2.93-3.33,2.67-2.33,2.67-2.33,6.67-1.66,3.47-2.99,2.49-4.07.78-2.33.78-2.92-.78h-2.44l-2.44-.78-2.68,1.56h-6.34L.01,79.65"/><path class="cls-2" d="m38.38,22c1.93-1.21-2.48-5.94-2.48-5.94l-1.93-1.03s.19-1.19,0-1.55c-.26-.51-1.93-1.55-1.93-1.55l-6.23-3.1"/><path class="cls-2" d="m3.7,57.83v1.86l2.74,3.04s2.53,2.2,9.27,1.69c6.74-.51,15.59-6.59,15.59-6.59,0,0,2.53-3.38,2.53-5.41s-1.48-2.7-1.48-2.7c0,0-8.99,2.53-9.55,3.38s0,2.03,0,2.03c0,0-6.45-.34-6.66.34s-5.48.08-5.48,1.64-2.74.38-2.95,1.4-4-.68-4-.68Z"/><path class="cls-2" d="m16.13,55.47c-4.77-2.24-4.59-3.3-5.17-4.61s1.29-2.63,2.22-3.38,1.64-.09,2.11-.66-.35-.85-.58-.85-1.81-.38-1.81-.38c0,0-.53-.33-.7-1.27s.7-1.03.7-1.03c0,0-.23-.28-.41-.89s.64-.75.64-.75c0,0-.41-.23-.41-.26s-.06-.53-.47-1,.23-1.36.35-2.72,1.23-.66,1.23-1.22,2.16-2.02,2.16-2.02l-1.93.37c-1.93.37-1.64.06-2.63,0s-.41.09-1.75.28-1.58.14-2.57.19-.7-.19-1.58-.19-1.64.47-2.16.52-1.34-.19-1.34,0-.76.47-.76.47l-.53-.23H.01"/><path class="cls-2" d="m14.1,17.75s-1.05.04-.95.22-1.45-.56-1.29-.11,2.74,1.57,2.74,1.57c0,0,5.47,2.97,7.3,5.6s5.87,6.91,5.87,6.91c0,0-7.3-14.93-13.67-14.19Z"/><path class="cls-2" d="m30.96,18.81s-6.96-3.48-12-1.1c-5.03,2.38.91.21.65.7s-.7,1.68.44,1.75.26.84,1.31.91-.26.79.35.92.32,1.67,1.08,1.6,2.86.63,4,.91,1.57,4.35,3.5,4.21,0,.77,2.05,1.05,2.49-.77,2.58.28-.7,1.12.79,1.05,2.71-1.01,2.62.02,1.05-.89,1.57,0,1.05,2.01,1.4,2.09,1.22-.07,1.22.77,1.84-.36,1.84.45.44-.1.96.88,1.25,2.44.98,2.31"/><path class="cls-2" d="m15.16,34.59s6.89-.91,8.71-3.46c0,0-10.86-5.03-17.36-3.47s-5.22.78-5.22.78l-1.28-.14"/><path class="cls-2" d="m44.37,34.44s-2.8,1.77-3.53,2.08-1.99-.21-3.78-.41-1.19-.17-3.65-.01-.66-1.33-2.12-1.38,1.39-1.44-1.53-1.06c-2.92.37-1.99-1.7-1.99-1.7l1.06.19c1.06.19,1.46-3.41,1.46-3.41"/><path class="cls-2" d="m42.99,38.45s-16.09-1.91-16.15,10.09c0,0,1.13-.61,1.86-.24s1.54.53,2.96.24-.98,1.32.69,1.18,3.33.29,3.66.76-.27.85.99.85.33,1.01,1.33.9,5.49-1.97,7.05-3.35"/><path class="cls-2" d="m.01,55.47s.73.02,1.23,0l.5-.02s.1-1.62.5-2.02-1.01-2.5,0-2.26.4-1.37,4.03-.81c3.63.57,5.28,1.9,5.28,1.9"/><path class="cls-2" d="m12.19,44.33c-1.75-.53-1.48.45-1.98.62s-.81,1.04-.81.35.81.78,0,.69-.6.16-1.51.65,0,0,0,0l-.81-.16c-.81-.16-.81,3.88-.81,3.88"/><path class="cls-2" d="m3.36,35.61s-.61,3.43-.71,4.32.5,2.75,1.51,2.59-.2-.71,0-1.12,1.03-2.84,1.62-2.68.49-1.7,1.1-1.62,2.96-1.35,2.79-2.01"/><path class="cls-2" d="m12.89,43.3s-2.51.33-2.6-.77c0,0-.07,1.22-.6.9-2.55-1.5-2.07-3.09-2.22-3.67-.24-.89-1.68,1.12-1.68,1.12h-1.41"/><path class="cls-2" d="m4.96,1.57s-1.16,1.29,0,1.23,1.16-.54,1.16-.06-.08,1.09.98,1.09.28,1.21,1.53.9,2.38-.9,3.8-1.09.25-.26,1.5.24c1.6.64-1.41,1.05,1.6.64s1.56-.21,2.31-.21.83.96,2.03.63,1.05-.15,1.91.17"/><path class="cls-2" d="m11.56,64.39s-2.93.97-.99,3.6c1.93,2.64,2.84,5.27.17,5.27s-5.58-1.4-3.65,1.86c1.93,3.26,5.22,4.5,5.8,2.79s3.97-1.55,3.24-.16,1.55-1.4,2.63-1.24,2.33-1.55,3.55-.93-1.79-2.95.48-2.95.85-4.96,3.01-4.96,18.62-8.96,17.74-12.39"/><path class="cls-2" d="m8.07,17.71S-2.19,9.28,6.12,2.74"/><path class="cls-2" d="m19.87,4.94s2.68,2.1,2.92,3.57,1.95,5,7.53,8.68"/><path class="cls-2" d="m27.63,9.72c-.33-.16-1.12-1.54-1.04-2.25s-4.86-3.66-4.86-3.66"/><path class="cls-2" d="m11.86,17.86s-3.3-.77-4.71,0S.01,22.93.01,22.93"/><path class="cls-2" d="m1.3,28.44s7.09-8.34,13.04-7.43c3.71.57,4.11.85,4.11.85"/></g><g><path class="cls-1" d="m58.24,24.56c1.93-1.21-2.48-5.94-2.48-5.94l-1.93-1.03s.19-1.19,0-1.55c-.26-.51-1.93-1.55-1.93-1.55l-6.23-3.1"/><path class="cls-1" d="m23.56,60.4v1.86l2.74,3.04s2.53,2.2,9.27,1.69c6.74-.51,15.59-6.59,15.59-6.59,0,0,2.53-3.38,2.53-5.41s-1.48-2.7-1.48-2.7c0,0-8.99,2.53-9.55,3.38s0,2.03,0,2.03c0,0-6.45-.34-6.66.34s-5.48.08-5.48,1.64-2.74.38-2.95,1.4-4-.68-4-.68Z"/><path class="cls-1" d="m35.99,58.03c-4.77-2.24-4.59-3.3-5.17-4.61s1.29-2.63,2.22-3.38,1.64-.09,2.11-.66-.35-.85-.58-.85-1.81-.38-1.81-.38c0,0-.53-.33-.7-1.27s.7-1.03.7-1.03c0,0-.23-.28-.41-.89s.64-.75.64-.75c0,0-.41-.23-.41-.26s-.06-.53-.47-1,.23-1.36.35-2.72,1.23-.66,1.23-1.22,2.16-2.02,2.16-2.02l-1.93.37c-1.93.37-1.64.06-2.63,0s-.41.09-1.75.28-1.58.14-2.57.19-.7-.19-1.58-.19-1.64.47-2.16.52-1.34-.19-1.34,0-.76.47-.76.47l-.53-.23h-.72"/><path class="cls-1" d="m33.95,20.32s-1.05.04-.95.22-1.45-.56-1.29-.11,2.74,1.57,2.74,1.57c0,0,5.47,2.97,7.3,5.6s5.87,6.91,5.87,6.91c0,0-7.3-14.93-13.67-14.19Z"/><path class="cls-1" d="m50.82,21.37s-6.96-3.48-12-1.1.91.21.65.7-.7,1.68.44,1.75.26.84,1.31.91-.26.79.35.92.32,1.67,1.08,1.6,2.86.63,4,.91,1.57,4.35,3.5,4.21,0,.77,2.05,1.05,2.49-.77,2.58.28-.7,1.12.79,1.05,2.71-1.01,2.62.02,1.05-.89,1.57,0,1.05,2.01,1.4,2.09,1.22-.07,1.22.77,1.84-.36,1.84.45.44-.1.96.88,1.25,2.44.98,2.31"/><path class="cls-1" d="m35.01,37.16s6.89-.91,8.71-3.46c0,0-10.86-5.03-17.36-3.47-6.5,1.56-5.22.78-5.22.78l-1.28-.14"/><path class="cls-1" d="m64.22,37s-2.8,1.77-3.53,2.08-1.99-.21-3.78-.41-1.19-.17-3.65-.01c-2.45.16-.66-1.33-2.12-1.38s1.39-1.44-1.53-1.06-1.99-1.7-1.99-1.7l1.06.19c1.06.19,1.46-3.41,1.46-3.41"/><path class="cls-1" d="m62.85,41.02s-16.09-1.91-16.15,10.09c0,0,1.13-.61,1.86-.24s1.54.53,2.96.24-.98,1.32.69,1.18,3.33.29,3.66.76-.27.85.99.85.33,1.01,1.33.9,5.49-1.97,7.05-3.35"/><path class="cls-1" d="m19.87,58.03s.73.02,1.23,0l.5-.02s.1-1.62.5-2.02-1.01-2.5,0-2.26.4-1.37,4.03-.81,5.28,1.9,5.28,1.9"/><path class="cls-1" d="m32.04,46.89c-1.75-.53-1.48.45-1.98.62s-.81,1.04-.81.35.81.78,0,.69-.6.16-1.51.65,0,0,0,0l-.81-.16c-.81-.16-.81,3.88-.81,3.88"/><path class="cls-1" d="m23.22,38.17s-.61,3.43-.71,4.32.5,2.75,1.51,2.59-.2-.71,0-1.12,1.03-2.84,1.62-2.68.49-1.7,1.1-1.62,2.96-1.35,2.79-2.01"/><path class="cls-1" d="m32.75,45.86s-2.51.33-2.6-.77c0,0-.07,1.22-.6.9-2.55-1.5-2.07-3.09-2.22-3.67-.24-.89-1.68,1.12-1.68,1.12h-1.41"/><path class="cls-1" d="m24.82,4.13s-1.16,1.29,0,1.23,1.16-.54,1.16-.06-.08,1.09.98,1.09.28,1.21,1.53.9,2.38-.9,3.8-1.09.25-.26,1.5.24c1.6.64-1.41,1.05,1.6.64s1.56-.21,2.31-.21.83.96,2.03.63,1.05-.15,1.91.17"/><path class="cls-1" d="m31.42,66.95s-2.93.97-.99,3.6c1.93,2.64,2.84,5.27.17,5.27s-5.58-1.4-3.65,1.86c1.93,3.26,5.22,4.5,5.8,2.79s3.97-1.55,3.24-.16,1.55-1.4,2.63-1.24,2.33-1.55,3.55-.93-1.79-2.95.48-2.95.85-4.96,3.01-4.96,18.62-8.96,17.74-12.39"/><path class="cls-1" d="m27.93,20.27s-10.26-8.43-1.95-14.97"/><path class="cls-1" d="m39.73,7.5s2.68,2.1,2.92,3.57,1.95,5,7.53,8.68"/><path class="cls-1" d="m47.48,12.28c-.33-.16-1.12-1.54-1.04-2.25s-4.86-3.66-4.86-3.66"/><path class="cls-1" d="m31.72,20.42s-3.3-.77-4.71,0-7.14,5.07-7.14,5.07"/><path class="cls-1" d="m21.15,31s7.09-8.34,13.04-7.43c3.71.57,4.11.85,4.11.85"/><path class="cls-1" d="m19.87,5.51l4.95-1.38h8.6l5.16.69,3.01,1.55s.3,2.38,1.07,2.76c.41.2,1.54-.22,1.94,0,.62.34,1.07,2.24,1.07,2.24l3.87,6.72,1.29,3.28,3.01,2.07h1.93l3.44,1.55,2.36,1.38,1.93,1.38,1.29,3.1,1.07,3.84,1.72,2.19v3.97l-2.58-1.21h-3.44l1.93,2.07,2.66,1.72v7.33l-2.76,2.01v5.07l-1.33,3.47-2.33,2.93-3.33,2.67-2.33,2.67-2.33,6.67-1.66,3.47-2.99,2.49-4.07.78-2.33.78-2.92-.78h-2.44l-2.44-.78-2.68,1.56h-6.34l-4.02-1.56"/><path class="cls-1" d="m58.24,24.56c1.93-1.21-2.48-5.94-2.48-5.94l-1.93-1.03s.19-1.19,0-1.55c-.26-.51-1.93-1.55-1.93-1.55l-6.23-3.1"/><path class="cls-1" d="m23.56,60.4v1.86l2.74,3.04s2.53,2.2,9.27,1.69c6.74-.51,15.59-6.59,15.59-6.59,0,0,2.53-3.38,2.53-5.41s-1.48-2.7-1.48-2.7c0,0-8.99,2.53-9.55,3.38s0,2.03,0,2.03c0,0-6.45-.34-6.66.34s-5.48.08-5.48,1.64-2.74.38-2.95,1.4-4-.68-4-.68Z"/><path class="cls-1" d="m35.99,58.03c-4.77-2.24-4.59-3.3-5.17-4.61s1.29-2.63,2.22-3.38,1.64-.09,2.11-.66-.35-.85-.58-.85-1.81-.38-1.81-.38c0,0-.53-.33-.7-1.27s.7-1.03.7-1.03c0,0-.23-.28-.41-.89s.64-.75.64-.75c0,0-.41-.23-.41-.26s-.06-.53-.47-1,.23-1.36.35-2.72,1.23-.66,1.23-1.22,2.16-2.02,2.16-2.02l-1.93.37c-1.93.37-1.64.06-2.63,0s-.41.09-1.75.28-1.58.14-2.57.19-.7-.19-1.58-.19-1.64.47-2.16.52-1.34-.19-1.34,0-.76.47-.76.47l-.53-.23h-.72"/><path class="cls-1" d="m33.95,20.32s-1.05.04-.95.22-1.45-.56-1.29-.11,2.74,1.57,2.74,1.57c0,0,5.47,2.97,7.3,5.6s5.87,6.91,5.87,6.91c0,0-7.3-14.93-13.67-14.19Z"/><path class="cls-1" d="m50.82,21.37s-6.96-3.48-12-1.1.91.21.65.7-.7,1.68.44,1.75.26.84,1.31.91-.26.79.35.92.32,1.67,1.08,1.6,2.86.63,4,.91,1.57,4.35,3.5,4.21,0,.77,2.05,1.05,2.49-.77,2.58.28-.7,1.12.79,1.05,2.71-1.01,2.62.02,1.05-.89,1.57,0,1.05,2.01,1.4,2.09,1.22-.07,1.22.77,1.84-.36,1.84.45.44-.1.96.88,1.25,2.44.98,2.31"/><path class="cls-1" d="m35.01,37.16s6.89-.91,8.71-3.46c0,0-10.86-5.03-17.36-3.47-6.5,1.56-5.22.78-5.22.78l-1.28-.14"/><path class="cls-1" d="m64.22,37s-2.8,1.77-3.53,2.08-1.99-.21-3.78-.41-1.19-.17-3.65-.01c-2.45.16-.66-1.33-2.12-1.38s1.39-1.44-1.53-1.06-1.99-1.7-1.99-1.7l1.06.19c1.06.19,1.46-3.41,1.46-3.41"/><path class="cls-1" d="m62.85,41.02s-16.09-1.91-16.15,10.09c0,0,1.13-.61,1.86-.24s1.54.53,2.96.24-.98,1.32.69,1.18,3.33.29,3.66.76-.27.85.99.85.33,1.01,1.33.9,5.49-1.97,7.05-3.35"/><path class="cls-1" d="m19.87,58.03s.73.02,1.23,0l.5-.02s.1-1.62.5-2.02-1.01-2.5,0-2.26.4-1.37,4.03-.81,5.28,1.9,5.28,1.9"/><path class="cls-1" d="m32.04,46.89c-1.75-.53-1.48.45-1.98.62s-.81,1.04-.81.35.81.78,0,.69-.6.16-1.51.65,0,0,0,0l-.81-.16c-.81-.16-.81,3.88-.81,3.88"/><path class="cls-1" d="m23.22,38.17s-.61,3.43-.71,4.32.5,2.75,1.51,2.59-.2-.71,0-1.12,1.03-2.84,1.62-2.68.49-1.7,1.1-1.62,2.96-1.35,2.79-2.01"/><path class="cls-1" d="m32.75,45.86s-2.51.33-2.6-.77c0,0-.07,1.22-.6.9-2.55-1.5-2.07-3.09-2.22-3.67-.24-.89-1.68,1.12-1.68,1.12h-1.41"/><path class="cls-1" d="m24.82,4.13s-1.16,1.29,0,1.23,1.16-.54,1.16-.06-.08,1.09.98,1.09.28,1.21,1.53.9,2.38-.9,3.8-1.09.25-.26,1.5.24c1.6.64-1.41,1.05,1.6.64s1.56-.21,2.31-.21.83.96,2.03.63,1.05-.15,1.91.17"/><path class="cls-1" d="m31.42,66.95s-2.93.97-.99,3.6c1.93,2.64,2.84,5.27.17,5.27s-5.58-1.4-3.65,1.86c1.93,3.26,5.22,4.5,5.8,2.79s3.97-1.55,3.24-.16,1.55-1.4,2.63-1.24,2.33-1.55,3.55-.93-1.79-2.95.48-2.95.85-4.96,3.01-4.96,18.62-8.96,17.74-12.39"/><path class="cls-1" d="m27.93,20.27s-10.26-8.43-1.95-14.97"/><path class="cls-1" d="m39.73,7.5s2.68,2.1,2.92,3.57,1.95,5,7.53,8.68"/><path class="cls-1" d="m47.48,12.28c-.33-.16-1.12-1.54-1.04-2.25s-4.86-3.66-4.86-3.66"/><path class="cls-1" d="m31.72,20.42s-3.3-.77-4.71,0-7.14,5.07-7.14,5.07"/><path class="cls-1" d="m21.15,31s7.09-8.34,13.04-7.43c3.71.57,4.11.85,4.11.85"/></g></svg>